<?xml version="1.0" encoding="utf-8"?>
<!-- Generator: Adobe Illustrator 21.0.0, SVG Export Plug-In . SVG Version: 6.00 Build 0)  -->
<svg version="1.1" xmlns="http://www.w3.org/2000/svg" xmlns:xlink="http://www.w3.org/1999/xlink" x="0px" y="0px"
	 viewBox="0 0 50 50" style="enable-background:new 0 0 50 50;" xml:space="preserve">
<style type="text/css">
	.st0{display:none;}
	.st1{display:inline;}
	.st2{fill:#273BE2;}
	.st3{fill:#F8F8F8;}
	.st4{filter:url(#Adobe_OpacityMaskFilter);}
	.st5{fill:#FFFFFF;}
	.st6{mask:url(#mask-2_1_);fill:#F8F8F8;}
	.st7{filter:url(#Adobe_OpacityMaskFilter_1_);}
	.st8{mask:url(#mask-4_1_);fill:#F8F8F8;}
	.st9{filter:url(#Adobe_OpacityMaskFilter_2_);}
	.st10{mask:url(#mask-6_1_);fill:#F8F8F8;}
	.st11{filter:url(#Adobe_OpacityMaskFilter_3_);}
	.st12{mask:url(#mask-2_2_);fill:#F8F8F8;}
</style>
<g id="Layer_1" class="st0">
	<g id="Page-1" class="st1">
		<path id="Fill-25" class="st2" d="M20.5,30.6l0-12.1l11.9,6.1L20.5,30.6z M46.5,16.4c0,0-0.4-3-1.7-4.3c-1.7-1.7-3.5-1.7-4.4-1.8
			C34.2,9.8,25,9.8,25,9.8h0c0,0-9.2,0-15.4,0.4c-0.9,0.1-2.7,0.1-4.4,1.8c-1.3,1.3-1.7,4.3-1.7,4.3s-0.4,3.5-0.4,7v3.3
			c0,3.5,0.4,7,0.4,7s0.4,3,1.7,4.3c1.7,1.7,3.9,1.7,4.8,1.8c3.5,0.3,14.9,0.4,14.9,0.4s9.2,0,15.4-0.5c0.9-0.1,2.7-0.1,4.4-1.8
			c1.3-1.3,1.7-4.3,1.7-4.3s0.4-3.5,0.4-7v-3.3C46.9,19.9,46.5,16.4,46.5,16.4L46.5,16.4z"/>
	</g>
</g>
<g id="Layer_2">
	<g id="Page-1_2_">
		<path id="Fill-1_1_" class="st3" d="M48.9,10.7c-1.7,0.8-3.6,1.3-5.5,1.5c2-1.2,3.5-3,4.2-5.2c-1.9,1.1-3.9,1.9-6.1,2.3
			c-1.8-1.8-4.2-3-7-3c-5.3,0-9.6,4.2-9.6,9.5c0,0.7,0.1,1.5,0.2,2.2c-8-0.4-15.1-4.2-19.8-9.9c-0.8,1.4-1.3,3-1.3,4.8
			c0,3.3,1.7,6.2,4.3,7.9c-1.6,0-3.1-0.5-4.3-1.2c0,0,0,0.1,0,0.1c0,4.6,3.3,8.4,7.7,9.3c-0.8,0.2-1.7,0.3-2.5,0.3
			c-0.6,0-1.2-0.1-1.8-0.2c1.2,3.8,4.8,6.5,9,6.6c-3.3,2.5-7.4,4-11.9,4c-0.8,0-1.5,0-2.3-0.1c4.2,2.7,9.3,4.2,14.7,4.2
			c17.7,0,27.3-14.4,27.3-26.9c0-0.4,0-0.8,0-1.2C46,14.3,47.6,12.6,48.9,10.7"/>
	</g>
</g>
<g id="Layer_3" class="st0">
	<g id="Page-1_1_" class="st1">
		<path id="Fill-1" class="st3" d="M4.2,25C2,24.4,2,22.9,4.7,21.8L44.4,6.9c1.8-0.8,3.6,0.4,2.9,3.1l-6.8,31.1
			c-0.5,2.2-1.8,2.7-3.7,1.7l-10.3-7.4l-5,4.7c-0.6,0.5-1,1-2.1,1l0.7-10.3l0,0l0,0v0h0L39.3,14c0.8-0.7-0.2-1.1-1.3-0.4L14.4,28.1
			L4.2,25z"/>
	</g>
</g>
<g id="Layer_4" class="st0">
	<g id="Page-1_3_" class="st1">
		<g id="Group-10" transform="translate(2.000000, 0.000000)">
			<g id="Group-3" transform="translate(10.000000, 7.000000)">
				<g id="Clip-2">
				</g>
				<defs>
					<filter id="Adobe_OpacityMaskFilter" filterUnits="userSpaceOnUse" x="13.1" y="10.7" width="7.2" height="4.8">
						<feColorMatrix  type="matrix" values="1 0 0 0 0  0 1 0 0 0  0 0 1 0 0  0 0 0 1 0"/>
					</filter>
				</defs>
				<mask maskUnits="userSpaceOnUse" x="13.1" y="10.7" width="7.2" height="4.8" id="mask-2_1_">
					<g class="st4">
						<path id="path-1_1_" class="st5" d="M13.1,14.9c1.6,0.3,6.3,1.5,7.1-0.9c0.8-2.5-4.2-3-5.7-3.3L13.1,14.9z"/>
					</g>
				</mask>
				<path id="Fill-1_2_" class="st6" d="M13.1,14.9c1.6,0.3,6.3,1.5,7.1-0.9c0.8-2.5-4.2-3-5.7-3.3L13.1,14.9z"/>
			</g>
			<g id="Group-6" transform="translate(9.000000, 10.000000)">
				<g id="Clip-5">
				</g>
				<defs>
					<filter id="Adobe_OpacityMaskFilter_1_" filterUnits="userSpaceOnUse" x="11.6" y="15.1" width="7.3" height="7.2">
						<feColorMatrix  type="matrix" values="1 0 0 0 0  0 1 0 0 0  0 0 1 0 0  0 0 0 1 0"/>
					</filter>
				</defs>
				<mask maskUnits="userSpaceOnUse" x="11.6" y="15.1" width="7.3" height="7.2" id="mask-4_1_">
					<g class="st7">
						<path id="path-3_1_" class="st5" d="M11.6,21.3c1.6,0.5,6.5,2.4,7.2-1.1c0.8-3.7-4.3-4.6-5.9-5.1L11.6,21.3z"/>
					</g>
				</mask>
				<path id="Fill-4" class="st8" d="M11.6,21.3c1.6,0.5,6.5,2.4,7.2-1.1c0.8-3.7-4.3-4.6-5.9-5.1L11.6,21.3z"/>
			</g>
			<g id="Group-9">
				<g id="Clip-8">
				</g>
				<defs>
					<filter id="Adobe_OpacityMaskFilter_2_" filterUnits="userSpaceOnUse" x="-1.5" y="0.6" width="48.9" height="48.8">
						<feColorMatrix  type="matrix" values="1 0 0 0 0  0 1 0 0 0  0 0 1 0 0  0 0 0 1 0"/>
					</filter>
				</defs>
				<mask maskUnits="userSpaceOnUse" x="-1.5" y="0.6" width="48.9" height="48.8" id="mask-6_1_">
					<g class="st9">
						<path id="path-5_1_" class="st5" d="M-0.7,19.1C-4,32.2,4,45.5,17.1,48.7c2,0.5,4,0.7,5.9,0.7h0c11,0,20.9-7.4,23.7-18.5
							c0.5-2,0.7-3.9,0.7-5.9V25C47.4,14,40,4.1,28.9,1.3c-2-0.5-4-0.7-5.9-0.7C12,0.6,2,8-0.7,19.1z M22,9.1l2.7,0.7l-1.1,4.3
							c0.7,0.2,1.4,0.3,2.2,0.5l1.1-4.3l2.7,0.7l-1.1,4.4c3.4,1.2,5.9,2.9,5.4,6.2c-0.4,2.4-1.7,3.5-3.4,3.9
							c2.4,1.3,3.6,3.2,2.5,6.5c-1.4,4.1-4.9,4.5-9.5,3.6L22.2,40l-2.7-0.7l1.1-4.4c-0.7-0.2-1.4-0.4-2.1-0.6l-1.1,4.4l-2.7-0.7
							l1.1-4.5c-0.6-0.2-1.3-0.3-1.9-0.5l-3.5-0.9l1.3-3.1c0,0,2,0.5,2,0.5c0.8,0.2,1.1-0.3,1.2-0.6l3-12.1c0-0.6-0.2-1.3-1.3-1.6
							c0,0-2-0.5-2-0.5l0.7-2.9l3.7,0.9l0,0c0.6,0.1,1.1,0.3,1.7,0.4L22,9.1z"/>
					</g>
				</mask>
				<path id="Fill-7" class="st10" d="M-0.7,19.1C-4,32.2,4,45.5,17.1,48.7c2,0.5,4,0.7,5.9,0.7h0c11,0,20.9-7.4,23.7-18.5
					c0.5-2,0.7-3.9,0.7-5.9V25C47.4,14,40,4.1,28.9,1.3c-2-0.5-4-0.7-5.9-0.7C12,0.6,2,8-0.7,19.1z M22,9.1l2.7,0.7l-1.1,4.3
					c0.7,0.2,1.4,0.3,2.2,0.5l1.1-4.3l2.7,0.7l-1.1,4.4c3.4,1.2,5.9,2.9,5.4,6.2c-0.4,2.4-1.7,3.5-3.4,3.9c2.4,1.3,3.6,3.2,2.5,6.5
					c-1.4,4.1-4.9,4.5-9.5,3.6L22.2,40l-2.7-0.7l1.1-4.4c-0.7-0.2-1.4-0.4-2.1-0.6l-1.1,4.4l-2.7-0.7l1.1-4.5
					c-0.6-0.2-1.3-0.3-1.9-0.5l-3.5-0.9l1.3-3.1c0,0,2,0.5,2,0.5c0.8,0.2,1.1-0.3,1.2-0.6l3-12.1c0-0.6-0.2-1.3-1.3-1.6
					c0,0-2-0.5-2-0.5l0.7-2.9l3.7,0.9l0,0c0.6,0.1,1.1,0.3,1.7,0.4L22,9.1z"/>
			</g>
		</g>
	</g>
</g>
<g id="Layer_5" class="st0">
	<g id="Page-1_4_" class="st1">
		<path id="github-_x5B__x23_142_x5D_" class="st3" d="M49.5,25.6c0,11.1-7,20.5-16.8,23.9c-1.2,0.2-1.7-0.5-1.7-1.2
			c0-0.8,0-3.5,0-6.9c0-2.3-0.8-3.9-1.7-4.7c5.5-0.6,11.2-2.7,11.2-12.4c0-2.7-1-5-2.5-6.8c0.3-0.6,1.1-3.2-0.2-6.7
			c0,0-2.1-0.7-6.7,2.6c-2-0.6-4.1-0.8-6.1-0.8c-2.1,0-4.2,0.3-6.1,0.8c-4.7-3.3-6.7-2.6-6.7-2.6c-1.3,3.5-0.5,6-0.2,6.7
			c-1.6,1.8-2.5,4-2.5,6.8c0,9.6,5.7,11.8,11.2,12.4c-0.7,0.6-1.3,1.7-1.6,3.4c-1.4,0.6-5,1.8-7.1-2.1c0,0-1.3-2.4-3.8-2.6
			c0,0-2.4,0-0.2,1.5c0,0,1.6,0.8,2.7,3.7c0,0,1.4,4.5,8.3,3c0,2.1,0,4.1,0,4.7c0,0.7-0.5,1.4-1.7,1.2C7.5,46.2,0.5,36.7,0.5,25.6
			c0-13.9,11-25.2,24.5-25.2C38.5,0.5,49.5,11.7,49.5,25.6z"/>
	</g>
</g>
<g id="Layer_6" class="st0">
	<g id="Page-1_5_" class="st1">
		<path id="facebook-_x5B__x23_176_x5D_" class="st3" d="M29.4,45.8V27.5h5.8l0.9-8.1h-6.8v-4c0-2.1,0.1-4.2,3.1-4.2h3.1V5.5
			c0-0.1-2.7-0.3-5.4-0.3c-5.6,0-9.1,3.4-9.1,9.5v4.7h-6.2v8.1h6.2v18.3H29.4z"/>
	</g>
</g>
<g id="Layer_7" class="st0">
	<g id="Page-1_6_" class="st1">
		<g id="Group-3_1_">
			<g id="Clip-2_1_">
			</g>
			<defs>
				<filter id="Adobe_OpacityMaskFilter_3_" filterUnits="userSpaceOnUse" x="5.2" y="4.1" width="40.8" height="40.8">
					<feColorMatrix  type="matrix" values="1 0 0 0 0  0 1 0 0 0  0 0 1 0 0  0 0 0 1 0"/>
				</filter>
			</defs>
			<mask maskUnits="userSpaceOnUse" x="5.2" y="4.1" width="40.8" height="40.8" id="mask-2_2_">
				<g class="st11">
					<polygon id="path-1_2_" class="st5" points="5.2,4.1 45.9,4.1 45.9,44.9 5.2,44.9 					"/>
				</g>
			</mask>
			<path id="Fill-1_3_" class="st12" d="M39,13.8l-2.2,2.1c-0.2,0.1-0.3,0.4-0.2,0.6v15.4c0,0.2,0.1,0.5,0.2,0.6l2.1,2.1v0.5H28.2
				v-0.5l2.2-2.1c0.2-0.2,0.2-0.3,0.2-0.6V19.4L24.5,35h-0.8l-7.2-15.6v10.5c-0.1,0.4,0.1,0.9,0.4,1.2l2.9,3.5V35h-8.2v-0.5l2.9-3.5
				c0.3-0.3,0.4-0.8,0.4-1.2V17.8c0-0.3-0.1-0.7-0.3-0.9L12,13.8v-0.5h7.9l6.1,13.5l5.4-13.5H39V13.8z M5.2,44.9h40.8V4.1H5.2V44.9z
				"/>
		</g>
	</g>
</g>
</svg>
