<?xml version="1.0" encoding="utf-8"?>
<!-- Generator: Adobe Illustrator 21.0.0, SVG Export Plug-In . SVG Version: 6.00 Build 0)  -->
<svg version="1.1" xmlns="http://www.w3.org/2000/svg" xmlns:xlink="http://www.w3.org/1999/xlink" x="0px" y="0px"
	 viewBox="0 0 20 20" style="enable-background:new 0 0 20 20;" xml:space="preserve">
<style type="text/css">
	.st0{display:none;}
	.st1{display:inline;}
	.st2{filter:url(#Adobe_OpacityMaskFilter);}
	.st3{fill:#FFFFFF;}
	.st4{mask:url(#mask-2_1_);fill:#F8F8F8;}
	.st5{filter:url(#Adobe_OpacityMaskFilter_1_);}
	.st6{mask:url(#mask-2_2_);fill:#F8F8F8;}
	.st7{filter:url(#Adobe_OpacityMaskFilter_2_);}
	.st8{mask:url(#mask-4_1_);fill:#F8F8F8;}
	.st9{fill:#F8F8F8;}
</style>
<g id="Layer_1" class="st0">
	<g id="Page-1" class="st1">
		<g id="Group-3">
			<g id="Clip-2">
			</g>
			<defs>
				<filter id="Adobe_OpacityMaskFilter" filterUnits="userSpaceOnUse" x="4" y="1" width="12" height="18">
					<feColorMatrix  type="matrix" values="1 0 0 0 0  0 1 0 0 0  0 0 1 0 0  0 0 0 1 0"/>
				</filter>
			</defs>
			<mask maskUnits="userSpaceOnUse" x="4" y="1" width="12" height="18" id="mask-2_1_">
				<g class="st2">
					<polygon id="path-1_1_" class="st3" points="4,1 16,1 16,19 4,19 					"/>
				</g>
			</mask>
			<path id="Fill-1" class="st4" d="M12.5,9.2c0,0.1,0,0.2-0.1,0.2l-2.3,1.4c-0.1,0-0.2,0-0.2,0L7.6,9.4c-0.1,0-0.1-0.1-0.1-0.2V6.5
				c0-0.1,0-0.2,0.1-0.2l2.3-1.4c0.1,0,0.2,0,0.2,0l2.3,1.4c0.1,0,0.1,0.1,0.1,0.2V9.2z M15.9,4.5L10.1,1C10,1,10,1,9.9,1L4.1,4.5
				C4,4.5,4,4.6,4,4.7v5.6c0,0.1,0,0.2,0.1,0.2L9.9,19c0.1,0,0.2,0,0.2,0l5.8-8.5c0.1,0,0.1-0.1,0.1-0.2V4.7C16,4.6,16,4.5,15.9,4.5
				z"/>
		</g>
	</g>
</g>
<g id="Layer_2">
	<g id="Page-1_1_">
		<g id="Group-11">
			<g id="Group-3_1_" transform="translate(0.000000, 8.000000)">
				<g id="Clip-2_1_">
				</g>
				<defs>
					<filter id="Adobe_OpacityMaskFilter_1_" filterUnits="userSpaceOnUse" x="3" y="4.1" width="13.9" height="6.9">
						<feColorMatrix  type="matrix" values="1 0 0 0 0  0 1 0 0 0  0 0 1 0 0  0 0 0 1 0"/>
					</filter>
				</defs>
				<mask maskUnits="userSpaceOnUse" x="3" y="4.1" width="13.9" height="6.9" id="mask-2_2_">
					<g class="st5">
						<polygon id="path-1_2_" class="st3" points="3,4.1 16.9,4.1 16.9,11 3,11 						"/>
					</g>
				</mask>
				<path id="Fill-1_1_" class="st6" d="M16.9,6.8L12,4.1c-0.1,0-0.1,0-0.2,0L10.1,5c0,0-0.1,0-0.2,0L8.1,4.1c-0.1,0-0.1,0-0.2,0
					L3.1,6.8C3.1,6.9,3,6.9,3,7v0.3c0,0.1,0,0.1,0.1,0.1L9.9,11c0,0,0.1,0,0.2,0l6.8-3.6c0,0,0.1-0.1,0.1-0.1V7
					C16.9,6.9,16.9,6.9,16.9,6.8"/>
			</g>
			<g id="Group-6">
				<g id="Clip-5">
				</g>
				<defs>
					<filter id="Adobe_OpacityMaskFilter_2_" filterUnits="userSpaceOnUse" x="3" y="1" width="13.9" height="9.7">
						<feColorMatrix  type="matrix" values="1 0 0 0 0  0 1 0 0 0  0 0 1 0 0  0 0 0 1 0"/>
					</filter>
				</defs>
				<mask maskUnits="userSpaceOnUse" x="3" y="1" width="13.9" height="9.7" id="mask-4_1_">
					<g class="st7">
						<polygon id="path-3_1_" class="st3" points="3,1 16.9,1 16.9,10.7 3,10.7 						"/>
					</g>
				</mask>
				<path id="Fill-4" class="st8" d="M16.9,5l-6.8-4c0,0-0.1,0-0.2,0L3.1,5c0,0-0.1,0.1-0.1,0.1v1.3c0,0.1,0,0.1,0.1,0.1l4.3,2.6
					l2.5,1.5c0,0,0.1,0,0.2,0l2.5-1.5l4.3-2.6c0,0,0.1-0.1,0.1-0.1V5.2C16.9,5.1,16.9,5.1,16.9,5"/>
			</g>
			<path id="Fill-7" class="st9" d="M3,8.1v5.2c0,0.1,0.1,0.2,0.2,0.1l3.9-2.6c0.1-0.1,0.1-0.2,0-0.3L3.3,7.9C3.2,7.9,3,8,3,8.1"/>
			<path id="Fill-9" class="st9" d="M17,8.1v5.2c0,0.1-0.1,0.2-0.2,0.1l-3.9-2.6c-0.1-0.1-0.1-0.2,0-0.3l3.9-2.6
				C16.8,7.9,17,8,17,8.1"/>
		</g>
	</g>
</g>
</svg>
