<?xml version="1.0" encoding="utf-8"?>
<!-- Generator: Adobe Illustrator 21.0.0, SVG Export Plug-In . SVG Version: 6.00 Build 0)  -->
<svg version="1.1" xmlns="http://www.w3.org/2000/svg" xmlns:xlink="http://www.w3.org/1999/xlink" x="0px" y="0px"
	 viewBox="0 0 50 50" style="enable-background:new 0 0 50 50;" xml:space="preserve">
<style type="text/css">
	.st0{display:none;}
	.st1{display:inline;}
	.st2{fill:#273BE2;}
	.st3{fill:none;stroke:#273BE2;stroke-miterlimit:10;}
	.st4{display:inline;fill:none;stroke:#273BE2;}
	.st5{display:inline;fill:none;stroke:#273BE2;stroke-width:2;}
	.st6{display:inline;fill:#273BE2;}
</style>
<g id="Layer_1" class="st0">
	<g id="Page-1" class="st1">
		<g id="Group-19">
			<g id="Group-15">
				<path id="Stroke-3" class="st2" d="M28.4,44.8l-12.6-7.3c-0.2-0.1-0.4,0-0.5,0.1c0,0.1,0,0.1,0,0.2v6.9c0,0.3,0.2,0.6,0.4,0.7
					l5.3,3c0.6,0.4,1.4,0.4,2,0l5.4-3.1c0.2-0.1,0.2-0.3,0.1-0.5C28.5,44.9,28.4,44.9,28.4,44.8z"/>
				<path id="Stroke-5" class="st2" d="M42.8,29.4l-12.6,7.5c-0.2,0.1-0.2,0.3-0.1,0.5c0,0.1,0.1,0.1,0.1,0.1l6,3.6
					c0.3,0.2,0.6,0.2,0.8,0l5.3-3.1c0.6-0.4,1-1.1,1-1.8l0-6.4c0-0.2-0.2-0.4-0.4-0.4C43,29.3,42.9,29.3,42.8,29.4z"/>
				<path id="Stroke-7" class="st2" d="M36.2,8.6l0,14.7c0,0.2,0.2,0.4,0.4,0.4c0.1,0,0.1,0,0.2,0l6.2-3.5c0.3-0.2,0.4-0.4,0.4-0.7
					l0-6.2c0-0.7-0.4-1.4-1-1.8l-5.5-3.1c-0.2-0.1-0.4,0-0.5,0.1C36.3,8.5,36.2,8.5,36.2,8.6z"/>
				<path id="Stroke-9" class="st2" d="M15.5,4L28,11.3c0.2,0.1,0.4,0,0.5-0.1c0-0.1,0-0.1,0-0.2V4c0-0.3-0.2-0.6-0.4-0.7l-5.3-3
					c-0.6-0.4-1.4-0.4-2,0l-5.4,3.1c-0.2,0.1-0.2,0.3-0.1,0.5C15.4,3.9,15.4,4,15.5,4z"/>
				<path id="Stroke-11" class="st2" d="M1,20l12.6-7.5c0.2-0.1,0.2-0.3,0.1-0.5c0-0.1-0.1-0.1-0.1-0.1l-6-3.6
					C7.3,8.2,7,8.2,6.7,8.3l-5.3,3.1c-0.6,0.4-1,1.1-1,1.8l0,6.4c0,0.2,0.2,0.4,0.4,0.4C0.9,20.1,1,20,1,20z"/>
				<path id="Stroke-13" class="st2" d="M7.6,40.3l0-14.7c0-0.2-0.2-0.4-0.4-0.4c-0.1,0-0.1,0-0.2,0l-6.2,3.5
					c-0.3,0.2-0.4,0.4-0.4,0.7l0,6.2c0,0.7,0.4,1.4,1,1.8l5.5,3.1c0.2,0.1,0.4,0,0.5-0.1C7.6,40.4,7.6,40.3,7.6,40.3z"/>
			</g>
			<g id="Group-30" transform="translate(22.317949, 25.104072)">
				<path id="Stroke-1-Copy-16" class="st2" d="M6.1,3.8L0.7,6.9c-0.4,0.2-0.9,0.2-1.3,0l-5.4-3.1c-0.4-0.2-0.7-0.7-0.7-1.2v-6.3
					c0-0.5,0.3-0.9,0.7-1.2l5.4-3.1c0.4-0.2,0.9-0.2,1.3,0l5.4,3.1c0.4,0.2,0.7,0.7,0.7,1.2v6.3C6.8,3.1,6.5,3.5,6.1,3.8z"/>
			</g>
		</g>
	</g>
</g>
<g id="Layer_3">
	<g id="Layer_2_1_">
		<g id="Layer_1-2">
			<path class="st3" d="M34.4,25.5v3.7c0,0.3,0.2,0.7,0.5,0.8l3.2,1.9c0.3,0.2,0.7,0.2,1,0l3.2-1.9c0.3-0.2,0.5-0.5,0.5-0.8v-3.7
				c0-0.3-0.2-0.7-0.5-0.8l-3.2-1.9c-0.3-0.2-0.7-0.2-1,0l-3.2,1.9C34.6,24.8,34.4,25.1,34.4,25.5z"/>
			<path class="st3" d="M17.7,25.5v3.7c0,0.3,0.2,0.7,0.5,0.8l3.2,1.9c0.3,0.2,0.7,0.2,1,0l3.2-1.9c0.3-0.2,0.5-0.5,0.5-0.8v-3.7
				c0-0.3-0.2-0.7-0.5-0.8l-3.2-1.9c-0.3-0.2-0.7-0.2-1,0l-3.2,1.9C17.9,24.8,17.7,25.1,17.7,25.5z"/>
			<path class="st3" d="M34.4,10v3.7c0,0.3,0.2,0.7,0.5,0.8l3.2,1.9c0.3,0.2,0.7,0.2,1,0l3.2-1.9c0.3-0.2,0.5-0.5,0.5-0.8V10
				c0-0.3-0.2-0.7-0.5-0.8l-3.2-1.9c-0.3-0.2-0.7-0.2-1,0l-3.2,1.9C34.6,9.3,34.4,9.7,34.4,10z"/>
			<path class="st3" d="M17.7,10v3.7c0,0.3,0.2,0.7,0.5,0.8l3.2,1.9c0.3,0.2,0.7,0.2,1,0l3.2-1.9c0.3-0.2,0.5-0.5,0.5-0.8V10
				c0-0.3-0.2-0.7-0.5-0.8l-3.2-1.9c-0.3-0.2-0.7-0.2-1,0l-3.2,1.9C17.9,9.3,17.7,9.7,17.7,10z"/>
			<path class="st3" d="M1,10v3.7c0,0.3,0.2,0.7,0.5,0.8l3.2,1.9c0.3,0.2,0.7,0.2,1,0l3.2-1.9c0.3-0.2,0.5-0.5,0.5-0.8V10
				c0-0.3-0.2-0.7-0.5-0.8L5.7,7.3c-0.3-0.2-0.7-0.2-1,0L1.5,9.2C1.2,9.3,1,9.7,1,10z"/>
			<path class="st3" d="M1,25.5v3.7c0,0.3,0.2,0.7,0.5,0.8l3.2,1.9c0.3,0.2,0.7,0.2,1,0L8.9,30c0.3-0.2,0.5-0.5,0.5-0.8v-3.7
				c0-0.3-0.2-0.7-0.5-0.8l-3.2-1.9c-0.3-0.2-0.7-0.2-1,0l-3.2,1.9C1.2,24.8,1,25.1,1,25.5z"/>
			<path class="st3" d="M34.4,41v3.7c0,0.3,0.2,0.7,0.5,0.8l3.2,1.9c0.3,0.2,0.7,0.2,1,0l3.2-1.9c0.3-0.2,0.5-0.5,0.5-0.8V41
				c0-0.3-0.2-0.7-0.5-0.8l-3.2-1.9c-0.3-0.2-0.7-0.2-1,0l-3.2,1.9C34.6,40.3,34.4,40.6,34.4,41z"/>
			<path class="st3" d="M17.7,41v3.7c0,0.3,0.2,0.7,0.5,0.8l3.2,1.9c0.3,0.2,0.7,0.2,1,0l3.2-1.9c0.3-0.2,0.5-0.5,0.5-0.8V41
				c0-0.3-0.2-0.7-0.5-0.8l-3.2-1.9c-0.3-0.2-0.7-0.2-1,0l-3.2,1.9C17.9,40.3,17.7,40.6,17.7,41z"/>
			<path class="st3" d="M1,41v3.7c0,0.3,0.2,0.7,0.5,0.8l3.2,1.9c0.3,0.2,0.7,0.2,1,0l3.2-1.9c0.3-0.2,0.5-0.5,0.5-0.8V41
				c0-0.3-0.2-0.7-0.5-0.8l-3.2-1.9c-0.3-0.2-0.7-0.2-1,0l-3.2,1.9C1.2,40.3,1,40.6,1,41z"/>
			<path class="st2" d="M37.1,22.5v5.2c0,0.4,0.2,0.7,0.5,0.9l4.5,2.6c0.3,0.2,0.7,0.2,1.1,0l4.5-2.6c0.3-0.2,0.5-0.5,0.5-0.9v-5.2
				c0-0.4-0.2-0.7-0.5-0.9L43.2,19c-0.3-0.2-0.7-0.2-1.1,0l-4.5,2.6C37.3,21.8,37.1,22.1,37.1,22.5z"/>
			<path class="st2" d="M20.5,22.5v5.2c0,0.4,0.2,0.7,0.5,0.9l4.5,2.6c0.3,0.2,0.7,0.2,1.1,0l4.5-2.6c0.3-0.2,0.5-0.5,0.5-0.9v-5.2
				c0-0.4-0.2-0.7-0.5-0.9L26.5,19c-0.3-0.2-0.7-0.2-1.1,0L21,21.6C20.7,21.7,20.5,22.1,20.5,22.5z"/>
			<path class="st2" d="M37.1,7v5.2c0,0.4,0.2,0.7,0.5,0.9l4.5,2.6c0.3,0.2,0.7,0.2,1.1,0l4.5-2.6c0.3-0.2,0.5-0.5,0.5-0.9V7
				c0-0.4-0.2-0.7-0.5-0.9l-4.5-2.6c-0.3-0.2-0.7-0.2-1.1,0l-4.5,2.6C37.3,6.3,37.1,6.6,37.1,7z"/>
			<path class="st2" d="M20.5,7v5.2c0,0.4,0.2,0.7,0.5,0.9l4.5,2.6c0.3,0.2,0.7,0.2,1.1,0l4.5-2.6c0.3-0.2,0.5-0.5,0.5-0.9V7
				c0-0.4-0.2-0.7-0.5-0.9l-4.5-2.6c-0.3-0.2-0.7-0.2-1.1,0L21,6.1C20.7,6.3,20.5,6.6,20.5,7z"/>
			<path class="st2" d="M3.8,7v5.2c0,0.4,0.2,0.7,0.5,0.9l4.5,2.6c0.3,0.2,0.7,0.2,1.1,0l4.5-2.6c0.3-0.2,0.5-0.5,0.5-0.9V7
				c0-0.4-0.2-0.7-0.5-0.9L9.9,3.5c-0.3-0.2-0.7-0.2-1.1,0L4.3,6.1C4,6.3,3.8,6.6,3.8,7z"/>
			<path class="st2" d="M3.8,22.5v5.2c0,0.4,0.2,0.7,0.5,0.9l4.5,2.6c0.3,0.2,0.7,0.2,1.1,0l4.5-2.6c0.3-0.2,0.5-0.5,0.5-0.9v-5.2
				c0-0.4-0.2-0.7-0.5-0.9L9.9,19c-0.3-0.2-0.7-0.2-1.1,0l-4.5,2.6C4,21.7,3.8,22.1,3.8,22.5z"/>
			<path class="st2" d="M37.1,38v5.2c0,0.4,0.2,0.7,0.5,0.9l4.5,2.6c0.3,0.2,0.7,0.2,1.1,0l4.5-2.6c0.3-0.2,0.5-0.5,0.5-0.9V38
				c0-0.4-0.2-0.7-0.5-0.9l-4.5-2.6c-0.3-0.2-0.7-0.2-1.1,0L37.7,37C37.3,37.2,37.1,37.6,37.1,38z"/>
			<path class="st2" d="M20.5,38v5.2c0,0.4,0.2,0.7,0.5,0.9l4.5,2.6c0.3,0.2,0.7,0.2,1.1,0l4.5-2.6c0.3-0.2,0.5-0.5,0.5-0.9V38
				c0-0.4-0.2-0.7-0.5-0.9l-4.5-2.6c-0.3-0.2-0.7-0.2-1.1,0L21,37C20.7,37.2,20.5,37.6,20.5,38z"/>
			<path class="st2" d="M3.8,38v5.2c0,0.4,0.2,0.7,0.5,0.9l4.5,2.6c0.3,0.2,0.7,0.2,1.1,0l4.5-2.6c0.3-0.2,0.5-0.5,0.5-0.9V38
				c0-0.4-0.2-0.7-0.5-0.9l-4.5-2.6c-0.3-0.2-0.7-0.2-1.1,0L4.3,37C4,37.2,3.8,37.6,3.8,38z"/>
		</g>
	</g>
</g>
<g id="Layer_2" class="st0">
	<path id="Stroke-1" class="st4" d="M17,32.4l4-6.9c0.2-0.3,0.2-0.6,0-0.9l-4-6.9"/>
	<path id="Stroke-3_1_" class="st4" d="M21.1,32.4l4-6.9c0.2-0.3,0.2-0.6,0-0.9l-4-6.9"/>
	<path id="Stroke-5_1_" class="st4" d="M25.1,32.4l4-6.9c0.2-0.3,0.2-0.6,0-0.9l-4-6.9"/>
	<path id="Stroke-7_1_" class="st4" d="M28.8,15.3l4-6.9c0.2-0.3,0.2-0.6,0-0.9l-4-6.9"/>
	<path id="Stroke-9_1_" class="st4" d="M32.8,15.3l4-6.9c0.2-0.3,0.2-0.6,0-0.9l-4-6.9"/>
	<path id="Stroke-11_1_" class="st4" d="M36.8,15.3l4-6.9c0.2-0.3,0.2-0.6,0-0.9l-4-6.9"/>
	<path id="Stroke-13_1_" class="st5" d="M24,1.1h-7.6c0,0-0.1,0-0.1,0.1l-3.8,6.6c0,0,0,0.1,0,0.1l3.8,6.6c0,0,0.1,0.1,0.1,0.1H24
		c0,0,0.1,0,0.1-0.1L28,7.9c0,0,0-0.1,0-0.1l-3.8-6.6C24.1,1.2,24.1,1.1,24,1.1z"/>
	<path id="Stroke-15" class="st5" d="M12.6,18.2H5c0,0-0.1,0-0.1,0.1l-3.8,6.6c0,0,0,0.1,0,0.1l3.8,6.6c0,0,0.1,0.1,0.1,0.1h7.6
		c0,0,0.1,0,0.1-0.1l3.8-6.6c0,0,0-0.1,0-0.1l-3.8-6.6C12.7,18.2,12.7,18.2,12.6,18.2z"/>
	<path id="Fill-17" class="st6" d="M21.9,4.2h-3.4c-0.3,0-0.6,0.2-0.7,0.4l-1.7,2.9C16,7.7,16,8,16.2,8.3l1.7,2.9
		c0.1,0.2,0.4,0.4,0.7,0.4h3.4c0.3,0,0.5-0.2,0.7-0.4l1.7-2.9c0.1-0.2,0.1-0.6,0-0.8l-1.7-2.9C22.5,4.3,22.2,4.2,21.9,4.2"/>
	<path id="Stroke-19" class="st4" d="M28.8,49.5l4-6.9c0.2-0.3,0.2-0.6,0-0.9l-4-6.9"/>
	<path id="Stroke-21" class="st4" d="M32.8,49.5l4-6.9c0.2-0.3,0.2-0.6,0-0.9l-4-6.9"/>
	<path id="Stroke-23" class="st4" d="M36.8,49.5l4-6.9c0.2-0.3,0.2-0.6,0-0.9l-4-6.9"/>
	<path id="Stroke-25" class="st5" d="M24,35.4h-7.6c0,0-0.1,0-0.1,0.1l-3.8,6.6c0,0,0,0.1,0,0.1l3.8,6.6c0,0,0.1,0.1,0.1,0.1H24
		c0,0,0.1,0,0.1-0.1l3.8-6.6c0,0,0-0.1,0-0.1l-3.8-6.6C24.1,35.4,24.1,35.4,24,35.4z"/>
	<path id="Fill-27" class="st6" d="M21.9,38.4h-3.4c-0.3,0-0.6,0.2-0.7,0.4l-1.7,2.9c-0.1,0.2-0.1,0.6,0,0.8l1.7,2.9
		c0.1,0.2,0.4,0.4,0.7,0.4h3.4c0.3,0,0.5-0.2,0.7-0.4l1.7-2.9c0.1-0.2,0.1-0.6,0-0.8l-1.7-2.9C22.5,38.6,22.2,38.4,21.9,38.4"/>
	<path id="Fill-29" class="st6" d="M7.2,21.2c-0.3,0-0.5,0.2-0.7,0.4l-1.7,2.9c-0.1,0.2-0.1,0.6,0,0.8l1.7,2.9
		c0.1,0.2,0.4,0.4,0.7,0.4h3.4c0.3,0,0.5-0.2,0.7-0.4l1.7-2.9c0.1-0.2,0.1-0.6,0-0.8l-1.7-2.9c-0.1-0.2-0.4-0.4-0.7-0.4H7.2z"/>
</g>
</svg>
