<?xml version="1.0" encoding="utf-8"?>
<!-- Generator: Adobe Illustrator 21.0.0, SVG Export Plug-In . SVG Version: 6.00 Build 0)  -->
<svg version="1.1" id="Layer_1" xmlns="http://www.w3.org/2000/svg" xmlns:xlink="http://www.w3.org/1999/xlink" x="0px" y="0px"
	 viewBox="0 0 50 50" style="enable-background:new 0 0 50 50;" xml:space="preserve">
<style type="text/css">
	.st0{fill:none;stroke:#273BE2;}
	.st1{fill:#495CFF;}
	.st2{fill:#B7BFFF;}
	.st3{filter:url(#Adobe_OpacityMaskFilter);}
	.st4{fill:#FFFFFF;}
	.st5{mask:url(#mask-2_1_);fill:#273BE2;}
	.st6{fill:#273BE2;}
</style>
<path id="Fill-8-Copy-23" class="st0" d="M43.1,36.6l-15.6,8.9c-1.2,0.7-2.7,0.7-3.9,0L7.9,36.6C6.7,36,6,34.7,6,33.4V15.6
	c0-1.4,0.7-2.6,1.9-3.3l15.6-8.9c1.2-0.7,2.7-0.7,3.9,0l15.6,8.9c1.2,0.7,1.9,1.9,1.9,3.3v17.7C45,34.7,44.3,36,43.1,36.6"/>
<path id="Rectangle-11" class="st1" d="M13.8,19.8h14.2c0.7,0,1.3,0.6,1.3,1.3l0,0c0,0.7-0.6,1.3-1.3,1.3H13.8
	c-0.7,0-1.3-0.6-1.3-1.3l0,0C12.5,20.4,13.1,19.8,13.8,19.8z"/>
<path id="Rectangle-11-Copy-3" class="st2" d="M13.1,25.8h8.3c0.3,0,0.6,0.3,0.6,0.6l0,0c0,0.3-0.3,0.6-0.6,0.6h-8.3
	c-0.3,0-0.6-0.3-0.6-0.6l0,0C12.5,26,12.8,25.8,13.1,25.8z"/>
<path id="Rectangle-11-Copy-6" class="st2" d="M13.1,32.3h14.1c0.3,0,0.6,0.3,0.6,0.6v0c0,0.3-0.3,0.6-0.6,0.6H13.1
	c-0.3,0-0.6-0.3-0.6-0.6v0C12.5,32.6,12.8,32.3,13.1,32.3z"/>
<path id="Rectangle-11-Copy-5" class="st2" d="M29.3,25.8h6.5c0.3,0,0.6,0.3,0.6,0.6l0,0c0,0.3-0.3,0.6-0.6,0.6h-6.5
	c-0.3,0-0.6-0.3-0.6-0.6l0,0C28.8,26,29,25.8,29.3,25.8z"/>
<path id="Rectangle-11-Copy-7" class="st2" d="M20.2,28.9h14.5c0.3,0,0.6,0.3,0.6,0.6v0c0,0.3-0.3,0.6-0.6,0.6H20.2
	c-0.3,0-0.6-0.3-0.6-0.6v0C19.7,29.2,19.9,28.9,20.2,28.9z"/>
<path id="Rectangle-11-Copy-2" class="st1" d="M32.6,19.8h4.6c0.7,0,1.3,0.6,1.3,1.3l0,0c0,0.7-0.6,1.3-1.3,1.3h-4.6
	c-0.7,0-1.3-0.6-1.3-1.3l0,0C31.3,20.4,31.9,19.8,32.6,19.8z"/>
<path id="Rectangle-11-Copy-4" class="st2" d="M23.6,25.8h2.8c0.3,0,0.6,0.3,0.6,0.6l0,0c0,0.3-0.3,0.6-0.6,0.6h-2.8
	c-0.3,0-0.6-0.3-0.6-0.6l0,0C23.1,26,23.3,25.8,23.6,25.8z"/>
<path id="Rectangle-11-Copy-8" class="st2" d="M13.1,28.9h3.7c0.3,0,0.6,0.3,0.6,0.6v0c0,0.3-0.3,0.6-0.6,0.6h-3.7
	c-0.3,0-0.6-0.3-0.6-0.6v0C12.5,29.2,12.8,28.9,13.1,28.9z"/>
<defs>
	<filter id="Adobe_OpacityMaskFilter" filterUnits="userSpaceOnUse" x="22.2" y="8.4" width="6.5" height="5.9">
		<feColorMatrix  type="matrix" values="1 0 0 0 0  0 1 0 0 0  0 0 1 0 0  0 0 0 1 0"/>
	</filter>
</defs>
<mask maskUnits="userSpaceOnUse" x="22.2" y="8.4" width="6.5" height="5.9" id="mask-2_1_">
	<g class="st3">
		<polygon id="path-1_1_" class="st4" points="22.2,8.4 28.8,8.4 28.8,14.4 22.2,14.4 		"/>
	</g>
</mask>
<path id="Fill-1" class="st5" d="M23.3,14.3v-3.4c0,0,0-0.1,0.1-0.1l2.1-1.1c0,0,0.1,0,0.1,0l2.1,1.1c0,0,0.1,0.1,0.1,0.1v2.3
	c0,0,0,0.1-0.1,0.1l-0.9,0.5c0,0,0,0,0,0.1c0,0,0,0.1,0,0.1l0.9,0.5c0,0,0.1,0,0.1,0l0.9-0.5c0.1-0.1,0.2-0.2,0.2-0.3v-3.3
	c0-0.1-0.1-0.2-0.2-0.3l-2.9-1.6c-0.1-0.1-0.2-0.1-0.3,0l-2.9,1.6c-0.1,0.1-0.2,0.2-0.2,0.3v3.2c0,0.1,0.1,0.2,0.2,0.3l0.8,0.4
	C23.2,14.4,23.3,14.3,23.3,14.3C23.3,14.3,23.3,14.3,23.3,14.3"/>
<path id="Fill-4" class="st6" d="M26.5,15.2l-1.9-1.1c0,0-0.1,0-0.1,0c0,0,0,0,0,0v1c0,0,0,0.1,0.1,0.1l0.8,0.5
	c0.1,0.1,0.2,0.1,0.3,0L26.5,15.2C26.5,15.3,26.5,15.3,26.5,15.2C26.5,15.2,26.5,15.2,26.5,15.2"/>
<path id="Fill-6" class="st6" d="M26.4,12.8l-0.8,0.5c-0.1,0-0.1,0-0.2,0l-0.8-0.5c-0.1,0-0.1-0.1-0.1-0.2v-0.9c0-0.1,0-0.1,0.1-0.2
	l0.8-0.5c0.1,0,0.1,0,0.2,0l0.8,0.5c0.1,0,0.1,0.1,0.1,0.2v0.9C26.5,12.7,26.5,12.7,26.4,12.8"/>
</svg>
