<svg id="Layer_1" data-name="Layer 1" xmlns="http://www.w3.org/2000/svg" viewBox="0 0 126.42 144.5"><defs><style>.cls-1{fill:#b9c0ff;}.cls-2{fill:#fff;stroke:#273be2;stroke-width:3px;}</style></defs><title>doc_shadow</title><g id="Page-1"><g id="_1440" data-name="1440"><g id="Group-16"><path id="Fill-8-Copy-27" class="cls-1" d="M124.24,119.23,77.13,146a11.82,11.82,0,0,1-11.64,0L18.36,119.23a11.42,11.42,0,0,1-5.82-9.91V55.84a11.43,11.43,0,0,1,5.82-9.91L65.48,19.18a11.82,11.82,0,0,1,11.64,0l47.12,26.74a11.42,11.42,0,0,1,5.82,9.91v53.48a11.41,11.41,0,0,1-5.82,9.91" transform="translate(-12.54 -3)"/><g id="Group-43-Copy-6"><g id="Group-11"><path id="Fill-8-Copy-23" class="cls-2" d="M131.88,101.58,86.74,127.13a11.35,11.35,0,0,1-11.16,0L30.44,101.58a10.91,10.91,0,0,1-5.58-9.48V41a10.91,10.91,0,0,1,5.58-9.48L75.59,6A11.35,11.35,0,0,1,86.74,6l45.14,25.55A10.91,10.91,0,0,1,137.46,41V92.1a10.9,10.9,0,0,1-5.58,9.48" transform="translate(-12.54 -3)"/></g></g></g></g></g></svg>