<?xml version="1.0" encoding="utf-8"?>
<!-- Generator: Adobe Illustrator 21.0.0, SVG Export Plug-In . SVG Version: 6.00 Build 0)  -->
<svg version="1.1" id="Layer_1" xmlns="http://www.w3.org/2000/svg" xmlns:xlink="http://www.w3.org/1999/xlink" x="0px" y="0px"
	 viewBox="0 0 1000 350" style="enable-background:new 0 0 1000 350;" xml:space="preserve">
<style type="text/css">
	.st0{fill:#2A2A2A;}
</style>
<g id="Layer_2_10_">
	<g id="Layer_1-2_9_">
		<path class="st0" d="M40.9,262.6V130c0-1.6,0.8-3.2,2.3-4l77-44.4c1.4-0.8,3.1-0.8,4.5,0l76.9,44.4c1.4,0.8,2.3,2.3,2.2,3.9v89.6
			c0,1.6-0.9,3.1-2.3,3.9l-33.9,19.4c-1.5,0.8-2,2.7-1.2,4.2c0.3,0.5,0.7,0.9,1.2,1.2l34,19.4c1.4,0.8,3.1,0.8,4.5,0l32.3-18.6
			c3.8-2.2,6.1-6.2,6.1-10.6V111.1c0-4.3-2.3-8.3-6.1-10.5l-110-63.5c-3.8-2.2-8.4-2.2-12.1,0l-110,63.5c-3.7,2.2-6,6.2-6,10.5
			v127.1c0,4.4,2.3,8.4,6.1,10.6l29.3,16.8c1.7,1,3.9,0.4,4.9-1.3C40.7,263.8,40.9,263.2,40.9,262.6z"/>
		<path class="st0" d="M159,291l-72.4-41.8c-1-0.6-2.3-0.2-2.9,0.8c-0.2,0.3-0.3,0.7-0.3,1.1V291c0,1.7,0.9,3.3,2.4,4.2l30.4,17.4
			c3.6,2.1,8.1,2.1,11.7,0l31.1-18c1-0.6,1.3-1.9,0.7-2.9C159.5,291.4,159.3,291.1,159,291z"/>
		<path class="st0" d="M157.3,199.3l-31.1,18c-2.4,1.4-5.3,1.4-7.7,0l-31.1-18c-2.4-1.4-3.8-3.9-3.8-6.7v-35.9
			c0-2.8,1.5-5.3,3.8-6.7l31.1-18c2.4-1.4,5.3-1.4,7.7,0l31.1,18c2.4,1.4,3.9,3.9,3.9,6.7v35.9C161.2,195.5,159.7,198,157.3,199.3z"
			/>
		<path class="st0" d="M340.7,185.1v31.5h-20.4v-85.1h28.5c5.5-0.1,10.9,0.5,16.2,1.8c4,1,7.7,2.8,11,5.3c2.8,2.1,4.9,4.9,6.3,8
			c1.3,3.2,1.9,6.6,1.9,10c0,2.7-0.4,5.3-1.1,7.8c-0.7,2.4-1.9,4.7-3.4,6.8c-1.6,2.1-3.4,4-5.5,5.5c-2.3,1.7-4.9,3.1-7.6,4
			c1.4,0.7,2.6,1.5,3.8,2.5c1.2,1,2.3,2.2,3.1,3.6l18.7,29.8h-19.4c-2.9,0.2-5.7-1.2-7.1-3.7l-14.1-24.7c-0.5-1-1.3-1.8-2.2-2.3
			c-1.1-0.5-2.3-0.8-3.5-0.7L340.7,185.1z M340.8,172.2h8.2c2.4,0.1,4.8-0.3,7-1.1c2.1-0.7,4-1.9,5.4-3.6c1-1.1,1.7-2.5,2.1-4
			c0.5-1.6,0.8-3.3,0.7-5c0.2-3.4-1.2-6.7-3.8-9c-2.5-2.2-6.4-3.2-11.6-3.2h-8.2L340.8,172.2z"/>
		<path class="st0" d="M470.3,131.5v14.8h-35.2v20.4H461v14.8h-25.9v20.4h35.2v14.8h-55.5v-85.1H470.3z"/>
		<path class="st0" d="M520.3,188.2v28.4h-20.4v-85.1h31c5.4-0.1,10.7,0.7,15.9,2.2c4,1.2,7.8,3.2,11,5.9c2.8,2.4,5,5.4,6.4,8.8
			c1.4,3.5,2.1,7.3,2.1,11.1c0,4-0.7,7.9-2.1,11.7c-1.3,3.5-3.6,6.7-6.4,9.2c-3.2,2.7-6.9,4.7-11,5.9c-5.1,1.5-10.4,2.2-15.7,2.1
			L520.3,188.2z M520.3,174.1h10.6c5.3,0,9.1-1.3,11.4-3.8c2.5-3,3.7-6.7,3.5-10.6c0-1.9-0.3-3.7-0.9-5.5c-0.6-1.6-1.5-3-2.7-4.2
			c-1.3-1.2-2.9-2.2-4.6-2.7c-2.1-0.7-4.4-1-6.6-0.9h-10.6L520.3,174.1z"/>
		<path class="st0" d="M625.8,201.4c2.4,0,4.8-0.4,7-1.3c2-0.8,3.8-2.1,5.2-3.7c1.5-1.8,2.6-3.8,3.3-6c0.8-2.6,1.2-5.3,1.1-8.1
			v-50.7h20.4v50.7c0.1,5-0.8,9.9-2.6,14.5c-3.3,8.7-10.2,15.5-19,18.7c-10,3.5-20.9,3.5-30.9,0c-4.4-1.6-8.3-4.2-11.6-7.4
			c-3.2-3.2-5.8-7-7.4-11.3c-1.7-4.6-2.6-9.5-2.5-14.5v-50.7h20.4v50.6c0,2.7,0.3,5.5,1.1,8.1c0.7,2.2,1.8,4.3,3.3,6.1
			c1.4,1.7,3.2,3,5.2,3.8C621,201,623.4,201.4,625.8,201.4z"/>
		<path class="st0" d="M696.1,216.7v-85.1h31.3c5.1-0.1,10.1,0.5,15,1.6c3.6,0.9,7.1,2.4,10.1,4.6c2.5,1.9,4.5,4.4,5.7,7.2
			c1.2,3,1.9,6.3,1.8,9.5c0,1.9-0.3,3.7-0.8,5.5c-0.6,1.8-1.5,3.5-2.6,5c-1.3,1.6-2.8,3.1-4.5,4.2c-2.1,1.4-4.3,2.5-6.6,3.3
			c4.7,0.9,9.1,3.2,12.5,6.6c2.8,3.3,4.2,7.5,4,11.8c0,3.5-0.7,6.9-2.1,10.1c-1.4,3.1-3.5,5.9-6.2,8.2c-2.9,2.5-6.4,4.4-10,5.5
			c-4.4,1.3-9,2-13.6,1.8H696.1z M714.6,166.7h10c1.9,0,3.8-0.1,5.7-0.4c1.5-0.2,3-0.8,4.3-1.6c1.2-0.7,2.1-1.8,2.7-3.1
			c0.7-1.6,1-3.3,0.9-5c0-1.7-0.2-3.3-0.7-4.9c-0.4-1.2-1.2-2.3-2.2-3.1c-1.2-0.8-2.5-1.4-3.9-1.7c-1.8-0.4-3.7-0.5-5.6-0.5h-11.2
			L714.6,166.7z M714.6,179.6v22.2h14.6c2.3,0.1,4.5-0.3,6.7-1c1.5-0.6,2.9-1.5,4.1-2.7c0.9-1.1,1.6-2.3,1.9-3.7
			c0.4-1.4,0.5-2.8,0.5-4.2c0-1.5-0.2-3-0.6-4.4c-0.4-1.3-1.2-2.4-2.2-3.3c-1.2-1-2.6-1.7-4.1-2.1c-2.1-0.5-4.3-0.8-6.4-0.7
			L714.6,179.6z"/>
		<path class="st0" d="M810.9,200h31.5v16.7h-51.8v-85.1h20.4V200z"/>
		<path class="st0" d="M888.6,216.7h-20.4v-85.1h20.4L888.6,216.7z"/>
		<path class="st0" d="M1000,216.7h-16.2c-1.5,0.1-2.9-0.3-4.1-1.2c-1-0.7-1.8-1.8-2.2-3l-4.8-14.4h-31.5l-4.9,14.4
			c-0.5,1.1-1.2,2.1-2.2,2.9c-1.2,0.9-2.6,1.3-4,1.3h-16.3l32.9-85.1h20.3L1000,216.7z M945.3,183.3h23.4l-7.9-23.4l-1.9-5.3
			c-0.7-2-1.4-4.2-2-6.5c-0.6,2.4-1.3,4.6-1.9,6.6c-0.6,2-1.3,3.7-1.9,5.3L945.3,183.3z"/>
	</g>
</g>
</svg>
