<?xml version="1.0" encoding="utf-8"?>
<!-- Generator: Adobe Illustrator 21.0.0, SVG Export Plug-In . SVG Version: 6.00 Build 0)  -->
<svg version="1.1" id="Layer_1" xmlns="http://www.w3.org/2000/svg" xmlns:xlink="http://www.w3.org/1999/xlink" x="0px" y="0px"
	 viewBox="0 0 280 500" style="enable-background:new 0 0 280 500;" xml:space="preserve">
<style type="text/css">
	.st0{opacity:0.5126;fill:url(#Fill-8-Copy-4_4_);enable-background:new    ;}
	.st1{opacity:1.635045e-02;fill:#273BE2;enable-background:new    ;}
	.st2{opacity:2.120500e-02;fill:#273BE2;enable-background:new    ;}
	.st3{opacity:4.120500e-02;fill:#273BE2;enable-background:new    ;}
</style>
<radialGradient id="Fill-8-Copy-4_4_" cx="1996.7457" cy="-152.0278" r="0.3303" gradientTransform="matrix(-211.3211 -484.958 507.9049 -221.3202 499310.5625 934941.4375)" gradientUnits="userSpaceOnUse">
	<stop  offset="0" style="stop-color:#273BE2"/>
	<stop  offset="1" style="stop-color:#FFFFFF;stop-opacity:0.1971"/>
</radialGradient>
<path id="Fill-8-Copy-4" class="st0" d="M155.5,415.9c-9.3,5.4-20.8,5.4-30.1,0L3.5,346c-9.3-5.3-15.1-15.2-15.1-25.8V180.7
	c0-10.7,5.7-20.5,15.1-25.9L125.3,85c9.3-5.4,20.8-5.4,30.1,0l121.9,69.8c9.3,5.4,15.1,15.2,15.1,25.9v139.6
	c0,10.7-5.7,20.6-15.1,25.9L155.5,415.9z"/>
<path id="Fill-8-Copy-4_1_" class="st1" d="M311.5,368.4l-152,86.6c-11.6,6.6-25.9,6.6-37.6,0l-152.1-86.6
	c-11.6-6.6-18.8-18.9-18.8-32.2V162.9c0-13.3,7.2-25.5,18.8-32.2L121.9,44c11.6-6.6,25.9-6.6,37.6,0l152,86.7
	c11.6,6.6,18.8,18.9,18.8,32.2v173.4C330.1,349.5,323.1,361.8,311.5,368.4"/>
<path id="Fill-8-Copy-4_2_" class="st2" d="M246.7,324.4l-95.1,54.4c-7.3,4.2-16.3,4.2-23.5,0L33,324.4
	c-7.2-4.2-11.8-11.8-11.8-20.1V195.5c0-8.3,4.5-16,11.8-20.1l95.1-54.4c7.3-4.2,16.3-4.2,23.5,0l95.1,54.4
	c7.3,4.2,11.8,11.8,11.8,20.1v108.8C258.3,312.6,254,320.3,246.7,324.4"/>
<path id="Fill-8-Copy-4_3_" class="st3" d="M198,290.3L146.2,320c-4,2.3-8.8,2.3-12.8,0l-51.8-29.7c-4-2.3-6.4-6.5-6.4-11v-59.4
	c0-4.5,2.5-8.8,6.4-11l51.8-29.7c4-2.3,8.8-2.3,12.8,0l51.8,29.7c4,2.3,6.4,6.5,6.4,11v59.4C204.4,283.8,201.9,288,198,290.3"/>
</svg>
