<?xml version="1.0" encoding="utf-8"?>
<!-- Generator: Adobe Illustrator 21.0.0, SVG Export Plug-In . SVG Version: 6.00 Build 0)  -->
<svg version="1.1" id="Layer_1" xmlns="http://www.w3.org/2000/svg" xmlns:xlink="http://www.w3.org/1999/xlink" x="0px" y="0px"
	 viewBox="0 0 1280 800" style="enable-background:new 0 0 1280 800;" xml:space="preserve">
<style type="text/css">
	.st0{fill:#FFFFFF;}
	.st1{opacity:0.5126;fill:url(#Fill-8-Copy-4_5_);enable-background:new    ;}
	.st2{opacity:1.635045e-02;fill:#273BE2;enable-background:new    ;}
	.st3{opacity:2.120500e-02;fill:#273BE2;enable-background:new    ;}
	.st4{opacity:4.120500e-02;fill:#273BE2;enable-background:new    ;}
	.st5{fill:#F8F8F8;}
	.st6{fill:#273BE2;}
</style>
<rect x="1" class="st0" width="29.7" height="17.8"/>
<rect x="1247.4" y="768.5" class="st0" width="31.5" height="31.5"/>
<g id="Page-1">
	<g id="Group-45">
		
			<radialGradient id="Fill-8-Copy-4_5_" cx="1233.7072" cy="-2.0704" r="0.4674" gradientTransform="matrix(-211.3211 -484.958 507.9049 -221.3202 262056.3906 598234.125)" gradientUnits="userSpaceOnUse">
			<stop  offset="0" style="stop-color:#273BE2"/>
			<stop  offset="1" style="stop-color:#FFFFFF;stop-opacity:0.1971"/>
		</radialGradient>
		<path id="Fill-8-Copy-4" class="st1" d="M317.8,630.3c-13.2,7.6-29.4,7.6-42.6,0l-172.5-98.8C89.5,524,81.4,510,81.4,495V297.5
			c0-15.1,8.1-29,21.3-36.6l172.4-98.8c13.2-7.6,29.4-7.6,42.6,0l172.5,98.8c13.2,7.6,21.3,21.5,21.3,36.6V495
			c0,15.1-8.1,29.1-21.3,36.6L317.8,630.3z"/>
		<path id="Fill-8-Copy-4_1_" class="st2" d="M538.6,563.2L323.5,685.8c-16.4,9.3-36.7,9.3-53.2,0L55.1,563.2
			c-16.4-9.3-26.6-26.7-26.6-45.5V272.3c0-18.8,10.2-36.1,26.6-45.5l215.2-122.7c16.4-9.3,36.7-9.3,53.2,0l215.1,122.7
			c16.4,9.4,26.6,26.7,26.6,45.5v245.4C565,536.4,555,553.8,538.6,563.2"/>
		<path id="Fill-8-Copy-4_2_" class="st3" d="M446.9,500.9l-134.6,77c-10.3,5.9-23,5.9-33.2,0l-134.6-77
			c-10.2-5.9-16.7-16.7-16.7-28.5v-154c0-11.8,6.3-22.7,16.7-28.5l134.6-77c10.3-5.9,23-5.9,33.2,0l134.6,77
			c10.3,5.9,16.7,16.7,16.7,28.5v154C463.4,484.2,457.2,495.1,446.9,500.9"/>
		<path id="Fill-8-Copy-4_3_" class="st4" d="M378,452.6l-73.3,42c-5.6,3.3-12.5,3.3-18.1,0l-73.3-42c-5.6-3.3-9-9.2-9-15.6v-84
			c0-6.4,3.5-12.4,9-15.6l73.3-42c5.6-3.3,12.5-3.3,18.1,0l73.3,42c5.6,3.3,9,9.2,9,15.6v84C387,443.4,383.6,449.4,378,452.6"/>
		<path id="Fill-8-Copy-4_4_" class="st5" d="M300.3,455.7c-3.4,2-7.6,2-11.1,0l-44.6-25.3c-3.4-2-5.5-5.5-5.5-9.3v-50.6
			c0-3.9,2.1-7.4,5.5-9.3l44.6-25.3c3.4-2,7.6-2,11.1,0l44.6,25.3c3.4,2,5.5,5.5,5.5,9.3v50.6c0,3.9-2.1,7.5-5.5,9.3L300.3,455.7z"
			/>
		<g id="Group-7" transform="translate(284.000000, 318.000000)">
			<path id="Fill-1" class="st6" d="M-12.7,102.8v-38c0-0.5,0.2-0.9,0.7-1.1l22.6-12.8c0.4-0.2,0.9-0.2,1.3,0l22.6,12.8
				c0.4,0.2,0.7,0.7,0.7,1.1v25.7c0,0.5-0.2,0.9-0.7,1.1l-9.9,5.5c-0.6,0.3-0.6,1.2,0,1.5l9.9,5.5c0.4,0.2,0.9,0.2,1.3,0l9.4-5.4
				c1.1-0.7,1.8-1.8,1.8-3V59.3c0-1.2-0.7-2.4-1.8-3L13,38.1c-1.1-0.7-2.4-0.7-3.6,0l-32.2,18.2c-1.1,0.7-1.8,1.8-1.8,3v36.5
				c0,1.2,0.7,2.4,1.8,3l8.5,4.8C-13.6,104.1-12.7,103.6-12.7,102.8"/>
			<path id="Fill-3" class="st6" d="M22.2,111.4L0.8,99.3c-0.4-0.2-0.9,0.1-0.9,0.5v11.5c0,0.5,0.2,1,0.7,1.2l9,5
				c1.1,0.6,2.4,0.6,3.5,0l9.2-5.2C22.6,112.2,22.6,111.6,22.2,111.4"/>
			<path id="Fill-5" class="st6" d="M21.4,84.4l-9.1,5.1c-0.7,0.4-1.5,0.4-2.3,0l-9.1-5.1c-0.7-0.4-1.1-1.1-1.1-1.9V72.3
				c0-0.8,0.4-1.5,1.1-1.9l9.1-5.1c0.7-0.4,1.5-0.4,2.3,0l9.1,5.1c0.7,0.4,1.1,1.1,1.1,1.9v10.2C22.6,83.3,22.2,84,21.4,84.4"/>
		</g>
	</g>
</g>
</svg>
