<svg id="Layer_1" data-name="Layer 1" xmlns="http://www.w3.org/2000/svg" xmlns:xlink="http://www.w3.org/1999/xlink" viewBox="0 0 535 680"><defs><style>.cls-1{fill:none;}.cls-2{clip-path:url(#clip-path);}.cls-3{fill:#273be2;}.cls-4{fill:#fff;}</style><clipPath id="clip-path" transform="translate(269.5)"><rect class="cls-1" width="280.59" height="680"/></clipPath></defs><title>scheme_mob</title><g class="cls-2"><g id="Stroke-1"><polygon class="cls-3" points="421.85 61.48 307.92 25.5 226.68 25.5 114.15 60.38 113.85 59.42 226.52 24.5 308.15 24.52 422.15 60.52 421.85 61.48"/></g><g id="Stroke-2"><path class="cls-3" d="M53.15,266.5H-55.14l-.12-.08-66-41.21,0-.21L-156.18,59.18-54.9,100.6H50.51L153.19,60.29,116,225.21Zm-108-1H52.85l62.31-40.91L151.81,61.91,50.69,101.6l-105.88,0-99.63-40.74,34.46,163.77Z" transform="translate(269.5)"/></g><g id="Stroke-3"><path class="cls-3" d="M117.5,225.5h-235l-.21-1,76.1-35,81.92,0,77.4,35Zm-232.72-1h230.4L40,190.5H-41.39Z" transform="translate(269.5)"/></g><g id="Stroke-4"><path class="cls-3" d="M-48.7,559.92l-46.67-40.21L-54,496.3h18.88L-18.81,425-54.52,265.5H54.94L15.42,425,35.56,496.3H54.44l.12.07,38.85,23.39L50,551.12,34.81,497.3H-34.35Zm-44.94-40,44.33,38.2,13.93-60.78H-53.77ZM35.85,497.3l14.74,52.18,41-29.64L54.16,497.3Zm-70-1H34.52L14.38,425l0-.13L53.66,266.5H-53.28L-17.79,425l0,.11Z" transform="translate(269.5)"/></g><g id="Stroke-5"><polygon class="cls-3" points="362.04 519.18 324.47 424.52 324.52 424.35 386.52 224.85 387.48 225.15 325.53 424.48 362.96 518.82 362.04 519.18"/></g><g id="Stroke-6"><polygon class="cls-3" points="174.97 519.18 174.03 518.82 211.47 424.48 149.52 225.15 150.48 224.85 212.53 424.52 212.47 424.69 174.97 519.18"/></g><g id="Stroke-7"><rect class="cls-3" x="24" y="601.5" width="483" height="1"/></g><g id="Stroke-8"><polygon class="cls-3" points="436.76 652.5 321.2 652.5 321.2 651.5 436.44 651.5 506.09 601.63 421.86 550.5 319 550.5 266.71 602.3 212 550.5 109.14 550.5 24.91 601.63 94.56 651.5 209.8 651.5 209.8 652.5 94.24 652.5 94.11 652.41 23.09 601.57 23.74 601.17 108.86 549.5 212.4 549.5 266.69 600.9 318.59 549.5 422.14 549.5 422.26 549.57 507.91 601.57 507.29 602.01 436.76 652.5"/></g><g id="Fill-9"><path class="cls-3" d="M-269.5,590v21.7a6,6,0,0,0,2.9,5.1l18.8,10.8a6,6,0,0,0,5.8,0l18.8-10.8a5.84,5.84,0,0,0,2.9-5.1V590a6,6,0,0,0-2.9-5.1L-242,574.1a6,6,0,0,0-5.8,0l-18.8,10.8a5.84,5.84,0,0,0-2.9,5.1" transform="translate(269.5)"/></g><g id="Fill-11"><path class="cls-3" d="M-206.4,653.8l13.5,23.3a5.84,5.84,0,0,0,5.1,2.9h26.9a6,6,0,0,0,5.1-2.9l13.5-23.3a6,6,0,0,0,0-5.8l-13.5-23.3a5.84,5.84,0,0,0-5.1-2.9h-27a6,6,0,0,0-5.1,2.9L-206.5,648a6.26,6.26,0,0,0,.1,5.8" transform="translate(269.5)"/></g><g id="Fill-13"><path class="cls-3" d="M-90.9,653.8l13.5,23.3a5.84,5.84,0,0,0,5.1,2.9h26.8a6,6,0,0,0,5.1-2.9l13.5-23.3a6,6,0,0,0,0-5.8l-13.5-23.3a5.84,5.84,0,0,0-5.1-2.9H-72.4a6,6,0,0,0-5.1,2.9L-91,648a5.74,5.74,0,0,0,.1,5.8" transform="translate(269.5)"/></g><g id="Fill-15"><path class="cls-3" d="M24.5,653.8,38,677.1a5.84,5.84,0,0,0,5.1,2.9H70a6,6,0,0,0,5.1-2.9l13.5-23.3a6,6,0,0,0,0-5.8L75.1,624.7a5.84,5.84,0,0,0-5.1-2.9H43.1a6,6,0,0,0-5.1,2.9L24.5,647.9a6.18,6.18,0,0,0,0,5.9" transform="translate(269.5)"/></g><g id="Fill-17"><path class="cls-3" d="M140,653.8l13.5,23.3a5.84,5.84,0,0,0,5.1,2.9h26.9a6,6,0,0,0,5.1-2.9l13.5-23.3a6,6,0,0,0,0-5.8l-13.6-23.4a5.84,5.84,0,0,0-5.1-2.9H158.5a6,6,0,0,0-5.1,2.9l-13.5,23.3a6.47,6.47,0,0,0,.1,5.9" transform="translate(269.5)"/></g><g id="Fill-19"><path class="cls-3" d="M-189,552.4l12,20.8a5.84,5.84,0,0,0,5.1,2.9h24.1a6,6,0,0,0,5.1-2.9l12-20.8a6,6,0,0,0,0-5.8l-12-20.8a5.84,5.84,0,0,0-5.1-2.9h-24.1a6,6,0,0,0-5.1,2.9l-12,20.8a6,6,0,0,0,0,5.8" transform="translate(269.5)"/></g><g id="Fill-21"><path class="cls-3" d="M-83.2,552.4l12,20.8a5.84,5.84,0,0,0,5.1,2.9H-42a6,6,0,0,0,5.1-2.9l12-20.8a6,6,0,0,0,0-5.8l-12-20.8a5.84,5.84,0,0,0-5.1-2.9H-66.1a6,6,0,0,0-5.1,2.9l-12,20.8a5.51,5.51,0,0,0,0,5.8" transform="translate(269.5)"/></g><g id="Fill-23"><path class="cls-3" d="M22.5,552.4l12,20.8a5.84,5.84,0,0,0,5.1,2.9H63.7a6,6,0,0,0,5.1-2.9l12-20.8a6,6,0,0,0,0-5.8l-12-20.8a5.84,5.84,0,0,0-5.1-2.9H39.6a6,6,0,0,0-5.1,2.9l-12,20.8a6,6,0,0,0,0,5.8" transform="translate(269.5)"/></g><g id="Fill-25"><path class="cls-3" d="M-83.2,268.5l12,20.8a5.84,5.84,0,0,0,5.1,2.9H-42a6,6,0,0,0,5.1-2.9l12-20.8a6,6,0,0,0,0-5.8l-12-20.8A5.84,5.84,0,0,0-42,239H-66.1a6,6,0,0,0-5.1,2.9l-12,20.8a5.51,5.51,0,0,0,0,5.8" transform="translate(269.5)"/></g><g id="Fill-27"><path class="cls-3" d="M22.5,268.5l12,20.8a5.84,5.84,0,0,0,5.1,2.9H63.7a6,6,0,0,0,5.1-2.9l12-20.8a6,6,0,0,0,0-5.8l-12-20.8a5.84,5.84,0,0,0-5.1-2.9H39.6a6,6,0,0,0-5.1,2.9l-12,20.8a6,6,0,0,0,0,5.8" transform="translate(269.5)"/></g><g id="Fill-29"><path class="cls-3" d="M88.8,227.3l12,20.8a5.84,5.84,0,0,0,5.1,2.9H130a6,6,0,0,0,5.1-2.9l12-20.8a6,6,0,0,0,0-5.8l-12-20.8a5.84,5.84,0,0,0-5.1-2.9H105.9a6,6,0,0,0-5.1,2.9l-12,20.8a5.51,5.51,0,0,0,0,5.8" transform="translate(269.5)"/></g><g id="Fill-31"><path class="cls-3" d="M-148.1,227.3l12,20.8A5.84,5.84,0,0,0-131,251h24.1a6,6,0,0,0,5.1-2.9l12-20.8a6,6,0,0,0,0-5.8l-12-20.8a5.84,5.84,0,0,0-5.1-2.9H-131a6,6,0,0,0-5.1,2.9l-12,20.8a6,6,0,0,0,0,5.8" transform="translate(269.5)"/></g><g id="Fill-33"><path class="cls-3" d="M-64,192.3l8.5,14.7a5.84,5.84,0,0,0,5.1,2.9h17a6,6,0,0,0,5.1-2.9l8.5-14.7a6,6,0,0,0,0-5.8l-8.5-14.7a5.84,5.84,0,0,0-5.1-2.9h-17a6,6,0,0,0-5.1,2.9L-64,186.5a6,6,0,0,0,0,5.8" transform="translate(269.5)"/></g><g id="Fill-35"><path class="cls-3" d="M17.5,192.3,26,207a5.84,5.84,0,0,0,5.1,2.9h17a6,6,0,0,0,5.1-2.9l8.5-14.7a6,6,0,0,0,0-5.8l-8.5-14.7a5.84,5.84,0,0,0-5.1-2.9h-17a6,6,0,0,0-5.1,2.9l-8.5,14.7a5.51,5.51,0,0,0,0,5.8" transform="translate(269.5)"/></g><g id="Fill-37"><path class="cls-3" d="M-98.5,103.4l12,20.8a5.84,5.84,0,0,0,5.1,2.9h24.1a6,6,0,0,0,5.1-2.9l12-20.8a6,6,0,0,0,0-5.8l-12-20.8a5.84,5.84,0,0,0-5.1-2.9H-81.4a6,6,0,0,0-5.1,2.9l-12,20.8a5.51,5.51,0,0,0,0,5.8" transform="translate(269.5)"/></g><g id="Fill-39"><path class="cls-3" d="M37.8,103.4l12,20.8a5.84,5.84,0,0,0,5.1,2.9H79a6,6,0,0,0,5.1-2.9l12-20.8a6,6,0,0,0,0-5.8l-12-20.8A5.84,5.84,0,0,0,79,73.9H54.9a6,6,0,0,0-5.1,2.9l-12,20.8a6,6,0,0,0,0,5.8" transform="translate(269.5)"/></g><g id="Fill-41"><path class="cls-3" d="M124.5,62.2l12,20.8a5.84,5.84,0,0,0,5.1,2.9h24.1a6,6,0,0,0,5.1-2.9l12-20.8a6,6,0,0,0,0-5.8l-12-20.8a5.84,5.84,0,0,0-5.1-2.9H141.6a6,6,0,0,0-5.1,2.9l-12,20.8a6,6,0,0,0,0,5.8" transform="translate(269.5)"/></g><g id="Fill-43"><path class="cls-3" d="M-183.8,62.2l12,20.8a5.84,5.84,0,0,0,5.1,2.9h24.1a6,6,0,0,0,5.1-2.9l12-20.8a6,6,0,0,0,0-5.8l-12-20.8a5.84,5.84,0,0,0-5.1-2.9h-24.1a6,6,0,0,0-5.1,2.9l-12,20.8a5.51,5.51,0,0,0,0,5.8" transform="translate(269.5)"/></g><g id="Fill-45"><path class="cls-3" d="M-74.2,27.2l8.5,14.7a5.84,5.84,0,0,0,5.1,2.9h17a6,6,0,0,0,5.1-2.9L-30,27.2a6,6,0,0,0,0-5.8L-38.5,6.7a5.84,5.84,0,0,0-5.1-2.9h-17a6,6,0,0,0-5.1,2.9l-8.5,14.7a6,6,0,0,0,0,5.8" transform="translate(269.5)"/></g><g id="Fill-47"><path class="cls-3" d="M27.7,27.2l8.5,14.7a5.84,5.84,0,0,0,5.1,2.9h17a6,6,0,0,0,5.1-2.9l8.5-14.7a6,6,0,0,0,0-5.8L63.4,6.7a5.84,5.84,0,0,0-5.1-2.9h-17a6,6,0,0,0-5.1,2.9L27.7,21.4a5.51,5.51,0,0,0,0,5.8" transform="translate(269.5)"/></g><g id="Fill-49"><path class="cls-3" d="M128.3,552.4l12,20.8a5.84,5.84,0,0,0,5.1,2.9h24.1a6,6,0,0,0,5.1-2.9l12-20.8a6,6,0,0,0,0-5.8l-12-20.8a5.84,5.84,0,0,0-5.1-2.9H145.4a6,6,0,0,0-5.1,2.9l-12,20.8a5.51,5.51,0,0,0,0,5.8" transform="translate(269.5)"/></g><g id="Fill-51"><path class="cls-3" d="M-111.2,521.9l5.7,9.9a5.84,5.84,0,0,0,5.1,2.9H-89a6,6,0,0,0,5.1-2.9l5.7-9.9a6,6,0,0,0,0-5.8l-5.7-9.9a5.84,5.84,0,0,0-5.1-2.9h-11.4a6,6,0,0,0-5.1,2.9l-5.7,9.9a5.51,5.51,0,0,0,0,5.8" transform="translate(269.5)"/></g><g id="Fill-53"><path class="cls-3" d="M75.8,521.9l5.7,9.9a5.84,5.84,0,0,0,5.1,2.9H98a6,6,0,0,0,5.1-2.9l5.7-9.9a6,6,0,0,0,0-5.8l-5.7-9.9a5.84,5.84,0,0,0-5.1-2.9H86.6a6,6,0,0,0-5.1,2.9l-5.7,9.9a6,6,0,0,0,0,5.8" transform="translate(269.5)"/></g><g id="Fill-55"><path class="cls-3" d="M-66.6,497.2l4,6.9a2.44,2.44,0,0,0,2.1,1.2h8a2.57,2.57,0,0,0,2.1-1.2l4-6.9a2.55,2.55,0,0,0,0-2.4l-4-6.9a2.44,2.44,0,0,0-2.1-1.2h-8a2.57,2.57,0,0,0-2.1,1.2l-4,6.9a2.55,2.55,0,0,0,0,2.4" transform="translate(269.5)"/></g><g id="Fill-57"><path class="cls-3" d="M44,497.2l4,6.9a2.44,2.44,0,0,0,2.1,1.2h8a2.57,2.57,0,0,0,2.1-1.2l4-6.9a2.55,2.55,0,0,0,0-2.4l-4-6.9a2.44,2.44,0,0,0-2.1-1.2h-8a2.57,2.57,0,0,0-2.1,1.2l-4,6.9a2.55,2.55,0,0,0,0,2.4" transform="translate(269.5)"/></g><g id="Fill-59"><path class="cls-3" d="M-26.6,590v21.7a6,6,0,0,0,2.9,5.1l18.8,10.8a6,6,0,0,0,5.8,0l18.8-10.8a5.84,5.84,0,0,0,2.9-5.1V590a6,6,0,0,0-2.9-5.1L.9,574.1a6,6,0,0,0-5.8,0l-18.8,10.8a5.84,5.84,0,0,0-2.9,5.1" transform="translate(269.5)"/></g><g id="Fill-61"><path class="cls-3" d="M216.3,590v21.7a6,6,0,0,0,2.9,5.1L238,627.6a6,6,0,0,0,5.8,0l18.8-10.8a5.84,5.84,0,0,0,2.9-5.1V590a6,6,0,0,0-2.9-5.1l-18.8-10.8a6,6,0,0,0-5.8,0l-18.8,10.8a5.84,5.84,0,0,0-2.9,5.1" transform="translate(269.5)"/></g><g id="Fill-63"><path class="cls-4" d="M7.9,113.1a8.6,8.6,0,0,1-8.6,8.6,8.6,8.6,0,0,1-8.6-8.6,8.6,8.6,0,0,1,8.6-8.6,8.47,8.47,0,0,1,8.6,8.6" transform="translate(269.5)"/></g><g id="Stroke-65"><path class="cls-3" d="M-.7,124.7a11.61,11.61,0,0,1-11.6-11.6A11.61,11.61,0,0,1-.7,101.5a11.23,11.23,0,0,1,8.11,3.23,11.61,11.61,0,0,1,3.49,8.37A11.61,11.61,0,0,1-.7,124.7Zm.18-17.2H-.64a5.62,5.62,0,0,0-5.66,5.6,5.61,5.61,0,0,0,5.6,5.6,5.61,5.61,0,0,0,5.6-5.6A5.65,5.65,0,0,0,3.21,109,5.3,5.3,0,0,0-.52,107.5Z" transform="translate(269.5)"/></g><g id="Fill-67"><path class="cls-4" d="M-200.2,555.1a6.06,6.06,0,0,1-2.2,8.3,6.06,6.06,0,0,1-8.3-2.2,6.06,6.06,0,0,1,2.2-8.3,6.06,6.06,0,0,1,8.3,2.2" transform="translate(269.5)"/></g><g id="Stroke-69"><path class="cls-3" d="M-205.43,567.22a9.11,9.11,0,0,1-7.86-4.5,9,9,0,0,1-.94-6.89,9.07,9.07,0,0,1,4.21-5.52,9,9,0,0,1,6.89-.94,9.07,9.07,0,0,1,5.52,4.21h0A9.08,9.08,0,0,1-200.88,566,9,9,0,0,1-205.43,567.22Zm0-12.15a3,3,0,0,0-1.53.42,3.1,3.1,0,0,0-1.44,1.88,3,3,0,0,0,.31,2.31,3.07,3.07,0,0,0,4.2,1.13,3.08,3.08,0,0,0,1.13-4.19,3.1,3.1,0,0,0-1.88-1.44A3,3,0,0,0-205.46,555.07Z" transform="translate(269.5)"/></g><g id="Fill-71"><path class="cls-4" d="M-184.9,582.4a6.06,6.06,0,0,1-2.2,8.3,6.06,6.06,0,0,1-8.3-2.2,6.06,6.06,0,0,1,2.2-8.3,6.15,6.15,0,0,1,8.3,2.2" transform="translate(269.5)"/></g><g id="Stroke-73"><path class="cls-3" d="M-190.13,594.53a9.06,9.06,0,0,1-2.34-.31A9.06,9.06,0,0,1-198,590a9.08,9.08,0,0,1,3.27-12.4,9.12,9.12,0,0,1,12.41,3.27,9.08,9.08,0,0,1-3.27,12.41A9,9,0,0,1-190.13,594.53Zm0-12.12a3.3,3.3,0,0,0-1.6.42,3.06,3.06,0,0,0-1.06,4.16,3.11,3.11,0,0,0,1.88,1.44,3,3,0,0,0,2.31-.31,3.08,3.08,0,0,0,1.13-4.19h0A3.06,3.06,0,0,0-190.15,582.41Z" transform="translate(269.5)"/></g><g id="Fill-75"><path class="cls-4" d="M-118.9,634.1a6.06,6.06,0,0,1-2.2,8.3,6.06,6.06,0,0,1-8.3-2.2,6.06,6.06,0,0,1,2.2-8.3,6.19,6.19,0,0,1,8.3,2.2" transform="translate(269.5)"/></g><g id="Stroke-77"><path class="cls-3" d="M-124.13,646.22a9.11,9.11,0,0,1-7.86-4.5,9,9,0,0,1-.94-6.89,9.06,9.06,0,0,1,4.21-5.51l.1-.06a9.23,9.23,0,0,1,12.31,3.34A9.08,9.08,0,0,1-119.58,645,9,9,0,0,1-124.13,646.22Zm-1.61-11.7a3.09,3.09,0,0,0-1.39,1.85,3,3,0,0,0,.31,2.31,3.08,3.08,0,0,0,4.2,1.13,3.08,3.08,0,0,0,1.13-4.2l0,0A3.18,3.18,0,0,0-125.73,634.52Z" transform="translate(269.5)"/></g><g id="Fill-79"><path class="cls-4" d="M-103.5,661.5a6.06,6.06,0,0,1-2.2,8.3,6.06,6.06,0,0,1-8.3-2.2,6.06,6.06,0,0,1,2.2-8.3,6.06,6.06,0,0,1,8.3,2.2" transform="translate(269.5)"/></g><g id="Stroke-81"><path class="cls-3" d="M-108.73,673.63a9.06,9.06,0,0,1-2.34-.31,9.06,9.06,0,0,1-5.51-4.21,9,9,0,0,1-.94-6.89,9.07,9.07,0,0,1,4.21-5.51,9,9,0,0,1,6.89-.94,9.06,9.06,0,0,1,5.51,4.21,9.08,9.08,0,0,1-3.27,12.41A9,9,0,0,1-108.73,673.63Zm0-12.16a3,3,0,0,0-1.53.42,3.11,3.11,0,0,0-1.44,1.89,3,3,0,0,0,.31,2.31,3.11,3.11,0,0,0,1.89,1.44,3,3,0,0,0,2.31-.31,3.08,3.08,0,0,0,1.13-4.19,3.11,3.11,0,0,0-1.89-1.44A3,3,0,0,0-108.76,661.47Z" transform="translate(269.5)"/></g><g id="Fill-83"><path class="cls-4" d="M-114.7,532.3a6.06,6.06,0,0,1-2.2,8.3,6.06,6.06,0,0,1-8.3-2.2,6.06,6.06,0,0,1,2.2-8.3,6.06,6.06,0,0,1,8.3,2.2" transform="translate(269.5)"/></g><g id="Stroke-85"><path class="cls-3" d="M-119.93,544.42a9.11,9.11,0,0,1-7.86-4.5,9.08,9.08,0,0,1,3.27-12.41,9.08,9.08,0,0,1,12.4,3.27h0a9,9,0,0,1,.94,6.89,9.07,9.07,0,0,1-4.21,5.52A9,9,0,0,1-119.93,544.42Zm0-12.15a3,3,0,0,0-1.52.41,3.08,3.08,0,0,0-1.13,4.2,3.08,3.08,0,0,0,4.19,1.13,3.1,3.1,0,0,0,1.44-1.88,3,3,0,0,0-.31-2.31A3.11,3.11,0,0,0-120,532.28Z" transform="translate(269.5)"/></g><g id="Fill-87"><path class="cls-4" d="M-99.4,559.6a6.06,6.06,0,0,1-2.2,8.3,6.06,6.06,0,0,1-8.3-2.2,6.06,6.06,0,0,1,2.2-8.3,6.06,6.06,0,0,1,8.3,2.2" transform="translate(269.5)"/></g><g id="Stroke-89"><path class="cls-3" d="M-104.63,571.72a9.11,9.11,0,0,1-7.86-4.5,9,9,0,0,1-.94-6.89,9.07,9.07,0,0,1,4.21-5.52,9.08,9.08,0,0,1,12.4,3.27h0a9.08,9.08,0,0,1-3.27,12.41A9,9,0,0,1-104.63,571.72Zm0-12.15a3,3,0,0,0-1.52.41,3.1,3.1,0,0,0-1.44,1.88,3,3,0,0,0,.31,2.31,3.07,3.07,0,0,0,4.2,1.13,3.08,3.08,0,0,0,1.13-4.19h0A3.11,3.11,0,0,0-104.66,559.58Z" transform="translate(269.5)"/></g><g id="Fill-91"><path class="cls-4" d="M198,561.1a6.07,6.07,0,1,0,2.2-8.3,6.06,6.06,0,0,0-2.2,8.3" transform="translate(269.5)"/></g><g id="Stroke-93"><path class="cls-3" d="M203.27,567.13a9.12,9.12,0,0,1-7.86-4.52,9,9,0,0,1-.94-6.89,9.07,9.07,0,0,1,4.21-5.51,9,9,0,0,1,6.89-.94,9.08,9.08,0,0,1-2.31,17.86Zm0-12.16a3,3,0,0,0-1.53.42,3.11,3.11,0,0,0-1.44,1.89,3,3,0,0,0,.31,2.31h0a3.11,3.11,0,0,0,1.89,1.44,3,3,0,0,0,2.31-.31,3.08,3.08,0,0,0-.76-5.64A3,3,0,0,0,203.24,555Z" transform="translate(269.5)"/></g><g id="Fill-95"><path class="cls-4" d="M182.6,588.5a6.07,6.07,0,1,0,2.2-8.3,6.24,6.24,0,0,0-2.2,8.3" transform="translate(269.5)"/></g><g id="Stroke-97"><path class="cls-3" d="M187.87,594.53A9.12,9.12,0,0,1,180,590l0-.07a9.29,9.29,0,0,1,3.27-12.31,9.07,9.07,0,1,1,9.17,15.65A9,9,0,0,1,187.87,594.53ZM185.21,587a3.1,3.1,0,0,0,1.86,1.41,3,3,0,0,0,2.31-.31,3.07,3.07,0,0,0-3.07-5.32A3.22,3.22,0,0,0,185.21,587Z" transform="translate(269.5)"/></g><g id="Fill-99"><path class="cls-4" d="M116.6,640.2a6.07,6.07,0,1,0,2.2-8.3,6.06,6.06,0,0,0-2.2,8.3" transform="translate(269.5)"/></g><g id="Stroke-101"><path class="cls-3" d="M121.87,646.22a9.11,9.11,0,0,1-7.86-4.5h0a9,9,0,0,1-.94-6.89A9.07,9.07,0,1,1,126.42,645,9,9,0,0,1,121.87,646.22Zm-2.69-7.54a3.07,3.07,0,1,0,1.13-4.19,3.1,3.1,0,0,0-1.44,1.88,3,3,0,0,0,.31,2.31Z" transform="translate(269.5)"/></g><g id="Fill-103"><path class="cls-4" d="M101.3,667.5a6.07,6.07,0,1,0,2.2-8.3,6.06,6.06,0,0,0-2.2,8.3" transform="translate(269.5)"/></g><g id="Stroke-105"><path class="cls-3" d="M106.57,673.53a9.08,9.08,0,1,1,7.82-13.65,9,9,0,0,1,.94,6.89,9.11,9.11,0,0,1-8.76,6.76Zm0-12.16a3,3,0,0,0-1.53.42,3.1,3.1,0,0,0-1.15,4.16l0,0a3.11,3.11,0,0,0,1.89,1.44,3,3,0,0,0,2.31-.31,3.11,3.11,0,0,0,1.44-1.88,3,3,0,0,0-.31-2.31,3.11,3.11,0,0,0-1.88-1.44A3,3,0,0,0,106.54,661.37Z" transform="translate(269.5)"/></g><g id="Fill-107"><path class="cls-4" d="M112.5,538.3a6.07,6.07,0,1,0,2.2-8.3,6.06,6.06,0,0,0-2.2,8.3" transform="translate(269.5)"/></g><g id="Stroke-109"><path class="cls-3" d="M117.77,544.33a9.12,9.12,0,0,1-7.85-4.52,9,9,0,0,1-.94-6.89,9.07,9.07,0,0,1,4.21-5.51,9,9,0,0,1,6.89-.94,9.06,9.06,0,0,1,5.51,4.21,9,9,0,0,1,.94,6.89,9.12,9.12,0,0,1-8.76,6.76Zm0-12.16a3,3,0,0,0-1.53.42,3.11,3.11,0,0,0-1.44,1.89,3,3,0,0,0,.31,2.31h0a3.11,3.11,0,0,0,1.89,1.44,3,3,0,0,0,2.31-.31,3.11,3.11,0,0,0,1.44-1.89,3,3,0,0,0-.31-2.31,3.11,3.11,0,0,0-1.89-1.44A3,3,0,0,0,117.74,532.17Z" transform="translate(269.5)"/></g><g id="Fill-111"><path class="cls-4" d="M97.1,565.7a6.07,6.07,0,1,0,2.2-8.3,6.24,6.24,0,0,0-2.2,8.3" transform="translate(269.5)"/></g><g id="Stroke-113"><path class="cls-3" d="M102.37,571.72a9.11,9.11,0,0,1-7.86-4.5l0-.07a9.29,9.29,0,0,1,3.27-12.31,9.07,9.07,0,1,1,9.17,15.65A9,9,0,0,1,102.37,571.72Zm-2.67-7.51a3.07,3.07,0,1,0,1.11-4.23A3.22,3.22,0,0,0,99.71,564.22Z" transform="translate(269.5)"/></g><g id="Fill-115"><path class="cls-4" d="M-7.1,87.8a8.6,8.6,0,0,1-8.6,8.6,8.66,8.66,0,0,1-8.6-8.6,8.66,8.66,0,0,1,8.6-8.6,8.66,8.66,0,0,1,8.6,8.6" transform="translate(269.5)"/></g><g id="Stroke-117"><path class="cls-3" d="M-15.7,99.4A11.61,11.61,0,0,1-27.3,87.8,11.61,11.61,0,0,1-15.7,76.2,11.61,11.61,0,0,1-4.1,87.8,11.61,11.61,0,0,1-15.7,99.4Zm0-17.2a5.67,5.67,0,0,0-5.6,5.6,5.67,5.67,0,0,0,5.6,5.6,5.61,5.61,0,0,0,5.6-5.6A5.67,5.67,0,0,0-15.7,82.2Z" transform="translate(269.5)"/></g><g id="Fill-119"><path class="cls-4" d="M23,87.8a8.6,8.6,0,1,1-8.6-8.6A8.6,8.6,0,0,1,23,87.8" transform="translate(269.5)"/></g><g id="Stroke-121"><path class="cls-3" d="M14.4,99.4A11.6,11.6,0,1,1,26,87.8,11.61,11.61,0,0,1,14.4,99.4Zm0-17.2a5.6,5.6,0,1,0,0,11.2A5.61,5.61,0,0,0,20,87.8,5.67,5.67,0,0,0,14.4,82.2Z" transform="translate(269.5)"/></g><g id="Fill-123"><path class="cls-4" d="M7.9,36.9A8.6,8.6,0,0,1-.7,45.5a8.6,8.6,0,0,1-8.6-8.6A8.6,8.6,0,0,1-.7,28.3a8.54,8.54,0,0,1,8.6,8.6" transform="translate(269.5)"/></g><g id="Stroke-125"><path class="cls-3" d="M-.7,48.5A11.61,11.61,0,0,1-12.3,36.9,11.61,11.61,0,0,1-.7,25.3,11.48,11.48,0,0,1,10.9,36.9,11.61,11.61,0,0,1-.7,48.5Zm0-17.2a5.61,5.61,0,0,0-5.6,5.6A5.61,5.61,0,0,0-.7,42.5a5.61,5.61,0,0,0,5.6-5.6A5.54,5.54,0,0,0-.7,31.3Z" transform="translate(269.5)"/></g><g id="Fill-127"><path class="cls-4" d="M-7.1,11.7a8.6,8.6,0,0,1-8.6,8.6,8.66,8.66,0,0,1-8.6-8.6A8.67,8.67,0,0,1-15.8,3a8.77,8.77,0,0,1,8.7,8.7" transform="translate(269.5)"/></g><g id="Stroke-129"><path class="cls-3" d="M-15.7,23.3A11.61,11.61,0,0,1-27.3,11.7,11.61,11.61,0,0,1-15.8,0,11.71,11.71,0,0,1-4.1,11.7,11.61,11.61,0,0,1-15.7,23.3ZM-15.8,6a5.68,5.68,0,0,0-5.5,5.7,5.67,5.67,0,0,0,5.6,5.6,5.61,5.61,0,0,0,5.6-5.6A5.78,5.78,0,0,0-15.8,6Z" transform="translate(269.5)"/></g><g id="Fill-131"><path class="cls-4" d="M23,11.7a8.6,8.6,0,1,1-8.6-8.6A8.6,8.6,0,0,1,23,11.7" transform="translate(269.5)"/></g><g id="Stroke-133"><path class="cls-3" d="M14.4,23.3A11.6,11.6,0,1,1,26,11.7,11.61,11.61,0,0,1,14.4,23.3Zm0-17.2a5.68,5.68,0,0,0-5.6,5.6,5.67,5.67,0,0,0,5.6,5.6,5.6,5.6,0,1,0,0-11.2Z" transform="translate(269.5)"/></g><g id="Stroke-135"><path class="cls-3" d="M54.25,266.1H-54.25l-.12-.08-64.46-41.69L-41.9,188.9H39.61l.1,0,78,35.37Zm-108.2-1H54l61.72-40.62L39.39,189.9H-41.79l-75,34.57Z" transform="translate(269.5)"/></g></g></svg>