<?xml version="1.0" encoding="utf-8"?>
<!-- Generator: Adobe Illustrator 21.0.0, SVG Export Plug-In . SVG Version: 6.00 Build 0)  -->
<svg version="1.1" id="Layer_1" xmlns="http://www.w3.org/2000/svg" xmlns:xlink="http://www.w3.org/1999/xlink" x="0px" y="0px"
	 viewBox="0 0 939 680" style="enable-background:new 0 0 939 680;" xml:space="preserve">
<style type="text/css">
	.st0{fill:none;stroke:#BABABA;}
	.st1{font-family:'Lato-Regular';}
	.st2{font-size:14px;}
	.st3{fill:#273BE2;}
	.st4{font-family:'Lato-Heavy';}
	.st5{font-size:16px;}
	.st6{fill:none;stroke:#273BE2;}
	.st7{fill:#FFFFFF;}
	.st8{fill:none;stroke:#273BE2;stroke-width:6;}
</style>
<title>Untitled 4</title>
<desc>Created with Sketch.</desc>
<g id="Page-1">
	<g id="Group-22" transform="translate(0.000000, 3.000000)">
		<polyline id="Path-10" class="st0" points="272,118 302.5,149 626,149 		"/>
		<polyline id="Path-10-Copy" class="st0" points="324,268 392.5,342 626,342 		"/>
		<polyline id="Path-10-Copy-2" class="st0" points="473,554 498.5,527 616,527 		"/>
		<text transform="matrix(1 0 0 1 649 178)" class="st1 st2">Master node is a server in decentralized </text>
		<text transform="matrix(1 0 0 1 649 202)" class="st1 st2">network, which stores all blocks, if transaction </text>
		<text transform="matrix(1 0 0 1 649 226)" class="st1 st2">is taken by nodes, master node gets data </text>
		<text transform="matrix(1 0 0 1 649 250)" class="st1 st2">transfer requests.</text>
		<text transform="matrix(1 0 0 1 649 555)" class="st1 st2">Node is a machine, on which full client of the </text>
		<text transform="matrix(1 0 0 1 649 579)" class="st1 st2">network and registry storage are installed ( in </text>
		<text transform="matrix(1 0 0 1 649 603)" class="st1 st2">some cases - partial storage, for example, as in </text>
		<text transform="matrix(1 0 0 1 649 627)" class="st1 st2">the case of ordinary nodes).</text>
		<text transform="matrix(1 0 0 1 649 371)" class="st1 st2">Sidechains are interconnected and operate </text>
		<text transform="matrix(1 0 0 1 649 395)" class="st1 st2">simultaneously without overloading basic </text>
		<text transform="matrix(1 0 0 1 649 419)" class="st1 st2">blockchain.</text>
		<text transform="matrix(1 0 0 1 649 155)" class="st3 st4 st5">MASTER NODE</text>
		<text transform="matrix(1 0 0 1 649 532)" class="st3 st4 st5">NODE</text>
		<text transform="matrix(1 0 0 1 649 348)" class="st3 st4 st5">SIDECHAIN</text>
		<g id="Group-138">
			<polyline id="Stroke-1" class="st6" points="114,56.9 226.6,22 308,22 422,58 			"/>
			<polygon id="Stroke-2" class="st6" points="214.5,263 148.7,221.9 114,57 214.5,98.1 320.1,98.1 422,58.1 385.1,221.9 322.5,263 
							"/>
			<polygon id="Stroke-3" class="st6" points="152,222 387,222 309.6,187 228,187 			"/>
			<polygon id="Stroke-4" class="st6" points="220.5,556 175,516.8 215.6,493.8 323.8,493.8 362,516.8 319.8,547.3 284.4,422 
				323.8,263 215.6,263 251.2,422 			"/>
			<polyline id="Stroke-5" class="st6" points="387,222 325,421.5 362.5,516 			"/>
			<polyline id="Stroke-6" class="st6" points="174.5,516 212,421.5 150,222 			"/>
			<polyline id="Stroke-7" class="st6" points="24,599 266.7,599 507,599 			"/>
			<polyline id="Stroke-8" class="st6" points="209.8,649 94.4,649 24,598.6 109,547 212.2,547 266.7,598.6 318.8,547 422,547 
				507,598.6 436.6,649 321.2,649 			"/>
			<g id="Group-137">
				<path id="Fill-9" class="st3" d="M0,587v21.7c0,2.1,1.1,4,2.9,5.1l18.8,10.8c1.8,1,4,1,5.8,0l18.8-10.8c1.8-1,2.9-3,2.9-5.1V587
					c0-2.1-1.1-4-2.9-5.1l-18.8-10.8c-1.8-1-4-1-5.8,0L2.9,581.9C1.1,582.9,0,584.9,0,587"/>
				<path id="Fill-11" class="st3" d="M63.1,650.8l13.5,23.3c1,1.8,3,2.9,5.1,2.9h26.9c2.1,0,4-1.1,5.1-2.9l13.5-23.3
					c1-1.8,1-4,0-5.8l-13.5-23.3c-1-1.8-3-2.9-5.1-2.9H81.6c-2.1,0-4,1.1-5.1,2.9l-13.5,23.3C62.1,646.7,62.1,649,63.1,650.8"/>
				<path id="Fill-13" class="st3" d="M178.6,650.8l13.5,23.3c1,1.8,3,2.9,5.1,2.9H224c2.1,0,4-1.1,5.1-2.9l13.5-23.3
					c1-1.8,1-4,0-5.8l-13.5-23.3c-1-1.8-3-2.9-5.1-2.9h-26.9c-2.1,0-4,1.1-5.1,2.9l-13.5,23.3C177.5,646.7,177.5,649,178.6,650.8"/>
				<path id="Fill-15" class="st3" d="M294,650.8l13.5,23.3c1,1.8,3,2.9,5.1,2.9h26.9c2.1,0,4-1.1,5.1-2.9l13.5-23.3
					c1-1.8,1-4,0-5.8l-13.5-23.3c-1-1.8-3-2.9-5.1-2.9h-26.9c-2.1,0-4,1.1-5.1,2.9L294,644.9C293,646.7,293,649,294,650.8"/>
				<path id="Fill-17" class="st3" d="M409.5,650.8l13.5,23.3c1,1.8,3,2.9,5.1,2.9h26.9c2.1,0,4-1.1,5.1-2.9l13.5-23.3
					c1-1.8,1-4,0-5.8L460,621.6c-1-1.8-3-2.9-5.1-2.9H428c-2.1,0-4,1.1-5.1,2.9l-13.5,23.3C408.5,646.7,408.5,649,409.5,650.8"/>
				<path id="Fill-19" class="st3" d="M80.5,549.4l12,20.8c1,1.8,3,2.9,5.1,2.9h24.1c2.1,0,4-1.1,5.1-2.9l12-20.8c1-1.8,1-4,0-5.8
					l-12-20.8c-1-1.8-3-2.9-5.1-2.9H97.6c-2.1,0-4,1.1-5.1,2.9l-12,20.8C79.5,545.4,79.5,547.6,80.5,549.4"/>
				<path id="Fill-21" class="st3" d="M186.3,549.4l12,20.8c1,1.8,3,2.9,5.1,2.9h24.1c2.1,0,4-1.1,5.1-2.9l12-20.8c1-1.8,1-4,0-5.8
					l-12-20.8c-1-1.8-3-2.9-5.1-2.9h-24.1c-2.1,0-4,1.1-5.1,2.9l-12,20.8C185.2,545.4,185.2,547.6,186.3,549.4"/>
				<path id="Fill-23" class="st3" d="M292,549.4l12,20.8c1,1.8,3,2.9,5.1,2.9h24.1c2.1,0,4-1.1,5.1-2.9l12-20.8c1-1.8,1-4,0-5.8
					l-12-20.8c-1-1.8-3-2.9-5.1-2.9h-24.1c-2.1,0-4,1.1-5.1,2.9l-12,20.8C291,545.4,291,547.6,292,549.4"/>
				<path id="Fill-25" class="st3" d="M186.3,265.5l12,20.8c1,1.8,3,2.9,5.1,2.9h24.1c2.1,0,4-1.1,5.1-2.9l12-20.8c1-1.8,1-4,0-5.8
					l-12-20.8c-1-1.8-3-2.9-5.1-2.9h-24.1c-2.1,0-4,1.1-5.1,2.9l-12,20.8C185.2,261.5,185.2,263.7,186.3,265.5"/>
				<path id="Fill-27" class="st3" d="M292,265.5l12,20.8c1,1.8,3,2.9,5.1,2.9h24.1c2.1,0,4-1.1,5.1-2.9l12-20.8c1-1.8,1-4,0-5.8
					l-12-20.8c-1-1.8-3-2.9-5.1-2.9h-24.1c-2.1,0-4,1.1-5.1,2.9l-12,20.8C291,261.5,291,263.7,292,265.5"/>
				<path id="Fill-29" class="st3" d="M358.3,224.3l12,20.8c1,1.8,3,2.9,5.1,2.9h24.1c2.1,0,4-1.1,5.1-2.9l12-20.8c1-1.8,1-4,0-5.8
					l-12-20.8c-1-1.8-3-2.9-5.1-2.9h-24.1c-2.1,0-4,1.1-5.1,2.9l-12,20.8C357.2,220.3,357.2,222.5,358.3,224.3"/>
				<path id="Fill-31" class="st3" d="M121.4,224.3l12,20.8c1,1.8,3,2.9,5.1,2.9h24.1c2.1,0,4-1.1,5.1-2.9l12-20.8c1-1.8,1-4,0-5.8
					l-12-20.8c-1-1.8-3-2.9-5.1-2.9h-24.1c-2.1,0-4,1.1-5.1,2.9l-12,20.8C120.4,220.3,120.4,222.5,121.4,224.3"/>
				<path id="Fill-33" class="st3" d="M205.5,189.3l8.5,14.7c1,1.8,3,2.9,5.1,2.9h17c2.1,0,4-1.1,5.1-2.9l8.5-14.7c1-1.8,1-4,0-5.8
					l-8.5-14.7c-1-1.8-3-2.9-5.1-2.9h-17c-2.1,0-4,1.1-5.1,2.9l-8.5,14.7C204.5,185.3,204.5,187.5,205.5,189.3"/>
				<path id="Fill-35" class="st3" d="M287,189.3l8.5,14.7c1,1.8,3,2.9,5.1,2.9h17c2.1,0,4-1.1,5.1-2.9l8.5-14.7c1-1.8,1-4,0-5.8
					l-8.5-14.7c-1-1.8-3-2.9-5.1-2.9h-17c-2.1,0-4,1.1-5.1,2.9l-8.5,14.7C285.9,185.3,285.9,187.5,287,189.3"/>
				<path id="Fill-37" class="st3" d="M171,100.4l12,20.8c1,1.8,3,2.9,5.1,2.9h24.1c2.1,0,4-1.1,5.1-2.9l12-20.8c1-1.8,1-4,0-5.8
					l-12-20.8c-1-1.8-3-2.9-5.1-2.9h-24.1c-2.1,0-4,1.1-5.1,2.9l-12,20.8C169.9,96.3,169.9,98.6,171,100.4"/>
				<path id="Fill-39" class="st3" d="M307.3,100.4l12,20.8c1,1.8,3,2.9,5.1,2.9h24.1c2.1,0,4-1.1,5.1-2.9l12-20.8c1-1.8,1-4,0-5.8
					l-12-20.8c-1-1.8-3-2.9-5.1-2.9h-24.1c-2.1,0-4,1.1-5.1,2.9l-12,20.8C306.3,96.3,306.3,98.6,307.3,100.4"/>
				<path id="Fill-41" class="st3" d="M394,59.2L406,80c1,1.8,3,2.9,5.1,2.9h24.1c2.1,0,4-1.1,5.1-2.9l12-20.8c1-1.8,1-4,0-5.8
					l-12-20.8c-1-1.8-3-2.9-5.1-2.9h-24.1c-2.1,0-4,1.1-5.1,2.9l-12,20.8C393,55.1,393,57.3,394,59.2"/>
				<path id="Fill-43" class="st3" d="M85.7,59.2l12,20.8c1,1.8,3,2.9,5.1,2.9h24.1c2.1,0,4-1.1,5.1-2.9l12-20.8c1-1.8,1-4,0-5.8
					l-12-20.8c-1-1.8-3-2.9-5.1-2.9h-24.1c-2.1,0-4,1.1-5.1,2.9l-12,20.8C84.6,55.1,84.6,57.3,85.7,59.2"/>
				<path id="Fill-45" class="st3" d="M195.3,24.2l8.5,14.7c1,1.8,3,2.9,5.1,2.9h17c2.1,0,4-1.1,5.1-2.9l8.5-14.7c1-1.8,1-4,0-5.8
					l-8.5-14.7c-1-1.8-3-2.9-5.1-2.9h-17c-2.1,0-4,1.1-5.1,2.9l-8.5,14.7C194.3,20.2,194.3,22.4,195.3,24.2"/>
				<path id="Fill-47" class="st3" d="M297.2,24.2l8.5,14.7c1,1.8,3,2.9,5.1,2.9h17c2.1,0,4-1.1,5.1-2.9l8.5-14.7c1-1.8,1-4,0-5.8
					l-8.5-14.7c-1-1.8-3-2.9-5.1-2.9h-17c-2.1,0-4,1.1-5.1,2.9l-8.5,14.7C296.1,20.2,296.1,22.4,297.2,24.2"/>
				<path id="Fill-49" class="st3" d="M397.8,549.4l12,20.8c1,1.8,3,2.9,5.1,2.9h24.1c2.1,0,4-1.1,5.1-2.9l12-20.8c1-1.8,1-4,0-5.8
					l-12-20.8c-1-1.8-3-2.9-5.1-2.9h-24.1c-2.1,0-4,1.1-5.1,2.9l-12,20.8C396.7,545.4,396.7,547.6,397.8,549.4"/>
				<path id="Fill-51" class="st3" d="M158.3,518.9l5.7,9.9c1,1.8,3,2.9,5.1,2.9h11.4c2.1,0,4-1.1,5.1-2.9l5.7-9.9c1-1.8,1-4,0-5.8
					l-5.7-9.9c-1-1.8-3-2.9-5.1-2.9h-11.4c-2.1,0-4,1.1-5.1,2.9l-5.7,9.9C157.2,514.8,157.2,517.1,158.3,518.9"/>
				<path id="Fill-53" class="st3" d="M345.3,518.9l5.7,9.9c1,1.8,3,2.9,5.1,2.9h11.4c2.1,0,4-1.1,5.1-2.9l5.7-9.9c1-1.8,1-4,0-5.8
					l-5.7-9.9c-1-1.8-3-2.9-5.1-2.9h-11.4c-2.1,0-4,1.1-5.1,2.9l-5.7,9.9C344.3,514.8,344.3,517.1,345.3,518.9"/>
				<path id="Fill-55" class="st3" d="M202.9,494.2l4,6.9c0.4,0.7,1.2,1.2,2.1,1.2h8c0.9,0,1.6-0.5,2.1-1.2l4-6.9
					c0.4-0.7,0.4-1.6,0-2.4l-4-6.9c-0.4-0.7-1.2-1.2-2.1-1.2h-8c-0.9,0-1.6,0.5-2.1,1.2l-4,6.9C202.5,492.6,202.5,493.5,202.9,494.2
					"/>
				<path id="Fill-57" class="st3" d="M313.5,494.2l4,6.9c0.4,0.7,1.2,1.2,2.1,1.2h8c0.9,0,1.6-0.5,2.1-1.2l4-6.9
					c0.4-0.7,0.4-1.6,0-2.4l-4-6.9c-0.4-0.7-1.2-1.2-2.1-1.2h-8c-0.9,0-1.6,0.5-2.1,1.2l-4,6.9C313.1,492.6,313.1,493.5,313.5,494.2
					"/>
				<path id="Fill-59" class="st3" d="M242.9,587v21.7c0,2.1,1.1,4,2.9,5.1l18.8,10.8c1.8,1,4,1,5.8,0l18.8-10.8
					c1.8-1,2.9-3,2.9-5.1V587c0-2.1-1.1-4-2.9-5.1l-18.8-10.8c-1.8-1-4-1-5.8,0l-18.8,10.8C244,582.9,242.9,584.9,242.9,587"/>
				<path id="Fill-61" class="st3" d="M485.8,587v21.7c0,2.1,1.1,4,2.9,5.1l18.8,10.8c1.8,1,4,1,5.8,0l18.8-10.8
					c1.8-1,2.9-3,2.9-5.1V587c0-2.1-1.1-4-2.9-5.1l-18.8-10.8c-1.8-1-4-1-5.8,0l-18.8,10.8C486.9,582.9,485.8,584.9,485.8,587"/>
				<path id="Fill-63" class="st7" d="M277.4,110.1c0,4.8-3.9,8.6-8.6,8.6c-4.8,0-8.6-3.9-8.6-8.6c0-4.8,3.9-8.6,8.6-8.6
					C273.6,101.4,277.4,105.3,277.4,110.1"/>
				<path id="Stroke-65" class="st8" d="M277.4,110.1c0,4.8-3.9,8.6-8.6,8.6c-4.8,0-8.6-3.9-8.6-8.6c0-4.8,3.9-8.6,8.6-8.6
					C273.6,101.4,277.4,105.3,277.4,110.1z"/>
				<path id="Fill-67" class="st7" d="M69.3,552.1c1.7,2.9,0.7,6.6-2.2,8.3c-2.9,1.7-6.6,0.7-8.3-2.2c-1.7-2.9-0.7-6.6,2.2-8.3
					C63.9,548.2,67.6,549.2,69.3,552.1"/>
				<path id="Stroke-69" class="st8" d="M69.3,552.1c1.7,2.9,0.7,6.6-2.2,8.3c-2.9,1.7-6.6,0.7-8.3-2.2c-1.7-2.9-0.7-6.6,2.2-8.3
					C63.9,548.2,67.6,549.2,69.3,552.1z"/>
				<path id="Fill-71" class="st7" d="M84.6,579.4c1.7,2.9,0.7,6.6-2.2,8.3c-2.9,1.7-6.6,0.7-8.3-2.2c-1.7-2.9-0.7-6.6,2.2-8.3
					C79.2,575.6,82.9,576.5,84.6,579.4"/>
				<path id="Stroke-73" class="st8" d="M84.6,579.4c1.7,2.9,0.7,6.6-2.2,8.3c-2.9,1.7-6.6,0.7-8.3-2.2c-1.7-2.9-0.7-6.6,2.2-8.3
					C79.2,575.6,82.9,576.5,84.6,579.4z"/>
				<path id="Fill-75" class="st7" d="M150.6,631.1c1.7,2.9,0.7,6.6-2.2,8.3c-2.9,1.7-6.6,0.7-8.3-2.2c-1.7-2.9-0.7-6.6,2.2-8.3
					C145.3,627.3,149,628.3,150.6,631.1"/>
				<path id="Stroke-77" class="st8" d="M150.6,631.1c1.7,2.9,0.7,6.6-2.2,8.3c-2.9,1.7-6.6,0.7-8.3-2.2c-1.7-2.9-0.7-6.6,2.2-8.3
					C145.3,627.3,149,628.3,150.6,631.1z"/>
				<path id="Fill-79" class="st7" d="M166,658.5c1.7,2.9,0.7,6.6-2.2,8.3c-2.9,1.7-6.6,0.7-8.3-2.2c-1.7-2.9-0.7-6.6,2.2-8.3
					C160.6,654.6,164.3,655.6,166,658.5"/>
				<path id="Stroke-81" class="st8" d="M166,658.5c1.7,2.9,0.7,6.6-2.2,8.3c-2.9,1.7-6.6,0.7-8.3-2.2c-1.7-2.9-0.7-6.6,2.2-8.3
					C160.6,654.6,164.3,655.6,166,658.5z"/>
				<path id="Fill-83" class="st7" d="M154.8,529.3c1.7,2.9,0.7,6.6-2.2,8.3c-2.9,1.7-6.6,0.7-8.3-2.2s-0.7-6.6,2.2-8.3
					C149.4,525.4,153.1,526.4,154.8,529.3"/>
				<path id="Stroke-85" class="st8" d="M154.8,529.3c1.7,2.9,0.7,6.6-2.2,8.3c-2.9,1.7-6.6,0.7-8.3-2.2s-0.7-6.6,2.2-8.3
					C149.4,525.4,153.1,526.4,154.8,529.3z"/>
				<path id="Fill-87" class="st7" d="M170.1,556.6c1.7,2.9,0.7,6.6-2.2,8.3c-2.9,1.7-6.6,0.7-8.3-2.2c-1.7-2.9-0.7-6.6,2.2-8.3
					C164.7,552.7,168.4,553.7,170.1,556.6"/>
				<path id="Stroke-89" class="st8" d="M170.1,556.6c1.7,2.9,0.7,6.6-2.2,8.3c-2.9,1.7-6.6,0.7-8.3-2.2c-1.7-2.9-0.7-6.6,2.2-8.3
					C164.7,552.7,168.4,553.7,170.1,556.6z"/>
				<path id="Fill-91" class="st7" d="M467.5,558.1c1.7,2.9,5.4,3.9,8.3,2.2c2.9-1.7,3.9-5.4,2.2-8.3c-1.7-2.9-5.4-3.9-8.3-2.2
					C466.8,551.5,465.8,555.2,467.5,558.1"/>
				<path id="Stroke-93" class="st8" d="M467.5,558.1c1.7,2.9,5.4,3.9,8.3,2.2c2.9-1.7,3.9-5.4,2.2-8.3c-1.7-2.9-5.4-3.9-8.3-2.2
					C466.8,551.5,465.8,555.2,467.5,558.1z"/>
				<path id="Fill-95" class="st7" d="M452.1,585.5c1.7,2.9,5.4,3.9,8.3,2.2c2.9-1.7,3.9-5.4,2.2-8.3c-1.7-2.9-5.4-3.9-8.3-2.2
					C451.5,578.9,450.5,582.6,452.1,585.5"/>
				<path id="Stroke-97" class="st8" d="M452.1,585.5c1.7,2.9,5.4,3.9,8.3,2.2c2.9-1.7,3.9-5.4,2.2-8.3c-1.7-2.9-5.4-3.9-8.3-2.2
					C451.5,578.9,450.5,582.6,452.1,585.5z"/>
				<path id="Fill-99" class="st7" d="M386.1,637.2c1.7,2.9,5.4,3.9,8.3,2.2c2.9-1.7,3.9-5.4,2.2-8.3c-1.7-2.9-5.4-3.9-8.3-2.2
					C385.4,630.6,384.4,634.3,386.1,637.2"/>
				<path id="Stroke-101" class="st8" d="M386.1,637.2c1.7,2.9,5.4,3.9,8.3,2.2c2.9-1.7,3.9-5.4,2.2-8.3c-1.7-2.9-5.4-3.9-8.3-2.2
					C385.4,630.6,384.4,634.3,386.1,637.2z"/>
				<path id="Fill-103" class="st7" d="M370.8,664.5c1.7,2.9,5.4,3.9,8.3,2.2c2.9-1.7,3.9-5.4,2.2-8.3s-5.4-3.9-8.3-2.2
					C370.1,658,369.1,661.7,370.8,664.5"/>
				<path id="Stroke-105" class="st8" d="M370.8,664.5c1.7,2.9,5.4,3.9,8.3,2.2c2.9-1.7,3.9-5.4,2.2-8.3s-5.4-3.9-8.3-2.2
					C370.1,658,369.1,661.7,370.8,664.5z"/>
				<path id="Fill-107" class="st7" d="M382,535.3c1.7,2.9,5.4,3.9,8.3,2.2c2.9-1.7,3.9-5.4,2.2-8.3c-1.7-2.9-5.4-3.9-8.3-2.2
					C381.3,528.7,380.3,532.4,382,535.3"/>
				<path id="Stroke-109" class="st8" d="M382,535.3c1.7,2.9,5.4,3.9,8.3,2.2c2.9-1.7,3.9-5.4,2.2-8.3c-1.7-2.9-5.4-3.9-8.3-2.2
					C381.3,528.7,380.3,532.4,382,535.3z"/>
				<path id="Fill-111" class="st7" d="M366.6,562.7c1.7,2.9,5.4,3.9,8.3,2.2c2.9-1.7,3.9-5.4,2.2-8.3c-1.7-2.9-5.4-3.9-8.3-2.2
					C366,556.1,365,559.8,366.6,562.7"/>
				<path id="Stroke-113" class="st8" d="M366.6,562.7c1.7,2.9,5.4,3.9,8.3,2.2c2.9-1.7,3.9-5.4,2.2-8.3c-1.7-2.9-5.4-3.9-8.3-2.2
					C366,556.1,365,559.8,366.6,562.7z"/>
				<path id="Fill-115" class="st7" d="M262.4,84.8c0,4.8-3.9,8.6-8.6,8.6s-8.6-3.9-8.6-8.6s3.9-8.6,8.6-8.6S262.4,80.1,262.4,84.8"
					/>
				<path id="Stroke-117" class="st8" d="M262.4,84.8c0,4.8-3.9,8.6-8.6,8.6s-8.6-3.9-8.6-8.6s3.9-8.6,8.6-8.6
					S262.4,80.1,262.4,84.8z"/>
				<path id="Fill-119" class="st7" d="M292.5,84.8c0,4.8-3.9,8.6-8.6,8.6s-8.6-3.9-8.6-8.6s3.9-8.6,8.6-8.6S292.5,80.1,292.5,84.8"
					/>
				<path id="Stroke-121" class="st8" d="M292.5,84.8c0,4.8-3.9,8.6-8.6,8.6s-8.6-3.9-8.6-8.6s3.9-8.6,8.6-8.6
					S292.5,80.1,292.5,84.8z"/>
				<path id="Fill-123" class="st7" d="M277.4,33.9c0,4.8-3.9,8.6-8.6,8.6c-4.8,0-8.6-3.9-8.6-8.6c0-4.8,3.9-8.6,8.6-8.6
					C273.6,25.3,277.4,29.1,277.4,33.9"/>
				<path id="Stroke-125" class="st8" d="M277.4,33.9c0,4.8-3.9,8.6-8.6,8.6c-4.8,0-8.6-3.9-8.6-8.6c0-4.8,3.9-8.6,8.6-8.6
					C273.6,25.3,277.4,29.1,277.4,33.9z"/>
				<path id="Fill-127" class="st7" d="M262.4,8.7c0,4.8-3.9,8.6-8.6,8.6s-8.6-3.9-8.6-8.6S249,0,253.7,0S262.4,3.9,262.4,8.7"/>
				<path id="Stroke-129" class="st8" d="M262.4,8.7c0,4.8-3.9,8.6-8.6,8.6s-8.6-3.9-8.6-8.6S249,0,253.7,0S262.4,3.9,262.4,8.7z"/>
				<path id="Fill-131" class="st7" d="M292.5,8.7c0,4.8-3.9,8.6-8.6,8.6s-8.6-3.9-8.6-8.6s3.9-8.6,8.6-8.6S292.5,3.9,292.5,8.7"/>
				<path id="Stroke-133" class="st8" d="M292.5,8.7c0,4.8-3.9,8.6-8.6,8.6s-8.6-3.9-8.6-8.6s3.9-8.6,8.6-8.6S292.5,3.9,292.5,8.7z"
					/>
				<polygon id="Stroke-135" class="st6" points="323.6,262.6 215.4,262.6 151.7,221.4 227.6,186.4 309,186.4 386.2,221.4 				"/>
			</g>
		</g>
	</g>
</g>
</svg>
