<svg id="Layer_1" data-name="Layer 1" xmlns="http://www.w3.org/2000/svg" viewBox="0 0 626 680"><defs><style>.cls-1,.cls-2,.cls-5{fill:none;}.cls-1{stroke:#bababa;}.cls-2,.cls-5{stroke:#273be2;}.cls-3{fill:#273be2;}.cls-4{fill:#fff;}.cls-5{stroke-width:6px;}</style></defs><title>scheme2</title><polyline id="Path-10" class="cls-1" points="272 121 302.5 152 626 152"/><polyline id="Path-10-Copy" class="cls-1" points="324 271 392.5 345 626 345"/><polyline id="Path-10-Copy-2" class="cls-1" points="473 557 498.5 530 616 530"/><polyline id="Stroke-1" class="cls-2" points="114 59.9 226.6 25 308 25 422 61"/><polygon id="Stroke-2" class="cls-2" points="214.5 266 148.7 224.9 114 60 214.5 101.1 320.1 101.1 422 61.1 385.1 224.9 322.5 266 214.5 266"/><polygon id="Stroke-3" class="cls-2" points="152 225 387 225 309.6 190 228 190 152 225"/><polygon id="Stroke-4" class="cls-2" points="220.5 559 175 519.8 215.6 496.8 323.8 496.8 362 519.8 319.8 550.3 284.4 425 323.8 266 215.6 266 251.2 425 220.5 559"/><polyline id="Stroke-5" class="cls-2" points="387 225 325 424.5 362.5 519"/><polyline id="Stroke-6" class="cls-2" points="174.5 519 212 424.5 150 225"/><polyline id="Stroke-7" class="cls-2" points="24 602 266.7 602 507 602"/><polyline id="Stroke-8" class="cls-2" points="209.8 652 94.4 652 24 601.6 109 550 212.2 550 266.7 601.6 318.8 550 422 550 507 601.6 436.6 652 321.2 652"/><path id="Fill-9" class="cls-3" d="M0,590v21.7a6,6,0,0,0,2.9,5.1l18.8,10.8a6,6,0,0,0,5.8,0l18.8-10.8a5.84,5.84,0,0,0,2.9-5.1V590a6,6,0,0,0-2.9-5.1L27.5,574.1a6,6,0,0,0-5.8,0L2.9,584.9A5.84,5.84,0,0,0,0,590"/><path id="Fill-11" class="cls-3" d="M63.1,653.8l13.5,23.3a5.84,5.84,0,0,0,5.1,2.9h26.9a6,6,0,0,0,5.1-2.9l13.5-23.3a6,6,0,0,0,0-5.8l-13.5-23.3a5.84,5.84,0,0,0-5.1-2.9h-27a6,6,0,0,0-5.1,2.9L63,648a6.26,6.26,0,0,0,.1,5.8"/><path id="Fill-13" class="cls-3" d="M178.6,653.8l13.5,23.3a5.84,5.84,0,0,0,5.1,2.9H224a6,6,0,0,0,5.1-2.9l13.5-23.3a6,6,0,0,0,0-5.8l-13.5-23.3a5.84,5.84,0,0,0-5.1-2.9H197.1a6,6,0,0,0-5.1,2.9L178.5,648a5.74,5.74,0,0,0,.1,5.8"/><path id="Fill-15" class="cls-3" d="M294,653.8l13.5,23.3a5.84,5.84,0,0,0,5.1,2.9h26.9a6,6,0,0,0,5.1-2.9l13.5-23.3a6,6,0,0,0,0-5.8l-13.5-23.3a5.84,5.84,0,0,0-5.1-2.9H312.6a6,6,0,0,0-5.1,2.9L294,647.9a6.18,6.18,0,0,0,0,5.9"/><path id="Fill-17" class="cls-3" d="M409.5,653.8,423,677.1a5.84,5.84,0,0,0,5.1,2.9H455a6,6,0,0,0,5.1-2.9l13.5-23.3a6,6,0,0,0,0-5.8L460,624.6a5.84,5.84,0,0,0-5.1-2.9H428a6,6,0,0,0-5.1,2.9l-13.5,23.3a6.47,6.47,0,0,0,.1,5.9"/><path id="Fill-19" class="cls-3" d="M80.5,552.4l12,20.8a5.84,5.84,0,0,0,5.1,2.9h24.1a6,6,0,0,0,5.1-2.9l12-20.8a6,6,0,0,0,0-5.8l-12-20.8a5.84,5.84,0,0,0-5.1-2.9H97.6a6,6,0,0,0-5.1,2.9l-12,20.8a6,6,0,0,0,0,5.8"/><path id="Fill-21" class="cls-3" d="M186.3,552.4l12,20.8a5.84,5.84,0,0,0,5.1,2.9h24.1a6,6,0,0,0,5.1-2.9l12-20.8a6,6,0,0,0,0-5.8l-12-20.8a5.84,5.84,0,0,0-5.1-2.9H203.4a6,6,0,0,0-5.1,2.9l-12,20.8a5.51,5.51,0,0,0,0,5.8"/><path id="Fill-23" class="cls-3" d="M292,552.4l12,20.8a5.84,5.84,0,0,0,5.1,2.9h24.1a6,6,0,0,0,5.1-2.9l12-20.8a6,6,0,0,0,0-5.8l-12-20.8a5.84,5.84,0,0,0-5.1-2.9H309.1a6,6,0,0,0-5.1,2.9l-12,20.8a6,6,0,0,0,0,5.8"/><path id="Fill-25" class="cls-3" d="M186.3,268.5l12,20.8a5.84,5.84,0,0,0,5.1,2.9h24.1a6,6,0,0,0,5.1-2.9l12-20.8a6,6,0,0,0,0-5.8l-12-20.8a5.84,5.84,0,0,0-5.1-2.9H203.4a6,6,0,0,0-5.1,2.9l-12,20.8a5.51,5.51,0,0,0,0,5.8"/><path id="Fill-27" class="cls-3" d="M292,268.5l12,20.8a5.84,5.84,0,0,0,5.1,2.9h24.1a6,6,0,0,0,5.1-2.9l12-20.8a6,6,0,0,0,0-5.8l-12-20.8a5.84,5.84,0,0,0-5.1-2.9H309.1a6,6,0,0,0-5.1,2.9l-12,20.8a6,6,0,0,0,0,5.8"/><path id="Fill-29" class="cls-3" d="M358.3,227.3l12,20.8a5.84,5.84,0,0,0,5.1,2.9h24.1a6,6,0,0,0,5.1-2.9l12-20.8a6,6,0,0,0,0-5.8l-12-20.8a5.84,5.84,0,0,0-5.1-2.9H375.4a6,6,0,0,0-5.1,2.9l-12,20.8a5.51,5.51,0,0,0,0,5.8"/><path id="Fill-31" class="cls-3" d="M121.4,227.3l12,20.8a5.84,5.84,0,0,0,5.1,2.9h24.1a6,6,0,0,0,5.1-2.9l12-20.8a6,6,0,0,0,0-5.8l-12-20.8a5.84,5.84,0,0,0-5.1-2.9H138.5a6,6,0,0,0-5.1,2.9l-12,20.8a6,6,0,0,0,0,5.8"/><path id="Fill-33" class="cls-3" d="M205.5,192.3,214,207a5.84,5.84,0,0,0,5.1,2.9h17a6,6,0,0,0,5.1-2.9l8.5-14.7a6,6,0,0,0,0-5.8l-8.5-14.7a5.84,5.84,0,0,0-5.1-2.9h-17a6,6,0,0,0-5.1,2.9l-8.5,14.7a6,6,0,0,0,0,5.8"/><path id="Fill-35" class="cls-3" d="M287,192.3l8.5,14.7a5.84,5.84,0,0,0,5.1,2.9h17a6,6,0,0,0,5.1-2.9l8.5-14.7a6,6,0,0,0,0-5.8l-8.5-14.7a5.84,5.84,0,0,0-5.1-2.9h-17a6,6,0,0,0-5.1,2.9L287,186.5a5.51,5.51,0,0,0,0,5.8"/><path id="Fill-37" class="cls-3" d="M171,103.4l12,20.8a5.84,5.84,0,0,0,5.1,2.9h24.1a6,6,0,0,0,5.1-2.9l12-20.8a6,6,0,0,0,0-5.8l-12-20.8a5.84,5.84,0,0,0-5.1-2.9H188.1a6,6,0,0,0-5.1,2.9L171,97.6a5.51,5.51,0,0,0,0,5.8"/><path id="Fill-39" class="cls-3" d="M307.3,103.4l12,20.8a5.84,5.84,0,0,0,5.1,2.9h24.1a6,6,0,0,0,5.1-2.9l12-20.8a6,6,0,0,0,0-5.8l-12-20.8a5.84,5.84,0,0,0-5.1-2.9H324.4a6,6,0,0,0-5.1,2.9l-12,20.8a6,6,0,0,0,0,5.8"/><path id="Fill-41" class="cls-3" d="M394,62.2,406,83a5.84,5.84,0,0,0,5.1,2.9h24.1a6,6,0,0,0,5.1-2.9l12-20.8a6,6,0,0,0,0-5.8l-12-20.8a5.84,5.84,0,0,0-5.1-2.9H411.1a6,6,0,0,0-5.1,2.9L394,56.4a6,6,0,0,0,0,5.8"/><path id="Fill-43" class="cls-3" d="M85.7,62.2,97.7,83a5.84,5.84,0,0,0,5.1,2.9h24.1A6,6,0,0,0,132,83l12-20.8a6,6,0,0,0,0-5.8L132,35.6a5.84,5.84,0,0,0-5.1-2.9H102.8a6,6,0,0,0-5.1,2.9l-12,20.8a5.51,5.51,0,0,0,0,5.8"/><path id="Fill-45" class="cls-3" d="M195.3,27.2l8.5,14.7a5.84,5.84,0,0,0,5.1,2.9h17a6,6,0,0,0,5.1-2.9l8.5-14.7a6,6,0,0,0,0-5.8L231,6.7a5.84,5.84,0,0,0-5.1-2.9h-17a6,6,0,0,0-5.1,2.9l-8.5,14.7a6,6,0,0,0,0,5.8"/><path id="Fill-47" class="cls-3" d="M297.2,27.2l8.5,14.7a5.84,5.84,0,0,0,5.1,2.9h17a6,6,0,0,0,5.1-2.9l8.5-14.7a6,6,0,0,0,0-5.8L332.9,6.7a5.84,5.84,0,0,0-5.1-2.9h-17a6,6,0,0,0-5.1,2.9l-8.5,14.7a5.51,5.51,0,0,0,0,5.8"/><path id="Fill-49" class="cls-3" d="M397.8,552.4l12,20.8a5.84,5.84,0,0,0,5.1,2.9H439a6,6,0,0,0,5.1-2.9l12-20.8a6,6,0,0,0,0-5.8l-12-20.8a5.84,5.84,0,0,0-5.1-2.9H414.9a6,6,0,0,0-5.1,2.9l-12,20.8a5.51,5.51,0,0,0,0,5.8"/><path id="Fill-51" class="cls-3" d="M158.3,521.9l5.7,9.9a5.84,5.84,0,0,0,5.1,2.9h11.4a6,6,0,0,0,5.1-2.9l5.7-9.9a6,6,0,0,0,0-5.8l-5.7-9.9a5.84,5.84,0,0,0-5.1-2.9H169.1a6,6,0,0,0-5.1,2.9l-5.7,9.9a5.51,5.51,0,0,0,0,5.8"/><path id="Fill-53" class="cls-3" d="M345.3,521.9l5.7,9.9a5.84,5.84,0,0,0,5.1,2.9h11.4a6,6,0,0,0,5.1-2.9l5.7-9.9a6,6,0,0,0,0-5.8l-5.7-9.9a5.84,5.84,0,0,0-5.1-2.9H356.1a6,6,0,0,0-5.1,2.9l-5.7,9.9a6,6,0,0,0,0,5.8"/><path id="Fill-55" class="cls-3" d="M202.9,497.2l4,6.9a2.44,2.44,0,0,0,2.1,1.2h8a2.57,2.57,0,0,0,2.1-1.2l4-6.9a2.55,2.55,0,0,0,0-2.4l-4-6.9a2.44,2.44,0,0,0-2.1-1.2h-8a2.57,2.57,0,0,0-2.1,1.2l-4,6.9a2.55,2.55,0,0,0,0,2.4"/><path id="Fill-57" class="cls-3" d="M313.5,497.2l4,6.9a2.44,2.44,0,0,0,2.1,1.2h8a2.57,2.57,0,0,0,2.1-1.2l4-6.9a2.55,2.55,0,0,0,0-2.4l-4-6.9a2.44,2.44,0,0,0-2.1-1.2h-8a2.57,2.57,0,0,0-2.1,1.2l-4,6.9a2.55,2.55,0,0,0,0,2.4"/><path id="Fill-59" class="cls-3" d="M242.9,590v21.7a6,6,0,0,0,2.9,5.1l18.8,10.8a6,6,0,0,0,5.8,0l18.8-10.8a5.84,5.84,0,0,0,2.9-5.1V590a6,6,0,0,0-2.9-5.1l-18.8-10.8a6,6,0,0,0-5.8,0l-18.8,10.8a5.84,5.84,0,0,0-2.9,5.1"/><path id="Fill-61" class="cls-3" d="M485.8,590v21.7a6,6,0,0,0,2.9,5.1l18.8,10.8a6,6,0,0,0,5.8,0l18.8-10.8a5.84,5.84,0,0,0,2.9-5.1V590a6,6,0,0,0-2.9-5.1l-18.8-10.8a6,6,0,0,0-5.8,0l-18.8,10.8a5.84,5.84,0,0,0-2.9,5.1"/><path id="Fill-63" class="cls-4" d="M277.4,113.1a8.6,8.6,0,1,1-8.6-8.6,8.47,8.47,0,0,1,8.6,8.6"/><path id="Stroke-65" class="cls-5" d="M277.4,113.1a8.6,8.6,0,1,1-8.6-8.6A8.47,8.47,0,0,1,277.4,113.1Z"/><path id="Fill-67" class="cls-4" d="M69.3,555.1a6.07,6.07,0,1,1-8.3-2.2,6.06,6.06,0,0,1,8.3,2.2"/><path id="Stroke-69" class="cls-5" d="M69.3,555.1a6.07,6.07,0,1,1-8.3-2.2A6.06,6.06,0,0,1,69.3,555.1Z"/><path id="Fill-71" class="cls-4" d="M84.6,582.4a6.07,6.07,0,1,1-8.3-2.2,6.15,6.15,0,0,1,8.3,2.2"/><path id="Stroke-73" class="cls-5" d="M84.6,582.4a6.07,6.07,0,1,1-8.3-2.2A6.15,6.15,0,0,1,84.6,582.4Z"/><path id="Fill-75" class="cls-4" d="M150.6,634.1a6.07,6.07,0,1,1-8.3-2.2,6.19,6.19,0,0,1,8.3,2.2"/><path id="Stroke-77" class="cls-5" d="M150.6,634.1a6.07,6.07,0,1,1-8.3-2.2A6.19,6.19,0,0,1,150.6,634.1Z"/><path id="Fill-79" class="cls-4" d="M166,661.5a6.07,6.07,0,1,1-8.3-2.2,6.06,6.06,0,0,1,8.3,2.2"/><path id="Stroke-81" class="cls-5" d="M166,661.5a6.07,6.07,0,1,1-8.3-2.2A6.06,6.06,0,0,1,166,661.5Z"/><path id="Fill-83" class="cls-4" d="M154.8,532.3a6.07,6.07,0,1,1-8.3-2.2,6.06,6.06,0,0,1,8.3,2.2"/><path id="Stroke-85" class="cls-5" d="M154.8,532.3a6.07,6.07,0,1,1-8.3-2.2A6.06,6.06,0,0,1,154.8,532.3Z"/><path id="Fill-87" class="cls-4" d="M170.1,559.6a6.07,6.07,0,1,1-8.3-2.2,6.06,6.06,0,0,1,8.3,2.2"/><path id="Stroke-89" class="cls-5" d="M170.1,559.6a6.07,6.07,0,1,1-8.3-2.2A6.06,6.06,0,0,1,170.1,559.6Z"/><path id="Fill-91" class="cls-4" d="M467.5,561.1a6.07,6.07,0,1,0,2.2-8.3,6.06,6.06,0,0,0-2.2,8.3"/><path id="Stroke-93" class="cls-5" d="M467.5,561.1a6.07,6.07,0,1,0,2.2-8.3A6.06,6.06,0,0,0,467.5,561.1Z"/><path id="Fill-95" class="cls-4" d="M452.1,588.5a6.07,6.07,0,1,0,2.2-8.3,6.24,6.24,0,0,0-2.2,8.3"/><path id="Stroke-97" class="cls-5" d="M452.1,588.5a6.07,6.07,0,1,0,2.2-8.3A6.24,6.24,0,0,0,452.1,588.5Z"/><path id="Fill-99" class="cls-4" d="M386.1,640.2a6.07,6.07,0,1,0,2.2-8.3,6.06,6.06,0,0,0-2.2,8.3"/><path id="Stroke-101" class="cls-5" d="M386.1,640.2a6.07,6.07,0,1,0,2.2-8.3A6.06,6.06,0,0,0,386.1,640.2Z"/><path id="Fill-103" class="cls-4" d="M370.8,667.5a6.07,6.07,0,1,0,2.2-8.3,6.06,6.06,0,0,0-2.2,8.3"/><path id="Stroke-105" class="cls-5" d="M370.8,667.5a6.07,6.07,0,1,0,2.2-8.3A6.06,6.06,0,0,0,370.8,667.5Z"/><path id="Fill-107" class="cls-4" d="M382,538.3a6.07,6.07,0,1,0,2.2-8.3,6.06,6.06,0,0,0-2.2,8.3"/><path id="Stroke-109" class="cls-5" d="M382,538.3a6.07,6.07,0,1,0,2.2-8.3A6.06,6.06,0,0,0,382,538.3Z"/><path id="Fill-111" class="cls-4" d="M366.6,565.7a6.07,6.07,0,1,0,2.2-8.3,6.24,6.24,0,0,0-2.2,8.3"/><path id="Stroke-113" class="cls-5" d="M366.6,565.7a6.07,6.07,0,1,0,2.2-8.3A6.24,6.24,0,0,0,366.6,565.7Z"/><path id="Fill-115" class="cls-4" d="M262.4,87.8a8.6,8.6,0,1,1-8.6-8.6,8.6,8.6,0,0,1,8.6,8.6"/><path id="Stroke-117" class="cls-5" d="M262.4,87.8a8.6,8.6,0,1,1-8.6-8.6A8.6,8.6,0,0,1,262.4,87.8Z"/><path id="Fill-119" class="cls-4" d="M292.5,87.8a8.6,8.6,0,1,1-8.6-8.6,8.6,8.6,0,0,1,8.6,8.6"/><path id="Stroke-121" class="cls-5" d="M292.5,87.8a8.6,8.6,0,1,1-8.6-8.6A8.6,8.6,0,0,1,292.5,87.8Z"/><path id="Fill-123" class="cls-4" d="M277.4,36.9a8.6,8.6,0,1,1-8.6-8.6,8.6,8.6,0,0,1,8.6,8.6"/><path id="Stroke-125" class="cls-5" d="M277.4,36.9a8.6,8.6,0,1,1-8.6-8.6A8.6,8.6,0,0,1,277.4,36.9Z"/><path id="Fill-127" class="cls-4" d="M262.4,11.7A8.6,8.6,0,1,1,253.7,3a8.77,8.77,0,0,1,8.7,8.7"/><path id="Stroke-129" class="cls-5" d="M262.4,11.7A8.6,8.6,0,1,1,253.7,3,8.77,8.77,0,0,1,262.4,11.7Z"/><path id="Fill-131" class="cls-4" d="M292.5,11.7a8.6,8.6,0,1,1-8.6-8.6,8.6,8.6,0,0,1,8.6,8.6"/><path id="Stroke-133" class="cls-5" d="M292.5,11.7a8.6,8.6,0,1,1-8.6-8.6A8.6,8.6,0,0,1,292.5,11.7Z"/><polygon id="Stroke-135" class="cls-2" points="323.6 265.6 215.4 265.6 151.7 224.4 227.6 189.4 309 189.4 386.2 224.4 323.6 265.6"/></svg>