<svg xmlns="http://www.w3.org/2000/svg" viewBox="0 0 535 676.2">
  <defs>
    <style>
      .cls-1, .cls-3, .cls-4, .cls-5, .cls-6 {
        fill: none;
      }

      .cls-1, .cls-3 {
        stroke: #273be2;
      }

      .cls-2 {
        fill: #fff;
      }

      .cls-3 {
        stroke-width: 6px;
      }

      .cls-4 {
        stroke: #ffffff;
        stroke-dasharray: 8;
        animation: dash 25s linear infinite;
        stroke-width: 4px;
      }

      @keyframes dash {
        to {
          stroke-dashoffset: 1000;
        }
      }

      .cls-5, .cls-6 {
        stroke-width: 2px;
      }

      .cls-5 {
        stroke: #ff1071;
        stroke-dasharray: 10;
        animation: dash 35s linear infinite;
      }

      .cls-6 {
        stroke: #57f400;
        stroke-dasharray: 10;
        animation: dash 35s linear infinite;
      }

      .cls-7 {
        fill: #92ffeb;
      }

      .cls-8 {
        fill: #fffeb1;
      }
    </style>
  </defs>
  <title>scheme_an</title>
  <g id="Layer_1" data-name="Layer 1">
    <polyline id="Stroke-1" class="cls-1" points="113 60.1 225.6 25.2 307 25.2 421 61.2"/>
    <polygon id="Stroke-2" class="cls-1" points="213.5 266.2 147.7 225.1 113 60.2 213.5 101.3 319.1 101.3 421 61.3 384.1 225.1 321.5 266.2 213.5 266.2"/>
    <polygon id="Stroke-3" class="cls-1" points="151 225.2 386 225.2 308.6 190.2 227 190.2 151 225.2"/>
    <polygon id="Stroke-4" class="cls-1" points="219.5 559.2 174 520 214.6 497 322.8 497 361 520 318.8 550.5 283.4 425.2 322.8 266.2 214.6 266.2 250.2 425.2 219.5 559.2"/>
    <polyline id="Stroke-5" class="cls-1" points="386 225.2 324 424.7 361.5 519.2"/>
    <polyline id="Stroke-6" class="cls-1" points="173.5 519.2 211 424.7 149 225.2"/>
    <polyline id="Stroke-7" class="cls-1" points="23 602.2 265.7 602.2 506 602.2"/>
    <polyline id="Stroke-8" class="cls-1" points="208.8 652.2 93.4 652.2 23 601.8 108 550.2 211.2 550.2 265.7 601.8 317.8 550.2 421 550.2 506 601.8 435.6 652.2 320.2 652.2"/>
    <path id="Fill-63" class="cls-2" d="M277.4,113.1a8.6,8.6,0,1,1-8.6-8.6,8.47,8.47,0,0,1,8.6,8.6" transform="translate(-1 0.2)"/>
    <path id="Stroke-65" class="cls-3" d="M277.4,113.1a8.6,8.6,0,1,1-8.6-8.6A8.47,8.47,0,0,1,277.4,113.1Z" transform="translate(-1 0.2)"/>
    <path id="Fill-67" class="cls-2" d="M69.3,555.1a6.07,6.07,0,1,1-8.3-2.2,6.06,6.06,0,0,1,8.3,2.2" transform="translate(-1 0.2)"/>
    <path id="Stroke-69" class="cls-3" d="M69.3,555.1a6.07,6.07,0,1,1-8.3-2.2A6.06,6.06,0,0,1,69.3,555.1Z" transform="translate(-1 0.2)"/>
    <path id="Fill-71" class="cls-2" d="M84.6,582.4a6.07,6.07,0,1,1-8.3-2.2,6.15,6.15,0,0,1,8.3,2.2" transform="translate(-1 0.2)"/>
    <path id="Stroke-73" class="cls-3" d="M84.6,582.4a6.07,6.07,0,1,1-8.3-2.2A6.15,6.15,0,0,1,84.6,582.4Z" transform="translate(-1 0.2)"/>
    <path id="Fill-75" class="cls-2" d="M150.6,634.1a6.07,6.07,0,1,1-8.3-2.2,6.19,6.19,0,0,1,8.3,2.2" transform="translate(-1 0.2)"/>
    <path id="Stroke-77" class="cls-3" d="M150.6,634.1a6.07,6.07,0,1,1-8.3-2.2A6.19,6.19,0,0,1,150.6,634.1Z" transform="translate(-1 0.2)"/>
    <path id="Fill-79" class="cls-2" d="M166,661.5a6.07,6.07,0,1,1-8.3-2.2,6.06,6.06,0,0,1,8.3,2.2" transform="translate(-1 0.2)"/>
    <path id="Stroke-81" class="cls-3" d="M166,661.5a6.07,6.07,0,1,1-8.3-2.2A6.06,6.06,0,0,1,166,661.5Z" transform="translate(-1 0.2)"/>
    <path id="Fill-83" class="cls-2" d="M154.8,532.3a6.07,6.07,0,1,1-8.3-2.2,6.06,6.06,0,0,1,8.3,2.2" transform="translate(-1 0.2)"/>
    <path id="Stroke-85" class="cls-3" d="M154.8,532.3a6.07,6.07,0,1,1-8.3-2.2A6.06,6.06,0,0,1,154.8,532.3Z" transform="translate(-1 0.2)"/>
    <path id="Fill-87" class="cls-2" d="M170.1,559.6a6.07,6.07,0,1,1-8.3-2.2,6.06,6.06,0,0,1,8.3,2.2" transform="translate(-1 0.2)"/>
    <path id="Stroke-89" class="cls-3" d="M170.1,559.6a6.07,6.07,0,1,1-8.3-2.2A6.06,6.06,0,0,1,170.1,559.6Z" transform="translate(-1 0.2)"/>
    <path id="Fill-91" class="cls-2" d="M467.5,561.1a6.07,6.07,0,1,0,2.2-8.3,6.06,6.06,0,0,0-2.2,8.3" transform="translate(-1 0.2)"/>
    <path id="Stroke-93" class="cls-3" d="M467.5,561.1a6.07,6.07,0,1,0,2.2-8.3A6.06,6.06,0,0,0,467.5,561.1Z" transform="translate(-1 0.2)"/>
    <path id="Fill-95" class="cls-2" d="M452.1,588.5a6.07,6.07,0,1,0,2.2-8.3,6.24,6.24,0,0,0-2.2,8.3" transform="translate(-1 0.2)"/>
    <path id="Stroke-97" class="cls-3" d="M452.1,588.5a6.07,6.07,0,1,0,2.2-8.3A6.24,6.24,0,0,0,452.1,588.5Z" transform="translate(-1 0.2)"/>
    <path id="Fill-99" class="cls-2" d="M386.1,640.2a6.07,6.07,0,1,0,2.2-8.3,6.06,6.06,0,0,0-2.2,8.3" transform="translate(-1 0.2)"/>
    <path id="Stroke-101" class="cls-3" d="M386.1,640.2a6.07,6.07,0,1,0,2.2-8.3A6.06,6.06,0,0,0,386.1,640.2Z" transform="translate(-1 0.2)"/>
    <path id="Fill-103" class="cls-2" d="M370.8,667.5a6.07,6.07,0,1,0,2.2-8.3,6.06,6.06,0,0,0-2.2,8.3" transform="translate(-1 0.2)"/>
    <path id="Stroke-105" class="cls-3" d="M370.8,667.5a6.07,6.07,0,1,0,2.2-8.3A6.06,6.06,0,0,0,370.8,667.5Z" transform="translate(-1 0.2)"/>
    <path id="Fill-107" class="cls-2" d="M382,538.3a6.07,6.07,0,1,0,2.2-8.3,6.06,6.06,0,0,0-2.2,8.3" transform="translate(-1 0.2)"/>
    <path id="Stroke-109" class="cls-3" d="M382,538.3a6.07,6.07,0,1,0,2.2-8.3A6.06,6.06,0,0,0,382,538.3Z" transform="translate(-1 0.2)"/>
    <path id="Fill-111" class="cls-2" d="M366.6,565.7a6.07,6.07,0,1,0,2.2-8.3,6.24,6.24,0,0,0-2.2,8.3" transform="translate(-1 0.2)"/>
    <path id="Stroke-113" class="cls-3" d="M366.6,565.7a6.07,6.07,0,1,0,2.2-8.3A6.24,6.24,0,0,0,366.6,565.7Z" transform="translate(-1 0.2)"/>
    <path id="Fill-115" class="cls-2" d="M262.4,87.8a8.6,8.6,0,1,1-8.6-8.6,8.6,8.6,0,0,1,8.6,8.6" transform="translate(-1 0.2)"/>
    <path id="Stroke-117" class="cls-3" d="M262.4,87.8a8.6,8.6,0,1,1-8.6-8.6A8.6,8.6,0,0,1,262.4,87.8Z" transform="translate(-1 0.2)"/>
    <path id="Fill-119" class="cls-2" d="M292.5,87.8a8.6,8.6,0,1,1-8.6-8.6,8.6,8.6,0,0,1,8.6,8.6" transform="translate(-1 0.2)"/>
    <path id="Stroke-121" class="cls-3" d="M292.5,87.8a8.6,8.6,0,1,1-8.6-8.6A8.6,8.6,0,0,1,292.5,87.8Z" transform="translate(-1 0.2)"/>
    <path id="Fill-123" class="cls-2" d="M277.4,36.9a8.6,8.6,0,1,1-8.6-8.6,8.6,8.6,0,0,1,8.6,8.6" transform="translate(-1 0.2)"/>
    <path id="Stroke-125" class="cls-3" d="M277.4,36.9a8.6,8.6,0,1,1-8.6-8.6A8.6,8.6,0,0,1,277.4,36.9Z" transform="translate(-1 0.2)"/>
    <path id="Fill-127" class="cls-2" d="M262.4,11.7A8.6,8.6,0,1,1,253.7,3a8.77,8.77,0,0,1,8.7,8.7" transform="translate(-1 0.2)"/>
    <path id="Stroke-129" class="cls-3" d="M262.4,11.7A8.6,8.6,0,1,1,253.7,3,8.77,8.77,0,0,1,262.4,11.7Z" transform="translate(-1 0.2)"/>
    <path id="Fill-131" class="cls-2" d="M292.5,11.7a8.6,8.6,0,1,1-8.6-8.6,8.6,8.6,0,0,1,8.6,8.6" transform="translate(-1 0.2)"/>
    <path id="Stroke-133" class="cls-3" d="M292.5,11.7a8.6,8.6,0,1,1-8.6-8.6A8.6,8.6,0,0,1,292.5,11.7Z" transform="translate(-1 0.2)"/>
    <polygon id="Stroke-135" class="cls-1" points="322.6 265.8 214.4 265.8 150.7 224.6 226.6 189.6 308 189.6 385.2 224.6 322.6 265.8"/>
  </g>
  <g id="Layer_4" data-name="Layer 4">
    <polyline class="cls-4" points="30.82 597.05 108 550.2 211.5 550.2 173.76 523.1 212 498.47 322.8 498.47 358.85 518.71 319.91 549.7 425.91 550.2 505.01 601.2"/>
  </g>
  <g id="Layer_2" data-name="Layer 2">
    <polyline class="cls-5" points="201.6 651.05 97 652.2 20.33 602.2 265.7 602.2 317.8 550.2 283.4 425.2 322.6 265.8 214.6 266.2 149 225.2 384.1 225.1 421 59.5 312.43 26.91 267 25.2"/>
    <polyline class="cls-6" points="332.73 651.05 437.33 652.2 506 602.2 265.7 602.2 217.59 556.25 250.93 425.2 213.5 266.2 319.73 266.2 385.33 225.2 147.7 225.1 113.33 59.5 221.9 26.91 267.33 25.2"/>
  </g>
  <g id="Layer_5" data-name="Layer 5">
    <g>
      <path id="Fill-19" class="cls-7" d="M80.5,550.4l12,20.8a5.84,5.84,0,0,0,5.1,2.9h24.1a6,6,0,0,0,5.1-2.9l12-20.8a6,6,0,0,0,0-5.8l-12-20.8a5.84,5.84,0,0,0-5.1-2.9H97.6a6,6,0,0,0-5.1,2.9l-12,20.8a6,6,0,0,0,0,5.8" transform="translate(-1 0.2)"/>
      <path id="Fill-33" class="cls-7" d="M205.5,190.3,214,205a5.84,5.84,0,0,0,5.1,2.9h17a6,6,0,0,0,5.1-2.9l8.5-14.7a6,6,0,0,0,0-5.8l-8.5-14.7a5.84,5.84,0,0,0-5.1-2.9h-17a6,6,0,0,0-5.1,2.9l-8.5,14.7a6,6,0,0,0,0,5.8" transform="translate(-1 0.2)"/>
      <path id="Fill-35" class="cls-7" d="M287,190.3l8.5,14.7a5.84,5.84,0,0,0,5.1,2.9h17a6,6,0,0,0,5.1-2.9l8.5-14.7a6,6,0,0,0,0-5.8l-8.5-14.7a5.84,5.84,0,0,0-5.1-2.9h-17a6,6,0,0,0-5.1,2.9L287,184.5a5.51,5.51,0,0,0,0,5.8" transform="translate(-1 0.2)"/>
      <path id="Fill-37" class="cls-7" d="M171,101.4l12,20.8a5.84,5.84,0,0,0,5.1,2.9h24.1a6,6,0,0,0,5.1-2.9l12-20.8a6,6,0,0,0,0-5.8l-12-20.8a5.84,5.84,0,0,0-5.1-2.9H188.1a6,6,0,0,0-5.1,2.9L171,95.6a5.51,5.51,0,0,0,0,5.8" transform="translate(-1 0.2)"/>
      <path id="Fill-39" class="cls-7" d="M307.3,101.4l12,20.8a5.84,5.84,0,0,0,5.1,2.9h24.1a6,6,0,0,0,5.1-2.9l12-20.8a6,6,0,0,0,0-5.8l-12-20.8a5.84,5.84,0,0,0-5.1-2.9H324.4a6,6,0,0,0-5.1,2.9l-12,20.8a6,6,0,0,0,0,5.8" transform="translate(-1 0.2)"/>
      <path id="Fill-49" class="cls-7" d="M397.8,550.4l12,20.8a5.84,5.84,0,0,0,5.1,2.9H439a6,6,0,0,0,5.1-2.9l12-20.8a6,6,0,0,0,0-5.8l-12-20.8a5.84,5.84,0,0,0-5.1-2.9H414.9a6,6,0,0,0-5.1,2.9l-12,20.8a5.51,5.51,0,0,0,0,5.8" transform="translate(-1 0.2)"/>
      <path id="Fill-51" class="cls-7" d="M158.3,519.9l5.7,9.9a5.84,5.84,0,0,0,5.1,2.9h11.4a6,6,0,0,0,5.1-2.9l5.7-9.9a6,6,0,0,0,0-5.8l-5.7-9.9a5.84,5.84,0,0,0-5.1-2.9H169.1a6,6,0,0,0-5.1,2.9l-5.7,9.9a5.51,5.51,0,0,0,0,5.8" transform="translate(-1 0.2)"/>
      <path id="Fill-53" class="cls-7" d="M345.3,519.9l5.7,9.9a5.84,5.84,0,0,0,5.1,2.9h11.4a6,6,0,0,0,5.1-2.9l5.7-9.9a6,6,0,0,0,0-5.8l-5.7-9.9a5.84,5.84,0,0,0-5.1-2.9H356.1a6,6,0,0,0-5.1,2.9l-5.7,9.9a6,6,0,0,0,0,5.8" transform="translate(-1 0.2)"/>
      <path id="Fill-55" class="cls-7" d="M202.9,495.2l4,6.9a2.44,2.44,0,0,0,2.1,1.2h8a2.57,2.57,0,0,0,2.1-1.2l4-6.9a2.55,2.55,0,0,0,0-2.4l-4-6.9a2.44,2.44,0,0,0-2.1-1.2h-8a2.57,2.57,0,0,0-2.1,1.2l-4,6.9a2.55,2.55,0,0,0,0,2.4" transform="translate(-1 0.2)"/>
      <path id="Fill-57" class="cls-7" d="M313.5,495.2l4,6.9a2.44,2.44,0,0,0,2.1,1.2h8a2.57,2.57,0,0,0,2.1-1.2l4-6.9a2.55,2.55,0,0,0,0-2.4l-4-6.9a2.44,2.44,0,0,0-2.1-1.2h-8a2.57,2.57,0,0,0-2.1,1.2l-4,6.9a2.55,2.55,0,0,0,0,2.4" transform="translate(-1 0.2)"/>
    </g>
  </g>
  <g id="Layer_3" data-name="Layer 3">
    <g>
      <path id="Fill-9" class="cls-8" d="M1,586v21.7a6,6,0,0,0,2.9,5.1l18.8,10.8a6,6,0,0,0,5.8,0l18.8-10.8a5.84,5.84,0,0,0,2.9-5.1V586a6,6,0,0,0-2.9-5.1L28.5,570.1a6,6,0,0,0-5.8,0L3.9,580.9A5.84,5.84,0,0,0,1,586" transform="translate(-1 0.2)"/>
      <path id="Fill-11" class="cls-8" d="M64.1,649.8l13.5,23.3a5.84,5.84,0,0,0,5.1,2.9h26.9a6,6,0,0,0,5.1-2.9l13.5-23.3a6,6,0,0,0,0-5.8l-13.5-23.3a5.84,5.84,0,0,0-5.1-2.9h-27a6,6,0,0,0-5.1,2.9L64,644a6.26,6.26,0,0,0,.1,5.8" transform="translate(-1 0.2)"/>
      <path id="Fill-13" class="cls-8" d="M179.6,649.8l13.5,23.3a5.84,5.84,0,0,0,5.1,2.9H225a6,6,0,0,0,5.1-2.9l13.5-23.3a6,6,0,0,0,0-5.8l-13.5-23.3a5.84,5.84,0,0,0-5.1-2.9H198.1a6,6,0,0,0-5.1,2.9L179.5,644a5.74,5.74,0,0,0,.1,5.8" transform="translate(-1 0.2)"/>
      <path id="Fill-15" class="cls-8" d="M295,649.8l13.5,23.3a5.84,5.84,0,0,0,5.1,2.9h26.9a6,6,0,0,0,5.1-2.9l13.5-23.3a6,6,0,0,0,0-5.8l-13.5-23.3a5.84,5.84,0,0,0-5.1-2.9H313.6a6,6,0,0,0-5.1,2.9L295,643.9a6.18,6.18,0,0,0,0,5.9" transform="translate(-1 0.2)"/>
      <path id="Fill-17" class="cls-8" d="M410.5,649.8,424,673.1a5.84,5.84,0,0,0,5.1,2.9H456a6,6,0,0,0,5.1-2.9l13.5-23.3a6,6,0,0,0,0-5.8L461,620.6a5.84,5.84,0,0,0-5.1-2.9H429a6,6,0,0,0-5.1,2.9l-13.5,23.3a6.47,6.47,0,0,0,.1,5.9" transform="translate(-1 0.2)"/>
      <path id="Fill-21" class="cls-8" d="M187.3,548.4l12,20.8a5.84,5.84,0,0,0,5.1,2.9h24.1a6,6,0,0,0,5.1-2.9l12-20.8a6,6,0,0,0,0-5.8l-12-20.8a5.84,5.84,0,0,0-5.1-2.9H204.4a6,6,0,0,0-5.1,2.9l-12,20.8a5.51,5.51,0,0,0,0,5.8" transform="translate(-1 0.2)"/>
      <path id="Fill-23" class="cls-8" d="M293,548.4l12,20.8a5.84,5.84,0,0,0,5.1,2.9h24.1a6,6,0,0,0,5.1-2.9l12-20.8a6,6,0,0,0,0-5.8l-12-20.8a5.84,5.84,0,0,0-5.1-2.9H310.1a6,6,0,0,0-5.1,2.9l-12,20.8a6,6,0,0,0,0,5.8" transform="translate(-1 0.2)"/>
      <path id="Fill-25" class="cls-8" d="M187.3,264.5l12,20.8a5.84,5.84,0,0,0,5.1,2.9h24.1a6,6,0,0,0,5.1-2.9l12-20.8a6,6,0,0,0,0-5.8l-12-20.8a5.84,5.84,0,0,0-5.1-2.9H204.4a6,6,0,0,0-5.1,2.9l-12,20.8a5.51,5.51,0,0,0,0,5.8" transform="translate(-1 0.2)"/>
      <path id="Fill-27" class="cls-8" d="M293,264.5l12,20.8a5.84,5.84,0,0,0,5.1,2.9h24.1a6,6,0,0,0,5.1-2.9l12-20.8a6,6,0,0,0,0-5.8l-12-20.8a5.84,5.84,0,0,0-5.1-2.9H310.1a6,6,0,0,0-5.1,2.9l-12,20.8a6,6,0,0,0,0,5.8" transform="translate(-1 0.2)"/>
      <path id="Fill-29" class="cls-8" d="M359.3,223.3l12,20.8a5.84,5.84,0,0,0,5.1,2.9h24.1a6,6,0,0,0,5.1-2.9l12-20.8a6,6,0,0,0,0-5.8l-12-20.8a5.84,5.84,0,0,0-5.1-2.9H376.4a6,6,0,0,0-5.1,2.9l-12,20.8a5.51,5.51,0,0,0,0,5.8" transform="translate(-1 0.2)"/>
      <path id="Fill-31" class="cls-8" d="M122.4,223.3l12,20.8a5.84,5.84,0,0,0,5.1,2.9h24.1a6,6,0,0,0,5.1-2.9l12-20.8a6,6,0,0,0,0-5.8l-12-20.8a5.84,5.84,0,0,0-5.1-2.9H139.5a6,6,0,0,0-5.1,2.9l-12,20.8a6,6,0,0,0,0,5.8" transform="translate(-1 0.2)"/>
      <path id="Fill-41" class="cls-8" d="M395,58.2,407,79a5.84,5.84,0,0,0,5.1,2.9h24.1a6,6,0,0,0,5.1-2.9l12-20.8a6,6,0,0,0,0-5.8l-12-20.8a5.84,5.84,0,0,0-5.1-2.9H412.1a6,6,0,0,0-5.1,2.9L395,52.4a6,6,0,0,0,0,5.8" transform="translate(-1 0.2)"/>
      <path id="Fill-43" class="cls-8" d="M86.7,58.2,98.7,79a5.84,5.84,0,0,0,5.1,2.9h24.1A6,6,0,0,0,133,79l12-20.8a6,6,0,0,0,0-5.8L133,31.6a5.84,5.84,0,0,0-5.1-2.9H103.8a6,6,0,0,0-5.1,2.9l-12,20.8a5.51,5.51,0,0,0,0,5.8" transform="translate(-1 0.2)"/>
      <path id="Fill-45" class="cls-8" d="M196.3,23.2l8.5,14.7a5.84,5.84,0,0,0,5.1,2.9h17a6,6,0,0,0,5.1-2.9l8.5-14.7a6,6,0,0,0,0-5.8L232,2.7a5.84,5.84,0,0,0-5.1-2.9h-17a6,6,0,0,0-5.1,2.9l-8.5,14.7a6,6,0,0,0,0,5.8" transform="translate(-1 0.2)"/>
      <path id="Fill-47" class="cls-8" d="M298.2,23.2l8.5,14.7a5.84,5.84,0,0,0,5.1,2.9h17a6,6,0,0,0,5.1-2.9l8.5-14.7a6,6,0,0,0,0-5.8L333.9,2.7a5.84,5.84,0,0,0-5.1-2.9h-17a6,6,0,0,0-5.1,2.9l-8.5,14.7a5.51,5.51,0,0,0,0,5.8" transform="translate(-1 0.2)"/>
      <path id="Fill-59" class="cls-8" d="M243.9,586v21.7a6,6,0,0,0,2.9,5.1l18.8,10.8a6,6,0,0,0,5.8,0l18.8-10.8a5.84,5.84,0,0,0,2.9-5.1V586a6,6,0,0,0-2.9-5.1l-18.8-10.8a6,6,0,0,0-5.8,0l-18.8,10.8a5.84,5.84,0,0,0-2.9,5.1" transform="translate(-1 0.2)"/>
      <path id="Fill-61" class="cls-8" d="M486.8,586v21.7a6,6,0,0,0,2.9,5.1l18.8,10.8a6,6,0,0,0,5.8,0l18.8-10.8a5.84,5.84,0,0,0,2.9-5.1V586a6,6,0,0,0-2.9-5.1l-18.8-10.8a6,6,0,0,0-5.8,0l-18.8,10.8a5.84,5.84,0,0,0-2.9,5.1" transform="translate(-1 0.2)"/>
    </g>
  </g>
</svg>
