<?xml version="1.0" encoding="utf-8"?>
<!-- Generator: Adobe Illustrator 21.0.0, SVG Export Plug-In . SVG Version: 6.00 Build 0)  -->
<svg version="1.1" id="Layer_1" xmlns="http://www.w3.org/2000/svg" xmlns:xlink="http://www.w3.org/1999/xlink" x="0px" y="0px"
	 viewBox="0 0 352.7 506.6" style="enable-background:new 0 0 352.7 506.6;" xml:space="preserve">
<style type="text/css">
	.st0{fill:#5252E3;}
</style>
<title>SDnetwork</title>
<g id="Layer_2">
	<g id="Layer_1-2">
		<g id="Layer_2-2">
			<g id="Layer_1-2-2">
				<path class="st0" d="M161.4,358.2l-68,39.3c-5.2,3-11.6,3-16.8,0L8.4,358.2c-5.2-3-8.4-8.5-8.4-14.5v-78.7
					c0-6,3.2-11.5,8.4-14.5l68.1-39.3c5.2-3,11.6-3,16.8,0l68.1,39.3c5.2,3,8.4,8.6,8.4,14.6v78.7
					C169.8,349.7,166.6,355.2,161.4,358.2z"/>
			</g>
		</g>
		<path class="st0" d="M345.3,362.1l-158.4,91.4c-2.2,1.3-2.9,4.1-1.7,6.3c0.4,0.7,1,1.3,1.7,1.7l75.7,43.7c3.3,1.9,7.3,1.9,10.6,0
			l66.3-38.5c7.9-4.6,12.8-13.1,12.8-22.2l-0.1-78.4c0-2.5-2-4.6-4.6-4.6C346.8,361.5,346,361.7,345.3,362.1z"/>
		<path class="st0" d="M264.9,108v182.9c0,2.5,2,4.6,4.6,4.6c0.8,0,1.6-0.2,2.3-0.6l75.7-43.7c3.3-1.9,5.3-5.3,5.3-9.1l-0.2-76.7
			c0-9.2-4.9-17.6-12.8-22.2L271.7,104c-2.2-1.3-5-0.5-6.3,1.7C265.1,106.4,264.8,107.2,264.9,108z"/>
		<path class="st0" d="M4.6,50.6L163,142.1c2.2,1.3,5,0.5,6.3-1.7c0.4-0.7,0.6-1.5,0.6-2.3V50.7c0-3.8-2-7.3-5.2-9.2L98.1,3.4
			c-7.9-4.6-17.7-4.6-25.7,0L4.6,42.7c-2.2,1.3-2.9,4.1-1.7,6.3c0,0,0,0,0,0C3.3,49.6,3.9,50.2,4.6,50.6z"/>
	</g>
</g>
</svg>
