<?xml version="1.0" encoding="utf-8"?>
<!-- Generator: Adobe Illustrator 21.0.0, SVG Export Plug-In . SVG Version: 6.00 Build 0)  -->
<svg version="1.1" xmlns="http://www.w3.org/2000/svg" xmlns:xlink="http://www.w3.org/1999/xlink" x="0px" y="0px"
	 viewBox="0 0 50 50" style="enable-background:new 0 0 50 50;" xml:space="preserve">
<style type="text/css">
	.st0{display:none;}
	.st1{display:inline;}
	.st2{fill:none;stroke:#273BE2;stroke-width:2;}
	.st3{fill:#273BE2;}
	.st4{fill:none;stroke:#273BE2;}
	.st5{fill:none;stroke:#273BE2;stroke-width:3;}
	.st6{fill:#F8F8F8;stroke:#273BE2;}
	.st7{fill:none;stroke:#273BE2;stroke-width:4;}
</style>
<g id="Layer_1" class="st0">
	<g class="st1">
		<path id="Stroke-1" class="st2" d="M45.5,12.8L26,1.5c-0.3-0.2-0.7-0.2-1,0L5.5,12.8C5.2,13,5,13.3,5,13.7v22.6
			c0,0.4,0.2,0.7,0.5,0.9L25,48.5c0.3,0.2,0.7,0.2,1,0l19.5-11.3c0.3-0.2,0.5-0.5,0.5-0.9V13.7C46,13.3,45.8,13,45.5,12.8z"/>
		<path id="Stroke-3" class="st3" d="M40.8,23.9l-6.4-3.7c-0.3-0.2-0.8-0.2-1.1,0l-6.4,3.7c-0.3,0.2-0.6,0.6-0.6,1v7.4
			c0,0.4,0.2,0.8,0.6,1l6.4,3.7c0.3,0.2,0.8,0.2,1.1,0l6.4-3.7c0.3-0.2,0.6-0.6,0.6-1v-7.4C41.3,24.4,41.1,24.1,40.8,23.9z"/>
		<path id="Stroke-5" class="st4" d="M20.2,16l-4.5-2.5c-0.2-0.1-0.5-0.1-0.7,0L10.5,16c-0.2,0.1-0.4,0.3-0.4,0.6v5
			c0,0.2,0.1,0.5,0.4,0.6l4.5,2.5c0.2,0.1,0.5,0.1,0.7,0l4.5-2.5c0.2-0.1,0.4-0.3,0.4-0.6v-5C20.5,16.4,20.4,16.1,20.2,16z"/>
		<path id="Stroke-7" class="st4" d="M20.2,22.1l-4.5,2.6c-0.2,0.1-0.5,0.1-0.7,0l-4.5-2.6c-0.1,0-0.1-0.1-0.2-0.2
			c-0.1,0.1-0.2,0.3-0.2,0.5v5.2c0,0.3,0.1,0.5,0.4,0.6l4.5,2.6c0.2,0.1,0.5,0.1,0.7,0l4.5-2.6c0.2-0.1,0.4-0.4,0.4-0.6v-5.2
			c0-0.2-0.1-0.3-0.2-0.5C20.3,22,20.3,22,20.2,22.1z"/>
		<path id="Stroke-9" class="st4" d="M20.2,28.2l-4.5,2.6c-0.2,0.1-0.5,0.1-0.7,0l-4.5-2.6c-0.1,0-0.1-0.1-0.2-0.2
			c-0.1,0.1-0.2,0.3-0.2,0.5v5.2c0,0.3,0.1,0.5,0.4,0.6L15,37c0.2,0.1,0.5,0.1,0.7,0l4.5-2.6c0.2-0.1,0.4-0.4,0.4-0.6v-5.2
			c0-0.2-0.1-0.3-0.2-0.5C20.3,28.1,20.3,28.2,20.2,28.2z"/>
	</g>
</g>
<g id="Layer_2_1_" class="st0">
	<g id="Page-1_1_" class="st1">
		<g id="Group-14" transform="translate(2.000000, 2.000000)">
			<g id="Group-14-Copy">
				<polygon id="Stroke-4" class="st5" points="22.8,26 14.4,30.9 14.4,40.6 22.8,45.5 31.3,40.6 31.3,30.9 				"/>
				<polygon id="Stroke-6" class="st5" points="20,21.1 20,11.4 11.6,6.5 3.1,11.4 3.1,21.1 11.6,26 				"/>
				<polygon id="Stroke-8" class="st5" points="20,24.4 11.6,19.5 3.1,24.4 3.1,34.1 11.6,39 20,34.1 				"/>
				<polygon id="Stroke-10" class="st5" points="25.7,24.4 25.7,34.1 34.1,39 42.6,34.1 42.6,24.4 34.1,19.5 				"/>
				<polygon id="Stroke-12" class="st5" points="25.7,21.1 34.1,26 42.6,21.1 42.6,11.4 34.1,6.5 25.7,11.4 				"/>
				<polygon id="Stroke-1_1_" class="st5" points="22.9,19.7 31.4,14.8 31.4,5.1 22.9,0.2 14.4,5.1 14.4,14.8 				"/>
			</g>
			<g id="Group-15-Copy-2" transform="translate(8.115942, 9.275362)">
				<polygon id="Fill-3_2_" class="st6" points="14.7,26.9 26.3,20.3 26.3,7 14.7,0.4 3.2,7 3.2,20.3 				"/>
				<polygon id="Fill-3_1_" class="st3" points="14.7,19.3 19.6,16.5 19.6,10.8 14.7,8 9.8,10.8 9.8,16.5 				"/>
			</g>
		</g>
	</g>
</g>
<g id="Layer_3" class="st0">
	<g id="Page-1" class="st1">
		<g id="Group-9-Copy" transform="translate(2.000000, 2.000000)">
			<path id="Fill-1" class="st3" d="M23.5,11c-0.2,0-0.5,0.1-0.7,0.2L19.7,13c-0.4,0.2-0.7,0.7-0.7,1.2v3.7c0,0.5,0.3,0.9,0.7,1.2
				l3.2,1.9c0.2,0.1,0.4,0.2,0.7,0.2s0.5-0.1,0.7-0.2l3.2-1.9c0.4-0.2,0.7-0.7,0.7-1.2v-3.7c0-0.5-0.3-0.9-0.7-1.2l-3.2-1.9
				C24,11.1,23.7,11,23.5,11 M23.5,11.8c0.1,0,0.2,0,0.3,0.1l3.2,1.9c0.2,0.1,0.3,0.3,0.3,0.5v3.7c0,0.2-0.1,0.4-0.3,0.5l-3.2,1.9
				c-0.1,0-0.2,0.1-0.3,0.1s-0.2,0-0.3-0.1L20,18.4c-0.2-0.1-0.3-0.3-0.3-0.5v-3.7c0-0.2,0.1-0.4,0.3-0.5l3.2-1.9
				C23.3,11.8,23.4,11.8,23.5,11.8"/>
			<path id="Fill-3" class="st3" d="M27.2,23h-8.4c-0.5,0-0.9,0.3-1.2,0.7l-3.4,6.2c-0.5,0.9,0.1,2.1,1.2,2.1h15.3
				c1,0,1.7-1.2,1.2-2.1l-3.4-6.2C28.1,23.3,27.7,23,27.2,23"/>
			<path id="Stroke-5_1_" class="st5" d="M30,41l11.7-6.9c0.4-0.2,0.7-0.7,0.7-1.2V13.1c0-0.5-0.2-0.9-0.7-1.2L30,5"/>
			<path id="Stroke-7_1_" class="st5" d="M15.4,41L3.7,34.1C3.2,33.9,3,33.4,3,32.9V13.1c0-0.5,0.2-0.9,0.7-1.2L15.4,5"/>
		</g>
	</g>
</g>
<g id="Layer_4" class="st0">
	<g id="Page-1_2_" class="st1">
		<g id="Group-8">
			<path id="Fill-1_1_" class="st3" d="M25.2,14.2L16,19.6v10.8l9.2,5.4l9.2-5.4V19.6L25.2,14.2z M25.2,16.3l7.4,4.4v8.7l-7.4,4.4
				l-7.4-4.4v-8.7L25.2,16.3z"/>
			<path id="Fill-2" class="st3" d="M25.7,5.5l-17.3,10v20l17.3,10l17.3-10v-20L25.7,5.5z M25.7,6l16.9,9.7v19.5L25.7,45L8.8,35.3
				V15.8L25.7,6z"/>
			<polygon id="Fill-3_3_" class="st3" points="3,22.3 3,27.7 7.9,30.4 12.7,27.7 12.7,22.3 7.9,19.6 			"/>
			<polygon id="Fill-4" class="st3" points="30,27.7 30,22.3 25.2,19.6 20.3,22.3 20.3,27.7 25.2,30.4 			"/>
			<polygon id="Fill-5" class="st3" points="37.6,22.3 37.6,27.7 42.5,30.4 47.3,27.7 47.3,22.3 42.5,19.6 			"/>
			<polygon id="Fill-6" class="st3" points="25.2,1.2 20.3,3.9 20.3,9.3 25.2,12 30,9.3 30,3.9 			"/>
			<polygon id="Fill-7" class="st3" points="20.3,40.7 20.3,46.1 25.2,48.8 30,46.1 30,40.7 25.2,38 			"/>
		</g>
	</g>
</g>
<g id="Layer_5">
	<polygon id="Stroke-1_2_" class="st4" points="11.7,28.2 11.7,21.8 6.2,18.5 0.7,21.8 0.7,28.2 6.2,31.5 	"/>
	<polygon id="Fill-3_4_" class="st3" points="20.4,18.1 20.4,32.6 33,39.9 45.6,32.6 45.6,18.1 33,10.8 	"/>
	<polygon id="Stroke-4_1_" class="st4" points="46,36.6 46,13.4 26,1.7 5.9,13.4 5.9,36.6 26,48.3 	"/>
</g>
<g id="Layer_6" class="st0">
	<g id="Page-1_3_" class="st1">
		<g id="Group-15" transform="translate(2.000000, 2.000000)">
			<path id="Fill-1_2_" class="st3" d="M29.6,25.9v-5.8c0-0.4-0.2-0.7-0.5-0.9l-5-2.9c-0.3-0.2-0.7-0.2-1,0l-5,2.9
				c-0.3,0.2-0.5,0.5-0.5,0.9v5.8c0,0.4,0.2,0.7,0.5,0.9l5,2.9c0.3,0.2,0.7,0.2,1,0l5-2.9C29.4,26.6,29.6,26.2,29.6,25.9"/>
			<path id="Stroke-3_1_" class="st4" d="M11.6,22.9v-7c0-0.1,0.1-0.2,0.2-0.3l11-6.3c0.2-0.1,0.5,0,0.5,0.3v2.2"/>
			<path id="Stroke-5_2_" class="st4" d="M29.5,33.2l-6.1,3.5c-0.1,0.1-0.2,0.1-0.3,0l-11-6.4c-0.2-0.1-0.2-0.5,0-0.6l1.9-1.1"/>
			<path id="Stroke-7_2_" class="st4" d="M29.2,12.3l6.1,3.5c0.1,0.1,0.2,0.2,0.2,0.3l0,12.8c0,0.3-0.3,0.4-0.5,0.3L33,28"/>
			<path id="Stroke-9_1_" class="st5" d="M43.5,23.1v11.7c0,0.2-0.1,0.4-0.3,0.5L24.8,45.9c-0.4,0.2-0.9-0.1-0.9-0.5v-3.7"/>
			<path id="Stroke-11" class="st5" d="M13.6,5.9l10.1-5.8c0.2-0.1,0.4-0.1,0.6,0l18.4,10.6c0.4,0.2,0.4,0.8,0,1l-3.2,1.8"/>
			<path id="Stroke-13" class="st5" d="M13.9,40.9L3.8,35c-0.2-0.1-0.3-0.3-0.3-0.5l0-21.3c0-0.5,0.5-0.7,0.9-0.5l3.2,1.8"/>
		</g>
	</g>
</g>
<g id="Layer_7" class="st0">
	<g id="Page-1_4_" class="st1">
		<g id="Group-13" transform="translate(2.000000, 2.000000)">
			<path id="Stroke-1_3_" class="st5" d="M4.5,6.8l-3,5.3c-0.4,0.7-0.4,1.6,0,2.3l3,5.3c0.4,0.7,1.1,1.1,1.9,1.1h6
				c0.8,0,1.5-0.4,1.9-1.1l3-5.3c0.4-0.7,0.4-1.6,0-2.3l-3-5.3c-0.4-0.7-1.1-1.1-1.9-1.1h-6C5.6,5.7,4.9,6.1,4.5,6.8z"/>
			<path id="Stroke-3_2_" class="st5" d="M32.7,6.8l-3,5.3c-0.4,0.7-0.4,1.6,0,2.3l3,5.3c0.4,0.7,1.1,1.1,1.9,1.1h6
				c0.8,0,1.5-0.4,1.9-1.1l3-5.3c0.4-0.7,0.4-1.6,0-2.3l-3-5.3c-0.4-0.7-1.1-1.1-1.9-1.1h-6C33.8,5.7,33.1,6.1,32.7,6.8z"/>
			<path id="Stroke-5_3_" class="st5" d="M32.9,39.8h3.5c0.6,0,1.2-0.3,1.5-0.8l1.8-2.9c0.3-0.5,0.3-1.2,0-1.7l-1.8-2.9
				c-0.3-0.5-0.9-0.8-1.5-0.8h-3.5c-0.6,0-1.2,0.3-1.5,0.8l-1.8,2.9c-0.3,0.5-0.3,1.2,0,1.7l1.8,2.9C31.7,39.5,32.3,39.8,32.9,39.8z
				"/>
			<path id="Stroke-7_3_" class="st5" d="M10.6,39.8h3.5c0.6,0,1.2-0.3,1.5-0.8l1.8-2.9c0.3-0.5,0.3-1.2,0-1.7l-1.8-2.9
				c-0.3-0.5-0.9-0.8-1.5-0.8h-3.5c-0.6,0-1.2,0.3-1.5,0.8l-1.8,2.9c-0.3,0.5-0.3,1.2,0,1.7L9.1,39C9.4,39.5,10,39.8,10.6,39.8z"/>
			<path id="Fill-9" class="st3" d="M17.6,21.5V26c0,0.6,0.3,1.2,0.8,1.5l3.9,2.3c0.5,0.3,1.2,0.3,1.7,0l3.9-2.3
				c0.5-0.3,0.8-0.9,0.8-1.5v-4.5c0-0.6-0.3-1.2-0.8-1.5L24,17.7c-0.5-0.3-1.2-0.3-1.7,0L18.4,20C17.9,20.3,17.6,20.9,17.6,21.5"/>
			<path id="Stroke-11_1_" class="st4" d="M16.8,36.5h13.4c0.6,0,1.2-0.3,1.5-0.8l6.7-11.4c0.3-0.5,0.3-1.2,0-1.7l-6.7-11.4
				c-0.3-0.5-0.9-0.8-1.5-0.8H16.8c-0.6,0-1.2,0.3-1.5,0.8L8.6,22.6c-0.3,0.5-0.3,1.2,0,1.7l6.7,11.4C15.6,36.2,16.2,36.5,16.8,36.5
				z"/>
		</g>
	</g>
</g>
<g id="Layer_8" class="st0">
	<g id="Page-1_5_" class="st1">
		<g id="Group-11-Copy-2">
			<path id="Fill-1_3_" class="st3" d="M6.3,15.8l3.3,5.7c0.4,0.6,1.1,1,1.8,1h6.6c0.7,0,1.4-0.4,1.8-1l3.3-5.7
				c0.4-0.6,0.4-1.4,0-2.1L19.7,8c-0.4-0.6-1.1-1-1.8-1h-6.6c-0.7,0-1.4,0.4-1.8,1l-3.3,5.7C5.9,14.4,5.9,15.2,6.3,15.8"/>
			<path id="Stroke-3_3_" class="st7" d="M28.2,31l6.8,4c0.6,0.4,1.3,0.4,1.9,0l6.8-4"/>
			<path id="Stroke-5_4_" class="st7" d="M28.2,12.3l6.7,3.9c0.7,0.4,1.5,0.4,2.1,0l6.7-3.9"/>
			<path id="Stroke-7_4_" class="st7" d="M43.8,39.8l-6.8-4c-0.6-0.4-1.3-0.4-1.9,0l-6.8,4"/>
			<path id="Fill-9_1_" class="st3" d="M17.9,27.5h-6.6c-0.7,0-1.4,0.4-1.8,1l-3.3,5.7c-0.4,0.6-0.4,1.4,0,2.1L9.6,42
				c0.4,0.6,1.1,1,1.8,1h6.6c0.7,0,1.4-0.4,1.8-1l3.3-5.7c0.4-0.6,0.4-1.4,0-2.1l-3.3-5.7C19.4,27.9,18.7,27.5,17.9,27.5 M17.9,28.5
				c0.4,0,0.8,0.2,1,0.6l3.3,5.7c0.2,0.3,0.2,0.8,0,1.1l-3.3,5.7c-0.2,0.3-0.6,0.6-1,0.6h-6.6c-0.4,0-0.8-0.2-1-0.6l-3.3-5.7
				c-0.2-0.3-0.2-0.8,0-1.1l3.3-5.7c0.2-0.3,0.6-0.6,1-0.6H17.9"/>
		</g>
	</g>
</g>
</svg>
