<?xml version="1.0" encoding="utf-8"?>
<!-- Generator: Adobe Illustrator 21.0.0, SVG Export Plug-In . SVG Version: 6.00 Build 0)  -->
<svg version="1.1" xmlns="http://www.w3.org/2000/svg" xmlns:xlink="http://www.w3.org/1999/xlink" x="0px" y="0px"
	 viewBox="0 0 50 50" style="enable-background:new 0 0 50 50;" xml:space="preserve">
<style type="text/css">
	.st0{display:none;}
	.st1{display:inline;}
	.st2{fill:#273BE2;}
	.st3{fill:#8A92B2;}
	.st4{fill:#454A75;}
	.st5{fill:#808080;}
	.st6{fill:#62688F;}
	.st7{display:inline;fill:#FFFFFF;}
	.st8{fill:#F5B300;}
</style>
<g id="Layer_1" class="st0">
	<g class="st1">
		<title>Republia-logomark-color</title>
		<g id="Layer_2_7_">
			<g id="Layer_1-2_6_">
				<path class="st2" d="M11.5,40.5v-23c0-0.3,0.1-0.5,0.4-0.7L25.2,9c0.2-0.1,0.5-0.1,0.8,0l13.4,7.7c0.2,0.1,0.4,0.4,0.4,0.7V33
					c0,0.3-0.1,0.5-0.4,0.7L33.6,37c-0.2,0.1-0.3,0.2-0.3,0.4c0,0.2,0.1,0.4,0.3,0.5l5.8,3.3c0.2,0.1,0.5,0.1,0.8,0l5.5-3.2
					c0.6-0.4,1-1.1,1-1.8V14.2c0-0.8-0.4-1.4-1.1-1.8L26.6,1.3c-0.7-0.4-1.5-0.4-2.1,0L5.3,12.3c-0.7,0.4-1.1,1.1-1.1,1.8v22
					c0,0.8,0.4,1.5,1.1,1.9l5.2,3c0.3,0.2,0.7,0.1,0.9-0.2C11.4,40.7,11.5,40.6,11.5,40.5z"/>
				<path class="st2" d="M32,45.4l-12.6-7.2c-0.2-0.1-0.4,0-0.5,0.1c0,0.1,0,0.1,0,0.2v6.9c0,0.3,0.2,0.6,0.4,0.7l5.3,3
					c0.6,0.4,1.4,0.4,2,0L32,46c0.2-0.1,0.2-0.3,0.1-0.5C32.1,45.4,32.1,45.4,32,45.4z"/>
				<path class="st2" d="M31.7,29.4l-5.4,3.1c-0.4,0.2-0.9,0.2-1.3,0l-5.4-3.1c-0.4-0.2-0.7-0.7-0.7-1.2v-6.2c0-0.5,0.3-0.9,0.7-1.1
					l5.4-3.1c0.4-0.2,0.9-0.2,1.3,0l5.4,3.1c0.4,0.2,0.7,0.7,0.7,1.2v6.2C32.3,28.8,32.1,29.2,31.7,29.4z"/>
			</g>
		</g>
	</g>
</g>
<g id="Layer_2">
	<g id="Group-3">
		<g id="Group-18">
			<path id="Fill-1" d="M22,21.2c-1.2,0-2.3-0.7-2.8-1.7c-0.8-1.5-0.2-3.4,1.4-4.2C21,15.1,21.5,15,22,15c1.2,0,2.3,0.7,2.8,1.7
				c0.8,1.5,0.2,3.4-1.4,4.2C23,21.1,22.5,21.2,22,21.2z M18.3,27.7c-0.1,0-0.1,0-0.2,0c-1.7-0.1-3.1-1.6-3-3.3
				c0.1-1.7,1.6-3.1,3.3-3c1.7,0.1,3.1,1.6,3,3.3C21.4,26.4,20,27.7,18.3,27.7z M22,34c-0.6,0-1.2-0.2-1.7-0.5
				c-0.7-0.4-1.2-1.2-1.4-2c-0.2-0.8,0-1.7,0.5-2.4c0.6-0.9,1.6-1.4,2.7-1.4c0.6,0,1.2,0.2,1.7,0.5c0.7,0.4,1.2,1.2,1.4,2
				c0.2,0.8,0,1.7-0.5,2.4C24.1,33.5,23.1,34,22,34z M29.5,34c-1.2,0-2.3-0.7-2.8-1.7c-0.4-0.7-0.4-1.6-0.2-2.4
				c0.3-0.8,0.8-1.4,1.6-1.8c0.4-0.2,0.9-0.3,1.4-0.3c1.2,0,2.3,0.7,2.8,1.7c0.8,1.5,0.2,3.4-1.4,4.2C30.5,33.9,30,34,29.5,34z
				 M33.2,27.6c-0.1,0-0.1,0-0.2,0c-1.7-0.1-3.1-1.6-3-3.3c0.1-1.7,1.6-3.1,3.3-2.9c0.8,0,1.6,0.4,2.2,1c0.6,0.6,0.8,1.4,0.8,2.3
				C36.3,26.3,34.9,27.6,33.2,27.6z M29.5,21.2c-0.6,0-1.2-0.2-1.7-0.5c-1.5-0.9-1.9-2.9-0.9-4.3c0.6-0.9,1.6-1.4,2.7-1.4
				c0.6,0,1.2,0.2,1.7,0.5c1.5,0.9,1.9,2.9,0.9,4.3C31.6,20.7,30.6,21.2,29.5,21.2z M18.9,9.6c0.4,0.8,0.1,1.7-0.7,2.1c0,0,0,0,0,0
				c-0.8,0.4-1.7,0.1-2.1-0.7c-0.4-0.8-0.1-1.7,0.7-2.1l0,0C17.5,8.5,18.5,8.8,18.9,9.6L18.9,9.6z M9.3,23c0.9,0,1.5,0.8,1.5,1.7
				c0,0.9-0.8,1.5-1.7,1.5c-0.9-0.1-1.5-0.8-1.5-1.7C7.6,23.6,8.4,22.9,9.3,23z M16.2,37.9c0.5-0.7,1.5-0.9,2.2-0.5
				c0.7,0.5,0.9,1.4,0.5,2.1c0,0,0,0,0,0c-0.5,0.7-1.5,0.9-2.2,0.5C15.9,39.6,15.7,38.6,16.2,37.9C16.2,37.9,16.2,37.9,16.2,37.9
				L16.2,37.9z M32.7,39.4c-0.4-0.8-0.1-1.7,0.7-2.1c0,0,0,0,0,0c0.8-0.4,1.7-0.1,2.1,0.7c0.4,0.8,0.1,1.7-0.7,2.1c0,0,0,0,0,0
				C34,40.5,33.1,40.2,32.7,39.4z M42.3,26c-0.9,0-1.5-0.8-1.5-1.7c0-0.9,0.8-1.5,1.7-1.5c0.9,0.1,1.5,0.8,1.5,1.7
				C43.9,25.4,43.2,26.1,42.3,26z M35.4,11.1c-0.5,0.7-1.5,0.9-2.2,0.5c-0.7-0.5-0.9-1.4-0.5-2.1c0,0,0,0,0,0
				c0.5-0.7,1.5-0.9,2.2-0.5C35.6,9.4,35.8,10.4,35.4,11.1C35.4,11.1,35.4,11.1,35.4,11.1L35.4,11.1z M15.4,4.8
				c0.3,0.5,0.1,1.1-0.5,1.4c-0.5,0.3-1.1,0.1-1.4-0.4c-0.3-0.5-0.1-1.1,0.4-1.4c0,0,0,0,0,0C14.5,4.1,15.1,4.3,15.4,4.8L15.4,4.8z
				 M3.3,23.5c0.6,0,1,0.5,1,1.1c0,0,0,0,0,0c0,0.6-0.5,1-1.1,1c-0.6,0-1-0.5-1-1.1c0,0,0,0,0,0C2.3,23.9,2.8,23.5,3.3,23.5z
				 M13.7,43.2c0.3-0.5,0.9-0.6,1.4-0.3c0.5,0.3,0.6,0.9,0.3,1.4c-0.3,0.5-0.9,0.6-1.4,0.3C13.5,44.3,13.4,43.7,13.7,43.2
				C13.7,43.3,13.7,43.2,13.7,43.2z M36.2,44.2c-0.3-0.5-0.1-1.1,0.4-1.4l0,0c0.5-0.3,1.1-0.1,1.4,0.4c0.3,0.5,0.1,1.1-0.4,1.4
				c0,0,0,0,0,0C37,44.9,36.4,44.7,36.2,44.2z M48.2,25.5c-0.6,0-1-0.5-1-1.1c0,0,0,0,0,0c0-0.6,0.5-1,1.1-1c0.6,0,1,0.5,1,1.1
				c0,0,0,0,0,0C49.3,25.1,48.8,25.5,48.2,25.5L48.2,25.5z M37.8,5.8c-0.3,0.5-0.9,0.6-1.4,0.3c-0.5-0.3-0.6-0.9-0.3-1.4
				c0,0,0,0,0,0c0.3-0.5,0.9-0.6,1.4-0.3C38,4.7,38.1,5.3,37.8,5.8C37.9,5.7,37.8,5.8,37.8,5.8L37.8,5.8z M15.7,16.7
				c0.8,0.5,1.1,1.7,0.6,2.5c0,0,0,0,0,0c-0.6,0.9-1.7,1.1-2.6,0.5c-0.8-0.5-1.1-1.7-0.6-2.5c0,0,0,0,0,0
				C13.7,16.3,14.8,16.1,15.7,16.7z M13.9,29.2c0.9-0.5,2-0.1,2.5,0.8c0.5,0.9,0.1,2-0.8,2.5c0,0,0,0,0,0c-0.9,0.5-2,0.1-2.5-0.8
				C12.6,30.8,12.9,29.7,13.9,29.2C13.8,29.2,13.9,29.2,13.9,29.2z M23.8,37c0.1-1,0.9-1.8,2-1.7c1,0.1,1.8,0.9,1.8,1.9
				c-0.1,1-0.9,1.8-2,1.7C24.5,38.9,23.7,38.1,23.8,37L23.8,37z M35.8,32.3c-0.8-0.5-1.1-1.7-0.6-2.5c0,0,0,0,0,0
				c0.6-0.8,1.7-1.1,2.6-0.5c0.8,0.5,1.1,1.7,0.6,2.5c0,0,0,0,0,0C37.9,32.7,36.7,32.9,35.8,32.3z M37.7,19.8
				c-0.9,0.5-2,0.1-2.5-0.8c-0.5-0.9-0.1-2,0.8-2.5c0,0,0,0,0,0c0.9-0.5,2-0.1,2.5,0.8C39,18.2,38.6,19.3,37.7,19.8
				C37.7,19.8,37.7,19.8,37.7,19.8L37.7,19.8z M27.6,12c-0.1,1-0.9,1.8-2,1.7c-1-0.1-1.8-0.9-1.8-1.9c0.1-1,0.9-1.8,2-1.7
				C26.9,10.1,27.7,10.9,27.6,12z M8.8,13.4c0.6,0.4,0.8,1.2,0.4,1.8c0,0,0,0,0,0c-0.4,0.6-1.2,0.8-1.8,0.4
				c-0.6-0.4-0.8-1.2-0.4-1.8c0,0,0,0,0,0C7.4,13.1,8.2,13,8.8,13.4L8.8,13.4z M7.5,33.5c0.6-0.3,1.4-0.1,1.8,0.6
				c0.3,0.6,0.1,1.4-0.6,1.7c-0.6,0.3-1.4,0.1-1.8-0.6C6.6,34.6,6.9,33.8,7.5,33.5C7.5,33.5,7.5,33.5,7.5,33.5L7.5,33.5z M24.4,44.6
				c0-0.7,0.7-1.3,1.4-1.2c0.7,0,1.3,0.7,1.2,1.4c0,0.7-0.7,1.3-1.4,1.2C24.9,46,24.3,45.3,24.4,44.6L24.4,44.6z M42.8,35.6
				c-0.6-0.4-0.8-1.2-0.4-1.8c0,0,0,0,0,0c0.4-0.6,1.2-0.8,1.8-0.4c0.6,0.4,0.8,1.2,0.4,1.8C44.2,35.9,43.4,36,42.8,35.6L42.8,35.6z
				 M44,15.5c-0.6,0.3-1.4,0.1-1.8-0.6c-0.3-0.6-0.1-1.4,0.6-1.7l0,0c0.6-0.3,1.4-0.1,1.8,0.6C44.9,14.4,44.7,15.2,44,15.5z M27,4.4
				c0,0.7-0.7,1.3-1.4,1.2c-0.7,0-1.3-0.7-1.2-1.4c0-0.7,0.7-1.3,1.4-1.2C26.5,3,27.1,3.7,27,4.4L27,4.4z"/>
		</g>
		<g id="Clip-2">
		</g>
	</g>
</g>
<g id="Layer_3" class="st0">
	<g id="Page-1" class="st1">
		<g id="Group-17">
			<g id="Etherium">
				<g id="eth">
					<path id="Shape" class="st3" d="M26.6,0L26.6,0c0,0.2,0,0.3,0,0.5c0,5.8,0,11.7,0,17.6c0,0.1,0,0.2,0,0.3
						c0,0.1-0.1,0.2-0.2,0.2c-0.5,0.2-1,0.5-1.6,0.7c-0.7,0.3-1.5,0.6-2.2,1c-0.9,0.4-1.7,0.8-2.6,1.2c-0.7,0.3-1.4,0.6-2.1,0.9
						c-0.9,0.4-1.7,0.8-2.6,1.2c-0.7,0.3-1.4,0.6-2.2,1c-0.5,0.2-1.2,0.6-1.7,0.8c-0.1,0-0.1,0.1-0.2,0c0,0,0,0-0.1,0
						c0.2-0.4,0.5-0.7,0.7-1.1c1.3-2.1,2.6-4.3,3.8-6.4c1.3-2.3,2.7-4.6,4.1-6.9c1.3-2.1,2.5-4.3,3.8-6.3c0.9-1.6,1.9-3.1,2.7-4.6
						C26.5,0.1,26.5,0,26.6,0C26.5,0,26.6,0,26.6,0L26.6,0z"/>
					<path id="Shape_1_" class="st4" d="M41.8,25.4L41.8,25.4c-1.2,0.8-2.4,1.5-3.6,2.2c-3.8,2.3-7.6,4.5-11.4,6.8
						c-0.1,0-0.1,0.1-0.2,0.1c-0.1,0-0.1-0.1-0.1-0.1c0-0.1,0-0.2,0-0.2c0-5.1,0-10.2,0-15.4c0-0.1,0-0.2,0-0.2
						c0-0.1,0.1-0.1,0.2-0.1c0.3,0.2,0.6,0.3,1,0.5c0.9,0.5,2,0.9,2.9,1.3c0.9,0.4,1.6,0.8,2.5,1.1c0.9,0.4,1.6,0.8,2.5,1.2
						c0.7,0.3,1.5,0.6,2.2,1c0.7,0.3,1.5,0.6,2.2,1C40.5,24.8,41,25.1,41.8,25.4C41.7,25.3,41.7,25.4,41.8,25.4z"/>
					<path id="Shape_2_" class="st3" d="M26.6,49.9L26.6,49.9C26.6,49.9,26.5,49.9,26.6,49.9c-0.1,0-0.1,0-0.2-0.1
						c-1.6-2.2-3.1-4.3-4.6-6.5c-1.6-2.2-3.1-4.4-4.7-6.6c-1.5-2.1-3.1-4.3-4.5-6.5c-0.4-0.6-0.8-1.1-1.2-1.7c0-0.1-0.1-0.1-0.1-0.2
						c0.1,0,0.1,0.1,0.2,0.1c2.1,1.3,4.3,2.5,6.4,3.8c2.4,1.5,4.9,2.9,7.4,4.4c0.4,0.2,0.9,0.5,1.3,0.7c0.1,0,0.1,0.1,0.1,0.2
						c0,0.1,0,0.2,0,0.2c0,3.9,0,7.8,0,11.7C26.6,49.5,26.6,49.7,26.6,49.9z"/>
					<path id="Shape_3_" class="st5" d="M11.3,25.4C11.3,25.4,11.4,25.4,11.3,25.4C11.4,25.4,11.4,25.4,11.3,25.4
						C11.3,25.4,11.3,25.4,11.3,25.4L11.3,25.4L11.3,25.4z"/>
					<path id="Shape_4_" class="st6" d="M11.4,25.4C11.4,25.4,11.4,25.4,11.4,25.4c0.8-0.4,1.6-0.7,2.3-1.1c1-0.5,2-0.9,3.1-1.4
						c0.8-0.4,1.6-0.7,2.3-1.1c1.1-0.6,2.3-1,3.4-1.6c0.8-0.3,1.6-0.7,2.3-1c0.5-0.2,1.1-0.5,1.6-0.8c0.1,0,0.1-0.1,0.2-0.1
						c0,0,0,0,0,0.1c0,0.1,0,0.1,0,0.2c0,5.2,0,10.4,0,15.6c0,0.1,0,0.2,0,0.2c-0.1,0.1-0.1,0-0.2,0c-0.2-0.2-0.5-0.2-0.6-0.4
						c-4.8-2.8-9.5-5.7-14.3-8.5C11.5,25.4,11.4,25.4,11.4,25.4z"/>
					<path id="Shape_5_" class="st6" d="M41.7,28.4L41.7,28.4c0,0.1,0,0.1-0.1,0.2C37.1,35,32.5,41.4,28,47.8
						c-0.5,0.7-0.9,1.3-1.4,2c0,0,0,0,0-0.1c0-0.1,0-0.1,0-0.2c0-4,0-8,0-12.1c0-0.1,0-0.2,0-0.2c1-0.6,2-1.3,3.1-1.8
						C33.6,33.2,37.6,30.8,41.7,28.4C41.6,28.4,41.7,28.4,41.7,28.4z"/>
					<path id="Shape_6_" class="st6" d="M26.6,18.4L26.6,18.4c0-0.1,0-0.2,0-0.2c0-6,0-12.1,0-18c0-0.1,0-0.2,0-0.2
						c5,8.3,10,16.7,15,25c0.1,0.1,0.2,0.2,0.2,0.2c-0.3-0.2-0.6-0.3-1-0.5c-0.4-0.2-0.8-0.4-1.2-0.6c-0.2-0.1-0.5-0.2-0.8-0.3
						c-0.4-0.2-0.9-0.4-1.3-0.6c-0.2-0.1-0.5-0.2-0.7-0.3c-0.5-0.2-1.1-0.5-1.6-0.7c-0.3-0.2-0.5-0.2-0.9-0.4
						c-0.4-0.2-0.8-0.4-1.2-0.6c-0.2-0.1-0.5-0.2-0.7-0.3c-0.5-0.2-1.1-0.5-1.6-0.7c-0.3-0.2-0.5-0.2-0.9-0.4
						c-0.4-0.2-0.8-0.4-1.2-0.6c-0.2-0.2-0.5-0.2-0.8-0.4C27.5,18.9,27,18.7,26.6,18.4L26.6,18.4z"/>
				</g>
			</g>
		</g>
	</g>
</g>
<g id="Layer_4" class="st0">
	<rect x="11.2" y="8.9" class="st7" width="26.9" height="31.9"/>
	<g id="Page-1_1_" class="st1">
		<g id="Bitcoin">
			<g id="btc">
				<path id="Combined-Shape" class="st8" d="M24.7,48.4C12.1,48.4,1.8,37.9,1.8,25S12.1,1.6,24.7,1.6S47.7,12.1,47.7,25
					S37.4,48.4,24.7,48.4z M18.5,13.1c-0.1,0.1-0.1,0.1,0.2-0.1c-0.2,0.8-0.4,1.7-0.7,2.5c-0.1,0.1,0,0.2,0.1,0.2
					c0.6,0.1,1.2,0.3,1.9,0.5c0.7,0.2,1,0.9,0.9,1.5c-0.9,3.8-1.8,7.6-2.7,11.4c-0.1,0.5-0.5,0.8-1.1,0.7c-0.5-0.1-1.1-0.2-1.6-0.4
					c-0.2,0-0.3,0-0.4,0.2c-0.2,0.6-0.5,1.3-0.8,1.9c-0.1,0.3-0.2,0.5-0.4,0.8c1.7,0.4,3.4,0.9,5.1,1.3c0,0.1-0.1,0.2-0.1,0.3
					c-0.4,1.2-0.7,2.4-0.9,3.7c-0.1,0.1-0.1,0.2,0.1,0.3c0.7,0.1,1.4,0.3,2.2,0.5c0.2,0.1,0.2,0,0.3-0.1c0.1-0.7,0.4-1.3,0.5-2
					c0.1-0.7,0.4-1.3,0.5-2c0.7,0.1,1.2,0.3,1.8,0.4c0.1,0.1,0.1,0.1,0.1,0.3c-0.4,1.2-0.7,2.4-0.9,3.7c-0.1,0.1-0.1,0.2,0.1,0.3
					c0.7,0.1,1.4,0.4,2,0.5c0.4,0.1,0.4,0.1,0.4-0.2c0.3-1.2,0.6-2.4,0.9-3.6c0.1-0.2,0.2-0.3,0.4-0.2c1.4,0.2,2.9,0.4,4.4,0.1
					c1.2-0.1,2.2-0.7,3-1.6c0.7-0.8,1-1.7,1.3-2.7c0.2-0.8,0.3-1.7,0.1-2.5c-0.3-1-0.9-1.8-1.7-2.5c-0.3-0.2-0.6-0.4-0.9-0.6
					c0.1,0,0.2-0.1,0.3-0.1c0.6-0.2,1.2-0.5,1.6-1c0.6-0.6,0.9-1.3,1.1-2.1c0.3-1.2,0.2-2.4-0.4-3.5c-0.5-0.7-1.2-1.3-1.9-1.8
					c-0.8-0.4-1.6-0.7-2.4-1.1c-0.2-0.1-0.3-0.1-0.2-0.4c0.1-0.4,0.2-0.7,0.3-1.1c0.2-0.9,0.4-1.8,0.7-2.7c-0.1,0-0.1-0.1-0.1-0.1
					c-0.8-0.2-1.5-0.4-2.2-0.6c-0.1-0.1-0.2,0-0.2,0.1c-0.1,0.3-0.1,0.6-0.2,0.9c-0.3,1-0.5,1.8-0.7,2.8c-0.1,0.1-0.1,0.2-0.2,0.2
					c-0.6-0.1-1.2-0.3-1.8-0.4c0.1-0.1,0.1-0.2,0.1-0.3c0.3-1.2,0.6-2.4,0.9-3.6c0.1-0.1,0.1-0.2-0.1-0.3c-0.7-0.1-1.4-0.3-2.1-0.5
					c-0.2-0.1-0.3,0-0.4,0.2c-0.3,1.3-0.6,2.4-0.9,3.7c-0.1,0.2-0.1,0.3-0.4,0.2c-0.8-0.2-1.6-0.4-2.4-0.6
					C20.1,13.4,19.3,13.3,18.5,13.1z M22.2,31.3c0.3-1.1,0.5-2.1,0.8-3.2c0.1-0.7,0.4-1.4,0.5-2.1c0.1-0.2,0.1-0.3,0.3-0.2
					c1.4,0.3,3,0.6,4.3,1.3c0.6,0.4,1.2,0.7,1.5,1.3c0.8,1.2,0.2,3-1.2,3.5c-0.8,0.3-1.6,0.3-2.5,0.2c-1.2-0.1-2.5-0.4-3.6-0.7
					C22.3,31.3,22.3,31.3,22.2,31.3z M28.3,23.7c-1.2,0-2.1-0.2-3.2-0.4c-0.3-0.1-0.5-0.1-0.8-0.2c-0.1-0.1-0.2-0.1-0.1-0.3
					c0.4-1.5,0.8-3,1.2-4.6c0.1-0.2,0.1-0.3,0.4-0.2c1.1,0.3,2.1,0.5,3.1,1c0.7,0.3,1.3,0.7,1.7,1.4c0.7,1.3,0,2.9-1.4,3.2
					C28.8,23.7,28.4,23.7,28.3,23.7z"/>
			</g>
		</g>
	</g>
</g>
</svg>
