<?xml version="1.0" encoding="utf-8"?>
<!-- Generator: Adobe Illustrator 21.0.0, SVG Export Plug-In . SVG Version: 6.00 Build 0)  -->
<svg version="1.1" xmlns="http://www.w3.org/2000/svg" xmlns:xlink="http://www.w3.org/1999/xlink" x="0px" y="0px"
	 viewBox="0 0 50 50" style="enable-background:new 0 0 50 50;" xml:space="preserve">
<style type="text/css">
	.st0{display:none;}
	.st1{display:inline;}
	.st2{fill:#273BE2;}
</style>
<g id="Layer_1" class="st0">
	<g id="Page-1" class="st1">
		<path id="Fill-25" class="st2" d="M19.9,31.3l0-13.7l13.3,6.9L19.9,31.3z M49.2,15.3c0,0-0.5-3.3-2-4.8c-1.9-1.9-4-1.9-4.9-2.1
			C35.4,7.9,25,7.9,25,7.9h0c0,0-10.4,0-17.3,0.5c-1,0.1-3.1,0.1-4.9,2.1c-1.5,1.5-2,4.8-2,4.8s-0.5,3.9-0.5,7.9v3.7
			c0,3.9,0.5,7.9,0.5,7.9s0.5,3.3,2,4.8c1.9,1.9,4.3,1.9,5.4,2.1c4,0.4,16.8,0.5,16.8,0.5s10.4,0,17.3-0.5c1-0.1,3.1-0.1,4.9-2.1
			c1.5-1.5,2-4.8,2-4.8s0.5-3.9,0.5-7.9v-3.7C49.7,19.2,49.2,15.3,49.2,15.3L49.2,15.3z"/>
	</g>
</g>
<g id="Layer_2">
	<g id="Page-1_2_">
		<path id="Fill-1_1_" class="st2" d="M48.9,10.7c-1.7,0.8-3.6,1.3-5.5,1.5c2-1.2,3.5-3,4.2-5.2c-1.9,1.1-3.9,1.9-6.1,2.3
			c-1.8-1.8-4.2-3-7-3c-5.3,0-9.6,4.2-9.6,9.5c0,0.7,0.1,1.5,0.2,2.2c-8-0.4-15.1-4.2-19.8-9.9c-0.8,1.4-1.3,3-1.3,4.8
			c0,3.3,1.7,6.2,4.3,7.9c-1.6,0-3.1-0.5-4.3-1.2c0,0,0,0.1,0,0.1c0,4.6,3.3,8.4,7.7,9.3c-0.8,0.2-1.7,0.3-2.5,0.3
			c-0.6,0-1.2-0.1-1.8-0.2c1.2,3.8,4.8,6.5,9,6.6c-3.3,2.5-7.4,4-11.9,4c-0.8,0-1.5,0-2.3-0.1c4.2,2.7,9.3,4.2,14.7,4.2
			c17.7,0,27.3-14.4,27.3-26.9c0-0.4,0-0.8,0-1.2C46,14.3,47.6,12.6,48.9,10.7"/>
	</g>
</g>
<g id="Layer_3" class="st0">
	<g id="Page-1_1_" class="st1">
		<path id="Fill-1" class="st2" d="M4.2,25C2,24.4,2,22.9,4.7,21.8L44.4,6.9c1.8-0.8,3.6,0.4,2.9,3.1l-6.8,31.1
			c-0.5,2.2-1.8,2.7-3.7,1.7l-10.3-7.4l-5,4.7c-0.6,0.5-1,1-2.1,1l0.7-10.3l0,0l0,0v0h0L39.3,14c0.8-0.7-0.2-1.1-1.3-0.4L14.4,28.1
			L4.2,25z"/>
	</g>
</g>
</svg>
