<?xml version="1.0" encoding="utf-8"?>
<!-- Generator: Adobe Illustrator 21.0.0, SVG Export Plug-In . SVG Version: 6.00 Build 0)  -->
<svg version="1.1" xmlns="http://www.w3.org/2000/svg" xmlns:xlink="http://www.w3.org/1999/xlink" x="0px" y="0px"
	 viewBox="0 0 20 20" style="enable-background:new 0 0 20 20;" xml:space="preserve">
<style type="text/css">
	.st0{filter:url(#Adobe_OpacityMaskFilter);}
	.st1{fill:#FFFFFF;}
	.st2{mask:url(#mask-2_1_);fill:#F8F8F8;}
	.st3{display:none;}
	.st4{display:inline;}
	.st5{fill:#F8F8F8;}
	.st6{filter:url(#Adobe_OpacityMaskFilter_1_);}
	.st7{mask:url(#mask-2_2_);fill:#F8F8F8;stroke:#F8F8F8;stroke-width:0.25;}
	.st8{fill:#273BE2;}
</style>
<g id="Layer_1">
	<g id="Page-1">
		<g id="Group-3">
			<g id="Clip-2">
			</g>
			<defs>
				<filter id="Adobe_OpacityMaskFilter" filterUnits="userSpaceOnUse" x="5.2" y="2.1" width="8.5" height="15.8">
					<feColorMatrix  type="matrix" values="1 0 0 0 0  0 1 0 0 0  0 0 1 0 0  0 0 0 1 0"/>
				</filter>
			</defs>
			<mask maskUnits="userSpaceOnUse" x="5.2" y="2.1" width="8.5" height="15.8" id="mask-2_1_">
				<g class="st0">
					<polygon id="path-1_1_" class="st1" points="5.2,2.1 13.8,2.1 13.8,17.9 5.2,17.9 					"/>
				</g>
			</mask>
			<path id="Fill-1" class="st2" d="M13.3,10.7l0.4-2.8h-2.9V6.1c0-0.8,0.2-1.4,1.4-1.4h1.5V2.2c-0.7-0.1-1.5-0.1-2.2-0.1
				c-2.2,0-3.8,1.3-3.8,3.7v2.1H5.2v2.8h2.5v7.2h3v-7.2H13.3z"/>
		</g>
	</g>
</g>
<g id="Layer_2" class="st3">
	<g id="Page-1_1_" class="st4">
		<g id="linkedin-copy-7">
			<g id="Group">
				<path id="LinkedIn" class="st5" d="M17.6,9.8v6h-3.3v-5.6c0-1.4-0.5-2.4-1.7-2.4c-0.9,0-1.4,0.7-1.7,1.3
					c-0.1,0.2-0.1,0.6-0.1,0.8v5.9H7.6c0,0,0.1-9.6,0-10.6h3.3v1.5C11.4,6,12.1,5,13.8,5C16,5,17.6,6.5,17.6,9.8z M4.3,0.2
					C3.1,0.2,2.4,1,2.4,2s0.7,1.8,1.8,1.8S6.1,3,6.1,2C6,1,5.3,0.2,4.3,0.2z M2.6,15.8h3.3V5.3H2.6V15.8z"/>
			</g>
		</g>
	</g>
</g>
<g id="Layer_3" class="st3">
	<g id="Page-1_2_" class="st4">
		<g id="Group-3_1_">
			<g id="Clip-2_1_">
			</g>
			<defs>
				<filter id="Adobe_OpacityMaskFilter_1_" filterUnits="userSpaceOnUse" x="0.6" y="0.5" width="19.2" height="19.2">
					<feColorMatrix  type="matrix" values="1 0 0 0 0  0 1 0 0 0  0 0 1 0 0  0 0 0 1 0"/>
				</filter>
			</defs>
			<mask maskUnits="userSpaceOnUse" x="0.6" y="0.5" width="19.2" height="19.2" id="mask-2_2_">
				<g class="st6">
					<polygon id="path-1_2_" class="st1" points="0.7,0.7 19.7,0.7 19.7,19.6 0.7,19.6 					"/>
				</g>
			</mask>
			<path id="Fill-1_1_" class="st7" d="M16.8,15.8c-0.6-0.5-1.3-0.9-2-1.2c0.6-1.3,0.9-2.6,0.9-4.1h3.2C18.8,12.5,18,14.4,16.8,15.8
				z M11.6,18.7c1.1-0.9,2.1-2.1,2.8-3.3c0.6,0.3,1.3,0.6,1.8,1C15,17.6,13.4,18.4,11.6,18.7z M6,15.4c0.7,1.3,1.6,2.4,2.8,3.3
				c-1.8-0.3-3.4-1.1-4.6-2.3C4.8,16,5.4,15.7,6,15.4z M1.5,10.5h3.2c0,1.6,0.4,2.8,0.9,4.1c-0.7,0.3-1.4,0.7-2,1.2
				C2.4,14.4,1.6,12.5,1.5,10.5z M3.7,4.4c0.6,0.5,1.3,0.9,2,1.2c-0.6,1.3-0.9,3-0.9,4.1H1.5C1.6,7.8,2.4,5.8,3.7,4.4z M8.8,1.6
				C7.6,2.5,6.7,3.6,6.1,4.9c-0.6-0.3-1.3-0.6-1.8-1C5.5,2.7,7.1,1.9,8.8,1.6z M14.4,4.9c-0.7-1.3-1.6-2.4-2.7-3.3
				c1.7,0.2,3.3,1.1,4.5,2.2C15.6,4.3,15,4.6,14.4,4.9z M10.6,9.7V6.5c1.2,0,2.3-0.3,3.4-0.6c0.6,1.2,0.9,2.7,0.9,3.9H10.6z
				 M10.6,13.7v-3.2h4.3c0,1.6-0.4,2.6-0.9,3.8C12.9,14,11.8,13.8,10.6,13.7z M10.6,14.5c1.2,0,2.1,0.2,3,0.6
				c-0.8,1.3-1.9,2.5-3,3.4V14.5z M9.8,14.5v4c-1.2-0.9-2.3-2.1-3-3.4C7.7,14.7,8.6,14.5,9.8,14.5z M9.8,10.5v3.2
				c-1.2,0-2.3,0.3-3.4,0.7c-0.6-1.2-0.8-2.3-0.9-3.8H9.8z M9.8,6.5v3.2H5.6c0-1.2,0.4-2.7,0.9-3.9C7.5,6.3,8.6,6.5,9.8,6.5z
				 M9.8,5.7c-1.2,0-2.1-0.2-3-0.6c0.7-1.3,1.8-2.5,3-3.4V5.7z M10.6,1.8c1.2,0.9,2.3,2.1,3,3.4c-0.9,0.4-1.8,0.5-3,0.6V1.8z
				 M18.9,9.7h-3.2c0-1.2-0.4-2.9-0.9-4.1c0.7-0.3,1.4-0.7,2-1.2C18,5.8,18.8,7.8,18.9,9.7z M17.4,3.9c-0.2-0.2-0.4-0.4-0.6-0.6
				c-1.7-1.7-4-2.7-6.6-2.7s-4.9,1-6.6,2.7C3.4,3.5,3.2,3.7,3.1,3.9c-1.5,1.7-2.3,3.8-2.3,6.2s0.9,4.5,2.3,6.2
				c0.2,0.2,0.4,0.4,0.6,0.6c1.7,1.7,4.1,2.7,6.6,2.7s4.9-1,6.6-2.7c0.2-0.2,0.4-0.4,0.6-0.6c1.4-1.6,2.3-3.8,2.3-6.2
				S18.8,5.6,17.4,3.9z"/>
		</g>
	</g>
</g>
<g id="Layer_4" class="st3">
	<g id="Page-1_3_" class="st4">
		<g id="Group-8">
			<g id="Group-3_2_">
				<path id="Fill-1_2_" class="st5" d="M9.8,1.1C7.3,1.1,7,1.1,6,1.2c-1,0-1.7,0.2-2.3,0.4C3.1,1.8,2.5,2.2,2,2.6
					c-0.5,0.5-0.8,1-1.1,1.6C0.7,4.8,0.6,5.5,0.5,6.5c0,1-0.1,1.3-0.1,3.8c0,2.5,0,2.8,0.1,3.8c0,1,0.2,1.6,0.4,2.2
					c0.2,0.6,0.6,1.2,1.1,1.6c0.5,0.5,1,0.8,1.7,1.1C4.3,19.1,5,19.2,6,19.3c1,0,1.3,0.1,3.9,0.1c2.5,0,2.9,0,3.9-0.1
					c1,0,1.7-0.2,2.3-0.4c1.3-0.5,2.3-1.4,2.7-2.7c0.2-0.6,0.4-1.2,0.4-2.2c0-1,0.1-1.3,0.1-3.8s0-2.8-0.1-3.8c0-1-0.2-1.6-0.4-2.2
					c-0.2-0.6-0.6-1.2-1.1-1.6c-0.5-0.5-1-0.8-1.7-1.1c-0.6-0.2-1.3-0.4-2.3-0.4C12.7,1.1,12.4,1.1,9.8,1.1z M9.8,2.7
					c2.5,0,2.8,0,3.8,0.1c0.9,0,1.4,0.2,1.7,0.3c0.4,0.1,0.8,0.4,1.1,0.7c0.3,0.3,0.6,0.7,0.7,1c0.1,0.3,0.3,0.8,0.3,1.7
					c0,1,0.1,1.2,0.1,3.7s0,2.7-0.1,3.7c0,0.9-0.2,1.4-0.3,1.7c-0.3,0.8-1,1.4-1.8,1.7c-0.3,0.1-0.8,0.3-1.7,0.3
					c-1,0-1.3,0.1-3.8,0.1c-2.5,0-2.8,0-3.8-0.1c-0.9,0-1.4-0.2-1.7-0.3c-0.4-0.1-0.8-0.4-1.1-0.7c-0.3-0.3-0.6-0.7-0.7-1
					c-0.1-0.3-0.3-0.8-0.3-1.7c0-1-0.1-1.2-0.1-3.7s0-2.7,0.1-3.7c0-0.9,0.2-1.4,0.3-1.7c0.2-0.4,0.4-0.8,0.7-1
					c0.3-0.3,0.7-0.5,1.1-0.7C4.6,3,5.1,2.8,6,2.8C7,2.8,7.3,2.7,9.8,2.7z"/>
			</g>
			<path id="Fill-4" class="st5" d="M9.6,13.8c-1.6,0-3-1.3-3-3c0-1.6,1.3-3,3-3c1.6,0,3,1.3,3,3C12.6,12.5,11.3,13.8,9.6,13.8
				 M9.6,6.3c-2.5,0-4.6,2-4.6,4.6c0,2.5,2,4.6,4.6,4.6c2.5,0,4.6-2,4.6-4.6C14.2,8.3,12.2,6.3,9.6,6.3"/>
			<path id="Fill-6" class="st5" d="M14.2,5c0.7,0,1.3,0.6,1.3,1.3s-0.6,1.3-1.3,1.3c-0.7,0-1.3-0.6-1.3-1.3S13.5,5,14.2,5"/>
		</g>
	</g>
</g>
<g id="Layer_5" class="st3">
	<g id="Page-1_4_" class="st4">
		<g id="Group-42-Copy">
			<g id="Group-6-Copy-8">
				<path id="Fill-1_3_" class="st5" d="M18.6,13.4V6.6c0-0.9-0.5-1.7-1.3-2.1l-6.1-3.4c-0.8-0.4-1.7-0.4-2.5,0L2.6,4.5
					C1.9,5,1.4,5.8,1.4,6.6v6.7c0,0.9,0.5,1.7,1.3,2.1l6.1,3.4c0.8,0.4,1.7,0.4,2.5,0l6.1-3.4C18.1,15,18.6,14.2,18.6,13.4"/>
			</g>
			<path id="i-copy" class="st8" d="M7.8,6.8h3.6v5.5h1.8v1.5H7.8v-1.5h1.9v-4H7.8V6.8z M9.6,5c0-0.1,0-0.3,0.1-0.4
				c0-0.1,0.1-0.2,0.2-0.3c0.1-0.1,0.2-0.1,0.3-0.2c0.1,0,0.3-0.1,0.4-0.1c0.3,0,0.5,0.1,0.7,0.3c0.2,0.2,0.3,0.4,0.3,0.7
				c0,0.3-0.1,0.5-0.3,0.7C11.1,5.9,10.9,6,10.6,6c-0.1,0-0.3,0-0.4-0.1c-0.1,0-0.2-0.1-0.3-0.2C9.8,5.6,9.7,5.5,9.7,5.4
				C9.6,5.3,9.6,5.2,9.6,5z"/>
		</g>
	</g>
</g>
</svg>
