<?xml version="1.0" encoding="utf-8"?>
<!-- Generator: Adobe Illustrator 21.0.0, SVG Export Plug-In . SVG Version: 6.00 Build 0)  -->
<svg version="1.1" xmlns="http://www.w3.org/2000/svg" xmlns:xlink="http://www.w3.org/1999/xlink" x="0px" y="0px"
	 viewBox="0 0 50 50" style="enable-background:new 0 0 50 50;" xml:space="preserve">
<style type="text/css">
	.st0{fill:none;stroke:#273BE2;stroke-width:4;}
	.st1{display:none;}
	.st2{display:inline;}
</style>
<g id="Layer_1">
	<g id="Page-1">
		<g id="Group-20" transform="translate(0.000000, 2.000000)">
			<path id="Rectangle-5" class="st0" d="M6,15.5C4,15.5,2.5,17,2.5,19v23.7c0,1.9,1.5,3.5,3.5,3.5h38c1.9,0,3.5-1.5,3.5-3.5V19
				c0-1.9-1.5-3.5-3.5-3.5H6z"/>
			<polygon id="Stroke-1" class="st0" points="27.2,27.2 22.7,27.2 20.5,31.2 22.7,35.3 27.2,35.3 29.5,31.2 			"/>
			<polygon id="Stroke-1-Copy" class="st0" points="28.8,8.9 21.2,8.9 17.4,15.5 32.6,15.5 			"/>
			<path id="Path-2" class="st0" d="M20.5,31.2H1.7"/>
			<path id="Path-2-Copy-2" class="st0" d="M48.3,31.2H29.5"/>
		</g>
	</g>
</g>
<g id="Layer_2" class="st1">
	<g id="Group-11" class="st2">
		<path id="Stroke-1_1_" class="st0" d="M41,18v-0.2L25,9c0,0,0,0-0.1,0L9,17.8V18H41z M41.4,18c0.1,0.1,0.1,0.1,0.2,0.2
			c0,0,0,0,0,0L41.3,18H41.4z M41.7,18.2C41.7,18.2,41.7,18.2,41.7,18.2L41.7,18.2z M8.7,18l-0.3,0.2c0,0,0,0,0,0
			c0.1-0.1,0.2-0.1,0.2-0.2H8.7z M8.3,18.2L8.3,18.2C8.3,18.2,8.3,18.2,8.3,18.2z"/>
		<path id="Stroke-3" class="st0" d="M13,25v17"/>
		<path id="Stroke-5" class="st0" d="M25,25v17"/>
		<path id="Stroke-7" class="st0" d="M44,48H6"/>
		<path id="Stroke-9" class="st0" d="M37,25v17"/>
	</g>
</g>
<g id="Layer_3" class="st1">
	<g id="Page-1_2_" class="st2">
		<g id="Group-7" transform="translate(3.000000, 1.000000)">
			<polyline id="Stroke-1_2_" class="st0" points="34,48 44.5,29.5 34,11 			"/>
			<polyline id="Stroke-3_1_" class="st0" points="10.1,11 -0.4,29.5 10.1,48 			"/>
			<path id="Stroke-5_1_" class="st0" d="M15.3,11l13.6,37"/>
		</g>
	</g>
</g>
<g id="Layer_4" class="st1">
	<g id="Page-1_1_" class="st2">
		<g id="Group-5">
			<path id="Stroke-1_3_" class="st0" d="M35,24.2v-10c0-0.1,0-0.1-0.1-0.1l-8.7-5C26.1,9,26,9,26,9l-8.7,5c-0.1,0-0.1,0.1-0.1,0.1
				v10c0,0.1,0,0.1,0.1,0.1l8.7,5c0.1,0,0.1,0,0.2,0l8.7-5C35,24.3,35,24.3,35,24.2z"/>
			<path id="Stroke-3_2_" class="st0" d="M43.3,48l-6.4-11.2H14.7L8.3,48H43.3z"/>
		</g>
	</g>
</g>
</svg>
