<?xml version="1.0" encoding="utf-8"?>
<!-- Generator: Adobe Illustrator 21.0.0, SVG Export Plug-In . SVG Version: 6.00 Build 0)  -->
<svg version="1.1" xmlns="http://www.w3.org/2000/svg" xmlns:xlink="http://www.w3.org/1999/xlink" x="0px" y="0px"
	 viewBox="0 0 50 50" style="enable-background:new 0 0 50 50;" xml:space="preserve">
<style type="text/css">
	.st0{display:none;}
	.st1{display:inline;}
	.st2{fill:none;stroke:#273BE2;stroke-width:4;}
</style>
<g id="Layer_1" class="st0">
	<g id="Page-1" class="st1">
		<g id="Group-20" transform="translate(0.000000, 2.000000)">
			<path id="Rectangle-5" class="st2" d="M6,10.5C4,10.5,2.5,12,2.5,14v23.7c0,1.9,1.5,3.5,3.5,3.5h38c1.9,0,3.5-1.5,3.5-3.5V14
				c0-1.9-1.5-3.5-3.5-3.5H6z"/>
			<polygon id="Stroke-1" class="st2" points="27.2,22.2 22.7,22.2 20.5,26.2 22.7,30.3 27.2,30.3 29.5,26.2 			"/>
			<polygon id="Stroke-1-Copy" class="st2" points="28.8,3.9 21.2,3.9 17.4,10.5 32.6,10.5 			"/>
			<path id="Path-2" class="st2" d="M20.5,26.2H1.7"/>
			<path id="Path-2-Copy-2" class="st2" d="M48.3,26.2H29.5"/>
		</g>
	</g>
</g>
<g id="Layer_2" class="st0">
	<g id="Group-11" class="st1">
		<path id="Stroke-1_1_" class="st2" d="M41,13v-0.2L25,4c0,0,0,0-0.1,0L9,12.8V13H41z M41.4,13c0.1,0.1,0.1,0.1,0.2,0.2
			c0,0,0,0,0,0L41.3,13H41.4z M41.7,13.2C41.7,13.2,41.7,13.2,41.7,13.2L41.7,13.2z M8.7,13l-0.3,0.2c0,0,0,0,0,0
			c0.1-0.1,0.2-0.1,0.2-0.2H8.7z M8.3,13.2L8.3,13.2C8.3,13.2,8.3,13.2,8.3,13.2z"/>
		<path id="Stroke-3" class="st2" d="M13,20v17"/>
		<path id="Stroke-5" class="st2" d="M25,20v17"/>
		<path id="Stroke-7" class="st2" d="M44,43H6"/>
		<path id="Stroke-9" class="st2" d="M37,20v17"/>
	</g>
</g>
<g id="Layer_3" class="st0">
	<g id="Page-1_2_" class="st1">
		<g id="Group-7" transform="translate(3.000000, 1.000000)">
			<polyline id="Stroke-1_2_" class="st2" points="34,43 44.5,24.5 34,6 			"/>
			<polyline id="Stroke-3_1_" class="st2" points="10.1,6 -0.4,24.5 10.1,43 			"/>
			<path id="Stroke-5_1_" class="st2" d="M15.3,6l13.6,37"/>
		</g>
	</g>
</g>
<g id="Layer_4">
	<g id="Page-1_1_">
		<g id="Group-5">
			<path id="Stroke-1_3_" class="st2" d="M35,24.2v-10c0-0.1,0-0.1-0.1-0.1l-8.7-5C26.1,9,26,9,26,9l-8.7,5c-0.1,0-0.1,0.1-0.1,0.1
				v10c0,0.1,0,0.1,0.1,0.1l8.7,5c0.1,0,0.1,0,0.2,0l8.7-5C35,24.3,35,24.3,35,24.2z"/>
			<path id="Stroke-3_2_" class="st2" d="M43.3,48l-6.4-11.2H14.7L8.3,48H43.3z"/>
		</g>
	</g>
</g>
</svg>
