<?xml version="1.0" encoding="utf-8"?>
<!-- Generator: Adobe Illustrator 21.0.0, SVG Export Plug-In . SVG Version: 6.00 Build 0)  -->
<svg version="1.1" id="Layer_1" xmlns="http://www.w3.org/2000/svg" xmlns:xlink="http://www.w3.org/1999/xlink" x="0px" y="0px"
	 viewBox="0 0 601.6 162.7" style="enable-background:new 0 0 601.6 162.7;" xml:space="preserve">
<style type="text/css">
	.st0{opacity:0;}
	.st1{fill:#4B4BE2;}
</style>
<title>Ocaml-logo</title>
<g id="Layer_2" class="st0">
	<g id="Layer_1-2">
		<path class="st1" d="M228.8,152.4c3.7,3.9,8.2,7.1,13.2,9.2c1,0.4,2,0.8,3,1.1h28.3c0.7-0.2,1.5-0.4,2.1-0.7c5-2,9.5-5.2,13.2-9.2
			c3.5-3.9,6.1-9.2,8.3-14.9s3.1-12.3,3.1-19.8s-0.9-14-3.1-19.8c-1.6-5.5-4.5-10.7-8.4-14.9c-3.7-3.9-8.2-7.1-13.2-9.2
			c-4.8-2.2-10.5-3.1-16.7-3.1c-5.7-0.1-11.4,0.9-16.7,3.1c-5,2-9.5,5.2-13.2,9.2c-3.6,4.3-6.5,9.2-8.3,14.5
			c-2.2,5.7-3.1,12.3-3.1,19.8c0,7,0.9,14.1,3.1,19.8C222.1,142.9,225,148,228.8,152.4z M243.7,95.7c4-4.8,8.8-7.5,14.9-7.5
			c6.2,0,11.4,2.2,14.9,7.5s5.3,12.3,5.3,21.5s-1.8,16.7-5.3,21.9c-4,5.3-8.8,7.9-14.9,7.9s-11-2.6-14.9-7.9
			c-3.5-5.3-5.3-12.7-5.3-21.9S240.2,101,243.7,95.7z"/>
		<path class="st1" d="M319.7,154.1c3.8,3.7,8.3,6.6,13.2,8.6h32.3l0.6-0.3c5.1-2.4,9.5-5.9,13.2-10.1l-11.4-12.3
			c-2.2,2.3-4.7,4.2-7.5,5.7c-3,1.4-6.3,2.2-9.7,2.2c-7,0-12.3-2.6-16.2-7.9s-6.1-12.7-6.1-22c-0.1-4.2,0.5-8.3,1.8-12.3
			c1.1-3.3,2.7-6.4,4.8-9.2c1.8-2.5,4.2-4.5,7-5.7c2.7-1.4,5.7-2.1,8.8-2.2c3.1,0,6.1,0.4,8.3,1.8c2.6,1.1,5,2.8,7,4.8l11.4-12.7
			c-3.3-3.4-7.2-6.2-11.4-8.3c-4.8-2.3-10-3.5-15.4-3.5c-5.7-0.1-11.4,1-16.7,3.1c-5.1,2.3-9.7,5.4-13.6,9.3
			c-4.1,4.3-7.2,9.4-9.2,14.9c-2.3,6.5-3.5,13.3-3.5,20.2c-0.1,7.3,0.9,14.5,3.1,21.5C312.5,145.1,315.6,150,319.7,154.1z"/>
		<path class="st1" d="M386,144c0,2.6,0.4,5.7,1.8,7.5c0.8,2.5,2.1,4.7,4,6.6c1.8,2,4.1,3.5,6.6,4.4l0.5,0.3H415
			c0.9-0.3,1.7-0.7,2.6-1.1c3.4-1.6,6.5-3.7,9.2-6.1h0.4l1.8,7h16.7v-39.5c0-10.5-2.2-18.5-7-23.7c-4.8-4.8-11.9-7.5-20.6-7.5
			c-5.2,0-10.4,0.9-15.4,2.6c-4.9,1.8-9.6,4-14.1,6.6l7.5,13.6c3.5-1.8,6.6-3.1,9.7-4.4c2.8-1.3,5.8-1.9,8.8-1.8
			c3.5,0,6.1,0.9,7.9,2.6c1.7,2.1,2.6,4.8,2.6,7.5c-13.6,1.3-23.7,4.4-29.9,8.3C389.1,131.3,386,136.5,386,144z M409.3,135.2
			c3.1-1.8,7.9-3.5,15.4-4.4v12.3c-1.5,1.7-3.3,3.2-5.3,4.4c-1.9,0.9-4,1.4-6.1,1.3c-2,0-4-0.7-5.7-1.8c-1.5-1.1-2.3-3-2.2-4.8
			C405.3,139.6,407.1,137.4,409.3,135.2L409.3,135.2z"/>
		<path class="st1" d="M477.3,162.7v-45.1c4.4-4.4,8.4-6.6,11.9-6.6c3.1,0,5.3,0.9,6.6,2.6c1.3,2.2,2.2,5.7,2.2,10.5v38.5h20.6
			v-45.1c4.4-4.4,8.4-6.6,11.9-6.6c3.1,0,5.3,0.9,6.6,2.6c1.3,2.2,2.2,5.7,2.2,10.5v38.5h20.2v-41.1c0-8.8-1.8-15.8-5.3-20.6
			s-8.8-7.5-16.2-7.5c-4.4-0.1-8.6,1.2-12.3,3.5c-3.4,2.5-6.6,5.3-9.7,8.3c-1.5-3.5-3.9-6.6-7-8.8c-3.1-2.2-7-3.1-11.9-3.1
			s-8.8,0.9-11.9,3.1c-3.3,2.2-6.4,4.7-9.3,7.4h-0.4l-1.3-8.8h-17.5v67.4L477.3,162.7z"/>
		<path class="st1" d="M573.5,150.6c0.5,2.7,1.5,5.2,3.1,7.5c1.3,2,3.2,3.7,5.4,4.6h19.6l-2.6-15.2c-0.4,0.3-0.8,0.5-1.3,0.4h-1.3
			c-1-0.1-2-0.5-2.6-1.3c-0.9-0.9-1.3-2.2-1.3-4.4V65h-20.7l0.9,76C572.7,144.2,573,147.4,573.5,150.6z"/>
		<path class="st1" d="M97,158c-0.9-1.8-1.9-3.5-3-5.1c-1.8-2.1-2.2-2.2-2.8-4.9c-1.4-6.4-3.5-12.7-6.2-18.7c-1.5-3-4-5.5-6.2-7.7
			c-1.9-1.9-6.3-5.1-7.2-4.9c-7.3,1.4-9.5,8.5-12.9,14.1c-1.9,3.2-3.8,5.8-5.4,9.1c-1.4,3-1.2,6.5-3.6,9.1c-2.3,2.6-4.1,5.6-5.1,8.9
			c-0.2,0.4-0.4,2.6-0.7,4.9h54.6C98.1,161.2,97.4,159,97,158z"/>
		<path class="st1" d="M195.2,24.6C195.1,11,184.1,0,170.5,0H24.6C11,0,0,11,0,24.5c0,0,0,0,0,0v53.6c3.6-1.2,8.5-8.8,10.2-10.6
			c2.7-3.2,3.3-7.3,4.7-9.8C18,52.1,18.5,48,25.7,48c3.3,0,4.7,0.8,6.9,3.8c2.1,2.7,3.9,5.6,5.5,8.7c1.5,3,3.8,7,5,7.8
			c0.7,0.5,1.4,1,2.2,1.4c1.1,0.4,2.1-0.4,2.9-1c1-0.8,1.4-2.3,2.3-4.5c1.3-3.2,2.7-6.7,3.5-8.1c1.4-2.2,1.9-4.9,3.4-6.2
			c2.2-1.9,5.2-2.1,6-2.2c4.5-1,6.6,2.2,8.8,4.1c2.1,2.1,3.8,4.6,4.9,7.4c1.1,2.8,2.5,5.4,3.2,6.9c1.1,2.3,2,4.6,2.8,7
			c0.8,2.6,2.7,4.7,3.6,6c0,0,1.2,3.3,8.4,6.3c2.1,0.9,4.4,1.7,6.6,2.3c3.2,1.1,6.2,1,10,0.6c2.8,0,4.3-4,5.5-7.2
			c0.7-1.9,1.5-7.3,1.9-8.8s-0.7-2.6,0.3-4s1.8-1.7,2.3-3.6c1.4-4.2,9.1-4.4,13.5-4.4c3.7,0,3.2,3.6,9.4,2.3c3.6-0.7,7,0.4,10.7,1.5
			c3.2,0.8,6.2,1.8,8,3.8c1.1,1.4,4,8.1,1.1,8.4c0.3,0.3,0.6,1,1,1.2c-0.7,2.6-3.4,0.7-5.1,0.4c-1.9-0.3-3.9,0-5.6,1
			c-3.6,1.5-8.6,1.4-11.8,4c-2.6,2.2-2.6,7-3.9,9.8c0,0-3.4,8.7-10.7,14c-3.9,3.2-8.6,5.2-13.6,5.9c-3.6,0.5-7.1,0.6-10.7,0.4
			c-1.8-0.1-3.6-0.1-5.4-0.1c-1.1,0-4.7-0.1-4.5,0.3l-0.4,1c0,0.5,0.1,0.9,0.3,1.4c0.1,0.8,0.1,1.5,0.3,2.2c0,1.5-0.1,3.2,0,4.7
			c0.1,3.2,1.4,6,1.5,9.3c0.1,3.6,1.9,7.4,3.7,10.3c0.7,1.1,1.7,1.2,2.1,2.6s0,3.3,0.3,4.9c0.7,4.4,1.7,8.8,3.2,13h90.4L195.2,24.6z
			 M97.7,115.4L97.7,115.4z"/>
		<path class="st1" d="M39.3,156.2c0.6-1.6,1.1-3.2,1.5-4.8c0.2-1.6,0.1-3.2-0.1-4.8c-0.3-4,2.9-5.4,4.4-8.7c1.4-3,2.2-6.3,3.3-9.3
			s2.8-7,5.6-8.5c-0.4-0.4-6-0.6-7.6-0.7s-3.3-0.4-4.9-0.7c-3-0.6-6.5-1.2-9.3-1.9c-1.8-0.4-8-2.6-9.2-3.2c-3.2-1.4-5.2-5.3-7.6-4.9
			c-1.6,0.2-3.1,1-4,2.3c-0.8,1.2-1.1,3.4-1.6,5s-1.8,3.3-2.6,5c-1.9,2.9-5.1,5.5-6.4,8.4c-0.3,0.7-0.4,1.4-0.7,2.1v31.4h38
			C38.5,160.1,38.9,157.4,39.3,156.2z"/>
	</g>
</g>
<path class="st1" d="M27.8,151.2h23.7l8-14.4h54v26h13V86.3c0-10.4-8.5-18.9-18.9-18.9h-37L57,43.9H22.3L8.7,67.5H0v13h1.2l-0.1,0.1
	h77l-0.1-0.1h29.6c3.2,0,5.9,2.6,5.9,5.9v37.5h-54l-8-14.4H27.8l-8,14.4H0v13h19.8L27.8,151.2z M23.7,67.5l6.1-10.6h19.7l6.1,10.6
	H23.7z M35.5,122.4h8.4l4.4,7.9l-4.4,7.9h-8.4l-4.4-7.9L35.5,122.4z"/>
</svg>
