<?xml version="1.0" encoding="utf-8"?>
<!-- Generator: Adobe Illustrator 21.0.0, SVG Export Plug-In . SVG Version: 6.00 Build 0)  -->
<svg version="1.1" id="Layer_1" xmlns="http://www.w3.org/2000/svg" xmlns:xlink="http://www.w3.org/1999/xlink" x="0px" y="0px"
	 viewBox="0 0 1280 800" style="enable-background:new 0 0 1280 800;" xml:space="preserve">
<style type="text/css">
	.st0{opacity:0.5126;fill:url(#Fill-8-Copy-4_5_);enable-background:new    ;}
	.st1{opacity:1.635045e-02;fill:#273BE2;enable-background:new    ;}
	.st2{opacity:2.120500e-02;fill:#273BE2;enable-background:new    ;}
	.st3{opacity:4.120500e-02;fill:#273BE2;enable-background:new    ;}
	.st4{fill:#F8F8F8;}
	.st5{fill:#273BE2;}
</style>
<g id="Page-1">
	<g id="Group-45">
		
			<radialGradient id="Fill-8-Copy-4_5_" cx="2495.9333" cy="-3.4287" r="0.61" gradientTransform="matrix(-211.3211 -484.958 507.9049 -221.3202 529581 1210061.25)" gradientUnits="userSpaceOnUse">
			<stop  offset="0" style="stop-color:#273BE2"/>
			<stop  offset="1" style="stop-color:#FFFFFF;stop-opacity:0.1971"/>
		</radialGradient>
		<path id="Fill-8-Copy-4" class="st0" d="M424,702.7c-17.2,9.9-38.4,9.9-55.6,0L143.3,573.8c-17.2-9.8-27.8-28.1-27.8-47.6V268.4
			c0-19.7,10.6-37.8,27.8-47.8l225-128.9c17.2-9.9,38.4-9.9,55.6,0L649,220.6c17.2,9.9,27.8,28.1,27.8,47.8v257.8
			c0,19.7-10.6,38-27.8,47.8L424,702.7z"/>
		<path id="Fill-8-Copy-4_1_" class="st1" d="M712.2,615.1l-280.7,160c-21.4,12.1-47.9,12.1-69.4,0l-280.9-160
			c-21.4-12.1-34.7-34.8-34.7-59.4V235.5c0-24.5,13.3-47.1,34.7-59.4L362,16c21.4-12.1,47.9-12.1,69.4,0l280.7,160.1
			c21.4,12.3,34.7,34.8,34.7,59.4v320.3C746.6,580.2,733.6,602.9,712.2,615.1"/>
		<path id="Fill-8-Copy-4_2_" class="st2" d="M592.5,533.8L416.8,634.3c-13.4,7.7-30,7.7-43.3,0L197.8,533.8
			c-13.3-7.7-21.8-21.8-21.8-37.2v-201c0-15.4,8.2-29.6,21.8-37.2L373.5,158c13.4-7.7,30-7.7,43.3,0l175.7,100.5
			c13.4,7.7,21.8,21.8,21.8,37.2v201C614,512,605.9,526.3,592.5,533.8"/>
		<path id="Fill-8-Copy-4_3_" class="st3" d="M502.6,470.8l-95.7,54.8c-7.3,4.3-16.3,4.3-23.6,0l-95.7-54.8
			c-7.3-4.3-11.7-12-11.7-20.4V340.8c0-8.4,4.6-16.2,11.7-20.4l95.7-54.8c7.3-4.3,16.3-4.3,23.6,0l95.7,54.8
			c7.3,4.3,11.7,12,11.7,20.4v109.6C514.3,458.8,509.9,466.6,502.6,470.8"/>
		<path id="Fill-8-Copy-4_4_" class="st4" d="M401.2,474.8c-4.4,2.6-9.9,2.6-14.5,0l-58.2-33c-4.4-2.6-7.2-7.2-7.2-12.1v-66
			c0-5.1,2.7-9.7,7.2-12.1l58.2-33c4.4-2.6,9.9-2.6,14.5,0l58.2,33c4.4,2.6,7.2,7.2,7.2,12.1v66c0,5.1-2.7,9.8-7.2,12.1L401.2,474.8
			z"/>
		<g id="Group-7" transform="translate(284.000000, 318.000000)">
			<path id="Fill-1" class="st5" d="M79.3,111.3V61.7c0-0.7,0.3-1.2,0.9-1.4l29.5-16.7c0.5-0.3,1.2-0.3,1.7,0l29.5,16.7
				c0.5,0.3,0.9,0.9,0.9,1.4v33.5c0,0.7-0.3,1.2-0.9,1.4l-12.9,7.2c-0.8,0.4-0.8,1.6,0,2l12.9,7.2c0.5,0.3,1.2,0.3,1.7,0l12.3-7
				c1.4-0.9,2.3-2.3,2.3-3.9V54.5c0-1.6-0.9-3.1-2.3-3.9l-42-23.8c-1.4-0.9-3.1-0.9-4.7,0l-42,23.8c-1.4,0.9-2.3,2.3-2.3,3.9v47.6
				c0,1.6,0.9,3.1,2.3,3.9l11.1,6.3C78.1,113,79.3,112.3,79.3,111.3"/>
			<path id="Fill-3" class="st5" d="M124.9,122.5l-27.9-15.8c-0.5-0.3-1.2,0.1-1.2,0.7v15c0,0.7,0.3,1.3,0.9,1.6l11.7,6.5
				c1.4,0.8,3.1,0.8,4.6,0l12-6.8C125.4,123.6,125.4,122.8,124.9,122.5"/>
			<path id="Fill-5" class="st5" d="M123.8,87.3l-11.9,6.7c-0.9,0.5-2,0.5-3,0l-11.9-6.7c-0.9-0.5-1.4-1.4-1.4-2.5V71.5
				c0-1,0.5-2,1.4-2.5l11.9-6.7c0.9-0.5,2-0.5,3,0l11.9,6.7c0.9,0.5,1.4,1.4,1.4,2.5v13.3C125.4,85.8,124.9,86.8,123.8,87.3"/>
		</g>
	</g>
</g>
</svg>
