<?xml version="1.0" encoding="utf-8"?>
<!-- Generator: Adobe Illustrator 21.0.0, SVG Export Plug-In . SVG Version: 6.00 Build 0)  -->
<svg version="1.1" id="Layer_1" xmlns="http://www.w3.org/2000/svg" xmlns:xlink="http://www.w3.org/1999/xlink" x="0px" y="0px"
	 viewBox="0 0 1280 800" style="enable-background:new 0 0 1280 800;" xml:space="preserve">
<style type="text/css">
	.st0{opacity:0.5126;fill:url(#Fill-8-Copy-4_4_);enable-background:new    ;}
	.st1{opacity:1.635045e-02;fill:#273BE2;enable-background:new    ;}
	.st2{opacity:2.120500e-02;fill:#273BE2;enable-background:new    ;}
	.st3{opacity:4.120500e-02;fill:#273BE2;enable-background:new    ;}
</style>
<g>
	
		<radialGradient id="Fill-8-Copy-4_4_" cx="2495.999" cy="-3.5726" r="0.61" gradientTransform="matrix(-211.3211 -484.958 507.9049 -221.3202 529581 1210061.25)" gradientUnits="userSpaceOnUse">
		<stop  offset="0" style="stop-color:#273BE2"/>
		<stop  offset="1" style="stop-color:#FFFFFF;stop-opacity:0.1971"/>
	</radialGradient>
	<path id="Fill-8-Copy-4" class="st0" d="M337,702.7c-17.2,9.9-38.4,9.9-55.6,0L56.3,573.8c-17.2-9.8-27.8-28.1-27.8-47.6V268.4
		c0-19.7,10.6-37.8,27.8-47.8l225-128.9c17.2-9.9,38.4-9.9,55.6,0L562,220.6c17.2,9.9,27.8,28.1,27.8,47.8v257.8
		c0,19.7-10.6,38-27.8,47.8L337,702.7z"/>
	<path id="Fill-8-Copy-4_1_" class="st1" d="M625.2,615.1l-280.7,160c-21.4,12.1-47.9,12.1-69.4,0l-280.9-160
		c-21.4-12.1-34.7-34.8-34.7-59.4V235.5c0-24.5,13.3-47.1,34.7-59.4L275,16c21.4-12.1,47.9-12.1,69.4,0l280.7,160.1
		c21.4,12.3,34.7,34.8,34.7,59.4v320.3C659.7,580.2,646.6,602.9,625.2,615.1"/>
	<path id="Fill-8-Copy-4_2_" class="st2" d="M505.5,533.8L329.9,634.3c-13.4,7.7-30,7.7-43.3,0L110.9,533.8
		c-13.3-7.7-21.8-21.8-21.8-37.2v-201c0-15.4,8.2-29.6,21.8-37.2L286.5,158c13.4-7.7,30-7.7,43.3,0l175.7,100.5
		c13.4,7.7,21.8,21.8,21.8,37.2v201C527.1,512,519,526.3,505.5,533.8"/>
	<path id="Fill-8-Copy-4_3_" class="st3" d="M415.6,470.8l-95.7,54.8c-7.3,4.3-16.3,4.3-23.6,0l-95.7-54.8
		c-7.3-4.3-11.7-12-11.7-20.4V340.8c0-8.4,4.6-16.2,11.7-20.4l95.7-54.8c7.3-4.3,16.3-4.3,23.6,0l95.7,54.8
		c7.3,4.3,11.7,12,11.7,20.4v109.6C427.4,458.8,422.9,466.6,415.6,470.8"/>
</g>
</svg>
