<?xml version="1.0" encoding="utf-8"?>
<!-- Generator: Adobe Illustrator 21.0.0, SVG Export Plug-In . SVG Version: 6.00 Build 0)  -->
<svg version="1.1" id="Layer_1" xmlns="http://www.w3.org/2000/svg" xmlns:xlink="http://www.w3.org/1999/xlink" x="0px" y="0px"
	 viewBox="0 0 50 50" style="enable-background:new 0 0 50 50;" xml:space="preserve">
<style type="text/css">
	.st0{fill:#273BE2;}
</style>
<g id="Group-7" transform="translate(284.000000, 318.000000)">
	<path id="Fill-1" class="st0" d="M-273.1-278.2v-22.4c0-0.3,0.1-0.5,0.4-0.6l13.3-7.6c0.2-0.1,0.5-0.1,0.8,0l13.3,7.6
		c0.2,0.1,0.4,0.4,0.4,0.6v15.2c0,0.3-0.1,0.5-0.4,0.6l-5.8,3.2c-0.4,0.2-0.4,0.7,0,0.9l5.8,3.2c0.2,0.1,0.5,0.1,0.8,0l5.5-3.2
		c0.6-0.4,1.1-1.1,1.1-1.8v-21.5c0-0.7-0.4-1.4-1.1-1.8l-19-10.7c-0.6-0.4-1.4-0.4-2.1,0l-19,10.7c-0.6,0.4-1.1,1.1-1.1,1.8v21.5
		c0,0.7,0.4,1.4,1.1,1.8l5,2.8C-273.6-277.5-273.1-277.7-273.1-278.2"/>
	<path id="Fill-3" class="st0" d="M-252.5-273.1l-12.6-7.1c-0.2-0.1-0.5,0.1-0.5,0.3v6.8c0,0.3,0.1,0.6,0.4,0.7l5.3,3
		c0.6,0.4,1.4,0.4,2.1,0l5.4-3.1C-252.3-272.7-252.3-273-252.5-273.1"/>
	<path id="Fill-5" class="st0" d="M-253-289.1l-5.4,3c-0.4,0.2-0.9,0.2-1.4,0l-5.4-3c-0.4-0.2-0.6-0.6-0.6-1.1v-6
		c0-0.5,0.2-0.9,0.6-1.1l5.4-3c0.4-0.2,0.9-0.2,1.4,0l5.4,3c0.4,0.2,0.6,0.6,0.6,1.1v6C-252.3-289.7-252.5-289.3-253-289.1"/>
</g>
</svg>
