<?xml version="1.0" encoding="utf-8"?>
<!-- Generator: Adobe Illustrator 21.0.0, SVG Export Plug-In . SVG Version: 6.00 Build 0)  -->
<svg version="1.1" id="Layer_1" xmlns="http://www.w3.org/2000/svg" xmlns:xlink="http://www.w3.org/1999/xlink" x="0px" y="0px"
	 viewBox="0 0 100 30" style="enable-background:new 0 0 100 30;" xml:space="preserve">
<style type="text/css">
	.st0{fill:#273BE2;}
	.st1{fill:#191919;}
</style>
<g>
	<title>Republia-logo-hor</title>
	<g id="Layer_2_2_">
		<g id="Layer_1-2_1_">
			<path class="st0" d="M4.6,23.5V10.6c0-0.2,0.1-0.3,0.2-0.4L12.3,6c0.1-0.1,0.3-0.1,0.4,0l7.5,4.3c0.1,0.1,0.2,0.2,0.2,0.4v8.7
				c0,0.2-0.1,0.3-0.2,0.4l-3.3,1.9c-0.1,0.1-0.2,0.3-0.1,0.4c0,0,0.1,0.1,0.1,0.1l3.3,1.9c0.1,0.1,0.3,0.1,0.4,0l3.1-1.8
				c0.4-0.2,0.6-0.6,0.6-1V8.8c0-0.4-0.2-0.8-0.6-1L13.1,1.6c-0.4-0.2-0.8-0.2-1.2,0L1.3,7.8C0.9,8,0.7,8.4,0.7,8.8v12.3
				c0,0.4,0.2,0.8,0.6,1l2.8,1.6c0.2,0.1,0.4,0,0.5-0.1C4.6,23.6,4.6,23.6,4.6,23.5z"/>
			<path class="st0" d="M16.1,26.3l-7-4.1c-0.1-0.1-0.2,0-0.3,0.1c0,0,0,0.1,0,0.1v3.9c0,0.2,0.1,0.3,0.2,0.4l2.9,1.7
				c0.4,0.2,0.8,0.2,1.1,0l3-1.8C16.2,26.6,16.2,26.4,16.1,26.3C16.1,26.3,16.1,26.3,16.1,26.3z"/>
			<path class="st0" d="M15.9,17.4l-3,1.7c-0.2,0.1-0.5,0.1-0.7,0l-3-1.7c-0.2-0.1-0.4-0.4-0.4-0.6v-3.5c0-0.3,0.1-0.5,0.4-0.6
				l3-1.7c0.2-0.1,0.5-0.1,0.7,0l3,1.7c0.2,0.1,0.4,0.4,0.4,0.6v3.5C16.3,17,16.2,17.2,15.9,17.4z"/>
			<path class="st1" d="M33.7,16.1v3.1h-2v-8.3h2.8c0.5,0,1.1,0,1.6,0.2c0.4,0.1,0.7,0.3,1.1,0.5c0.3,0.2,0.5,0.5,0.6,0.8
				c0.1,0.3,0.2,0.6,0.2,1c0,0.3,0,0.5-0.1,0.8c-0.1,0.2-0.2,0.5-0.3,0.7c-0.2,0.2-0.3,0.4-0.5,0.5c-0.2,0.2-0.5,0.3-0.7,0.4
				c0.1,0.1,0.3,0.1,0.4,0.2c0.1,0.1,0.2,0.2,0.3,0.3l1.8,2.9h-1.9c-0.3,0-0.5-0.1-0.7-0.4l-1.4-2.4c0-0.1-0.1-0.2-0.2-0.2
				c-0.1-0.1-0.2-0.1-0.3-0.1L33.7,16.1z M33.7,14.6h0.8c0.2,0,0.5,0,0.7-0.1c0.2-0.1,0.4-0.2,0.5-0.4c0.1-0.1,0.2-0.2,0.2-0.4
				c0-0.2,0.1-0.3,0.1-0.5c0-0.3-0.1-0.7-0.4-0.9c-0.2-0.2-0.6-0.3-1.1-0.3h-0.8L33.7,14.6z"/>
			<path class="st1" d="M46.3,10.9v1.4h-3.4v1.8h2.7v1.4h-2.5v2.2h3.2v1.4h-5.4v-8.3H46.3z"/>
			<path class="st1" d="M51.1,16.4v2.8h-2v-8.3h3c0.5,0,1,0.1,1.5,0.2c0.4,0.1,0.8,0.3,1.1,0.6c0.3,0.2,0.5,0.5,0.6,0.9
				c0.1,0.3,0.2,0.7,0.2,1.1c0,0.4-0.1,0.8-0.2,1.1c-0.1,0.3-0.3,0.6-0.6,0.9c-0.3,0.3-0.7,0.5-1.1,0.6c-0.5,0.1-1,0.2-1.5,0.2
				L51.1,16.4z M51.2,14.8h1c0.5,0,0.9-0.1,1.1-0.4c0.2-0.3,0.4-0.7,0.3-1c0-0.2,0-0.4-0.1-0.5c-0.1-0.2-0.1-0.3-0.3-0.4
				c-0.1-0.1-0.3-0.2-0.5-0.3c-0.2-0.1-0.4-0.1-0.6-0.1h-1L51.2,14.8z"/>
			<path class="st1" d="M61.6,17.5c0.2,0,0.5,0,0.7-0.1c0.2-0.1,0.4-0.2,0.5-0.4c0.1-0.2,0.3-0.4,0.3-0.6c0.1-0.3,0.1-0.5,0.1-0.8
				v-4.9h2v4.9c0,0.5-0.1,1-0.2,1.4c-0.3,0.8-1,1.5-1.8,1.8c-1,0.3-2,0.3-3,0c-0.4-0.2-0.8-0.4-1.1-0.7c-0.3-0.3-0.6-0.7-0.7-1.1
				c-0.2-0.4-0.3-0.9-0.2-1.4v-4.9h2v4.9c0,0.3,0,0.5,0.1,0.8c0.1,0.2,0.2,0.4,0.3,0.6c0.1,0.2,0.3,0.3,0.5,0.4
				C61.1,17.4,61.3,17.5,61.6,17.5z"/>
			<path class="st1" d="M68.2,19.1v-8.3h3c0.5,0,1,0,1.5,0.2c0.4,0.1,0.7,0.2,1,0.4c0.2,0.2,0.4,0.4,0.6,0.7
				c0.1,0.3,0.2,0.6,0.2,0.9c0,0.2,0,0.4-0.1,0.5c-0.1,0.2-0.1,0.3-0.3,0.5c-0.1,0.2-0.3,0.3-0.4,0.4c-0.2,0.1-0.4,0.2-0.6,0.3
				c0.5,0.1,0.9,0.3,1.2,0.6c0.3,0.3,0.4,0.7,0.4,1.1c0,0.3-0.1,0.7-0.2,1c-0.1,0.3-0.3,0.6-0.6,0.8c-0.3,0.2-0.6,0.4-1,0.5
				c-0.4,0.1-0.9,0.2-1.3,0.2H68.2z M70.2,14.3h1c0.2,0,0.4,0,0.6,0c0.1,0,0.3-0.1,0.4-0.2c0.1-0.1,0.2-0.2,0.3-0.3
				c0.1-0.2,0.1-0.3,0.1-0.5c0-0.2,0-0.3-0.1-0.5c0-0.1-0.1-0.2-0.2-0.3c-0.1-0.1-0.2-0.1-0.4-0.2c-0.2,0-0.4-0.1-0.5,0h-1.1
				L70.2,14.3z M70.2,15.5v2.2h1.4c0.2,0,0.4,0,0.6-0.1c0.2-0.1,0.3-0.1,0.4-0.3c0.1-0.1,0.2-0.2,0.2-0.4c0-0.1,0.1-0.3,0.1-0.4
				c0-0.1,0-0.3-0.1-0.4c0-0.1-0.1-0.2-0.2-0.3c-0.1-0.1-0.3-0.2-0.4-0.2c-0.2-0.1-0.4-0.1-0.6-0.1L70.2,15.5z"/>
			<path class="st1" d="M79.4,17.5h3.1v1.6h-5v-8.4h2V17.5z"/>
			<path class="st1" d="M86.9,19.1h-2v-8.3h2L86.9,19.1z"/>
			<path class="st1" d="M97.8,19.1h-1.6c-0.1,0-0.3,0-0.4-0.1c-0.1-0.1-0.2-0.2-0.2-0.3l-0.5-1.4H92l-0.5,1.4c0,0.1-0.1,0.2-0.2,0.3
				c-0.1,0.1-0.2,0.1-0.4,0.1h-1.6l3.2-8.3h2L97.8,19.1z M92.4,15.9h2.3l-0.8-2.3l-0.2-0.5c-0.1-0.2-0.1-0.4-0.2-0.6
				c-0.1,0.2-0.1,0.4-0.2,0.6c-0.1,0.2-0.1,0.4-0.2,0.5L92.4,15.9z"/>
		</g>
	</g>
</g>
</svg>
