<?xml version="1.0" encoding="utf-8"?>
<!-- Generator: Adobe Illustrator 21.0.0, SVG Export Plug-In . SVG Version: 6.00 Build 0)  -->
<svg version="1.1" id="Layer_1" xmlns="http://www.w3.org/2000/svg" xmlns:xlink="http://www.w3.org/1999/xlink" x="0px" y="0px"
	 viewBox="0 0 380 421" style="enable-background:new 0 0 380 421;" xml:space="preserve">
<style type="text/css">
	.st0{filter:url(#filter-2);}
	.st1{fill:#273BE2;}
	.st2{fill:#F8F8F8;}
	.st3{filter:url(#filter-4);}
</style>
<filter  filterUnits="objectBoundingBox" height="105.1%" id="filter-4" width="105.7%" x="-2.9%" y="-2.6%">
	<feGaussianBlur  in="SourceAlpha" result="shadowBlurInner1" stdDeviation="7.5"></feGaussianBlur>
	<feOffset  dx="0" dy="0" in="shadowBlurInner1" result="shadowOffsetInner1"></feOffset>
	<feComposite  in="shadowOffsetInner1" in2="SourceAlpha" k2="-1" k3="1" operator="arithmetic" result="shadowInnerInner1">
		</feComposite>
	
		<feColorMatrix  in="shadowInnerInner1" type="matrix" values="0 0 0 0 0.152941176   0 0 0 0 0.231372549   0 0 0 0 0.88627451  0 0 0 0.499490489 0">
		</feColorMatrix>
</filter>
<filter  filterUnits="objectBoundingBox" height="124.9%" id="filter-2" width="128.1%" x="-14.1%" y="-12.5%">
	<feOffset  dx="0" dy="0" in="SourceAlpha" result="shadowOffsetOuter1"></feOffset>
	<feGaussianBlur  in="shadowOffsetOuter1" result="shadowBlurOuter1" stdDeviation="15"></feGaussianBlur>
	
		<feColorMatrix  in="shadowBlurOuter1" type="matrix" values="0 0 0 0 0.152941176   0 0 0 0 0.231372549   0 0 0 0 0.88627451  0 0 0 0.397446784 0">
		</feColorMatrix>
</filter>
<g>
	<g>
		<g class="st0">
			<path id="path-1_1_" d="M334.2,312.4l-128.3,74.3c-9.8,5.7-21.9,5.7-31.7,0L45.8,312.4C36,306.7,30,296.2,30,284.8V136.2
				c0-11.4,6-21.9,15.8-27.6l128.3-74.3c9.8-5.7,21.9-5.7,31.7,0l128.3,74.3c9.8,5.7,15.8,16.2,15.8,27.6v148.7
				C350,296.2,344,306.7,334.2,312.4"/>
		</g>
		<g>
			<path class="st1" d="M220.7,299.7l-56.9-32.6c-2.2-1.3-5.1-0.5-6.3,1.7c-0.4,0.7-0.6,1.5-0.6,2.3v31.2c0,2.4,1.3,4.7,3.4,5.9
				l23.9,13.6c1.9,1.1,4,1.6,6.1,1.6c2.1,0,4.2-0.5,6.1-1.6l24.3-14c1.1-0.6,1.9-1.6,2.2-2.8c0.3-1.2,0.2-2.4-0.5-3.5
				C222,300.7,221.4,300.1,220.7,299.7z"/>
			<path class="st1" d="M285.5,229.5c-0.8,0-1.6,0.2-2.3,0.6l-56.8,33.5c-2.2,1.3-2.9,4.1-1.7,6.3c0.4,0.7,1,1.3,1.7,1.7l27.1,16
				c1.1,0.6,2.2,0.9,3.4,0.9c1.2,0,2.4-0.3,3.4-0.9l23.8-14.1c3.7-2.2,6.1-6.3,6.1-10.7l0-28.7C290.1,231.6,288,229.5,285.5,229.5z"
				/>
			<path class="st1" d="M256.5,210c0.8,0,1.6-0.2,2.3-0.6l27.9-15.8c2.1-1.2,3.5-3.5,3.5-5.9l-0.1-27.7c0-4.4-2.4-8.4-6.3-10.6
				l-25-14.1c-2.2-1.3-5.1-0.5-6.4,1.7c-0.4,0.7-0.6,1.5-0.6,2.4l0,66.1C251.8,207.9,253.9,210,256.5,210z"/>
			<path class="st1" d="M219.7,112.8l-23.9-13.6c-3.8-2.1-8.4-2.1-12.2,0l-24.3,14c-1.1,0.6-1.9,1.6-2.2,2.8
				c-0.3,1.2-0.2,2.4,0.5,3.5c0.4,0.7,1,1.3,1.7,1.7l56.9,32.6c0.7,0.4,1.5,0.6,2.3,0.6c1.6,0,3.2-0.8,4-2.3
				c0.4-0.7,0.6-1.5,0.6-2.3v-31.2C223.1,116.3,221.8,114.1,219.7,112.8z"/>
			<path class="st1" d="M153.7,151.6l-27.1-16c-2.1-1.3-4.7-1.3-6.9,0l-23.8,14.1c-3.7,2.2-6.1,6.3-6.1,10.7l0,28.7
				c0,1.2,0.5,2.4,1.3,3.3c0.9,0.9,2.1,1.4,3.3,1.4c0,0,0,0,0,0c0.8,0,1.6-0.2,2.3-0.6l56.8-33.5c2.2-1.3,2.9-4.1,1.7-6.4
				C155,152.6,154.4,152,153.7,151.6z"/>
			<path class="st1" d="M123.5,211c-0.8,0-1.6,0.2-2.3,0.6l-27.9,15.8c-2.1,1.2-3.5,3.5-3.5,5.9l0.1,27.7c0,4.4,2.4,8.4,6.3,10.6
				l25,14.1c0.7,0.4,1.5,0.6,2.3,0.6c1.6,0,3.2-0.8,4.1-2.3c0.4-0.7,0.6-1.5,0.6-2.4l0-66.1C128.2,213.1,126.1,211,123.5,211z"/>
			<path class="st1" d="M164.1,230.5l24.6,14.1c1.9,1.1,4.2,1.1,6.1,0l24.6-14.1c1.9-1.1,3-3,3-5.2v-28.2c0-2.2-1.2-4.1-3-5.2
				l-24.6-14.1c-1.9-1.1-4.2-1.1-6.1,0l-24.6,14.1c-1.9,1.1-3,3-3,5.2v28.2C161,227.4,162.2,229.4,164.1,230.5z"/>
		</g>
	</g>
	<path class="st2" d="M334.2,108.6L205.9,34.3c-9.8-5.7-21.9-5.7-31.7,0L45.8,108.6C36,114.3,30,124.8,30,136.2v148.7
		c0,11.4,6,21.9,15.8,27.6l128.3,74.3c9.8,5.7,21.9,5.7,31.7,0l128.3-74.3c9.8-5.7,15.8-16.2,15.8-27.6V136.2
		C350,124.8,344,114.3,334.2,108.6z M128.2,281.7c0,0.8-0.2,1.6-0.6,2.4c-0.9,1.5-2.4,2.3-4.1,2.3c-0.8,0-1.6-0.2-2.3-0.6l-25-14.1
		c-3.9-2.2-6.2-6.3-6.3-10.6l-0.1-27.7c0-2.5,1.3-4.7,3.5-5.9l27.9-15.8c0.7-0.4,1.5-0.6,2.3-0.6c2.6,0,4.7,2.1,4.7,4.7L128.2,281.7
		z M153.7,159.7l-56.8,33.5c-0.7,0.4-1.5,0.6-2.3,0.6c0,0,0,0,0,0c-1.2,0-2.4-0.5-3.3-1.4c-0.9-0.9-1.3-2-1.3-3.3l0-28.7
		c0-4.4,2.3-8.5,6.1-10.7l23.8-14.1c2.1-1.2,4.8-1.2,6.9,0l27.1,16c0.7,0.4,1.3,1,1.7,1.7C156.6,155.5,155.9,158.4,153.7,159.7z
		 M222.9,304.9c-0.3,1.2-1.1,2.2-2.2,2.8l-24.3,14c-1.9,1.1-4,1.6-6.1,1.6c-2.1,0-4.2-0.5-6.1-1.6l-23.9-13.6
		c-2.1-1.2-3.4-3.5-3.4-5.9v-31.2c0-0.8,0.2-1.6,0.6-2.3c1.3-2.2,4.1-3,6.3-1.7l56.9,32.6c0.7,0.4,1.3,1,1.7,1.7
		C223.1,302.5,223.2,303.7,222.9,304.9z M161.1,225.3v-28.2c0-2.1,1.2-4.1,3-5.2l24.6-14.1c1.9-1.1,4.2-1.1,6.1,0l24.6,14.1
		c1.9,1.1,3,3.1,3,5.2v28.2c0,2.1-1.2,4.1-3,5.2l-24.6,14.1c-1.9,1.1-4.2,1.1-6.1,0l-24.6-14.1C162.2,229.4,161,227.4,161.1,225.3z
		 M223.1,149.9c0,0.8-0.2,1.6-0.6,2.3c-0.9,1.5-2.4,2.3-4,2.3c-0.8,0-1.6-0.2-2.3-0.6l-56.9-32.6c-0.7-0.4-1.3-1-1.7-1.7
		c-0.6-1.1-0.8-2.3-0.5-3.5c0.3-1.2,1.1-2.2,2.2-2.8l24.3-14c3.8-2.2,8.4-2.2,12.2,0l23.9,13.6c2.1,1.2,3.4,3.5,3.4,5.9V149.9z
		 M284.1,273.6l-23.8,14.1c-1.1,0.6-2.2,0.9-3.4,0.9c-1.2,0-2.4-0.3-3.4-0.9l-27.1-16c-0.7-0.4-1.3-1-1.7-1.7
		c-1.2-2.2-0.5-5.1,1.7-6.3l56.8-33.5c0.7-0.4,1.5-0.6,2.3-0.6c2.6,0,4.6,2.1,4.6,4.7l0,28.7C290.1,267.3,287.8,271.4,284.1,273.6z
		 M286.7,193.6l-27.9,15.8c-0.7,0.4-1.5,0.6-2.3,0.6c-2.6,0-4.7-2.1-4.7-4.7l0-66.1c0-0.8,0.2-1.6,0.6-2.4c1.3-2.2,4.2-2.9,6.4-1.7
		l25,14.1c3.9,2.2,6.2,6.3,6.3,10.6l0.1,27.7C290.1,190.2,288.8,192.4,286.7,193.6z"/>
	<g class="st3">
		<path id="path-3_2_" d="M307.6,293.5L202.9,354c-8,4.6-17.9,4.6-25.9,0L72.4,293.5c-8-4.6-12.9-13.2-12.9-22.4V150
			c0-9.3,4.9-17.8,12.9-22.4L177.1,67c8-4.6,17.9-4.6,25.9,0l104.6,60.5c8,4.6,12.9,13.2,12.9,22.4V271
			C320.5,280.3,315.6,288.9,307.6,293.5"/>
	</g>
</g>
</svg>
