<?xml version="1.0" standalone="no"?>
<!DOCTYPE svg PUBLIC "-//W3C//DTD SVG 20010904//EN"
 "http://www.w3.org/TR/2001/REC-SVG-20010904/DTD/svg10.dtd">
<svg version="1.0" xmlns="http://www.w3.org/2000/svg"
 width="700.000000pt" height="700.000000pt" viewBox="0 0 700.000000 700.000000"
 preserveAspectRatio="xMidYMid meet">
<metadata>
Created by potrace 1.11, written by Peter Selinger 2001-2013
</metadata>
<g transform="translate(0.000000,700.000000) scale(0.100000,-0.100000)"
fill="#000000" stroke="none">
<path d="M3419 6821 c-36 -11 -173 -84 -177 -93 -2 -5 -7 -8 -12 -8 -7 0 -124
-63 -226 -122 -16 -9 -67 -38 -114 -64 -47 -26 -125 -71 -175 -99 -49 -28
-115 -65 -145 -82 -30 -16 -122 -68 -205 -115 -82 -47 -166 -94 -185 -105 -19
-11 -57 -32 -85 -48 -173 -98 -259 -145 -263 -145 -2 0 -16 -8 -30 -18 -15
-11 -52 -32 -82 -49 -30 -17 -73 -40 -95 -53 -22 -12 -76 -42 -120 -67 -44
-24 -96 -53 -115 -65 -19 -11 -116 -65 -215 -121 -99 -55 -198 -111 -220 -123
-22 -13 -91 -51 -154 -86 -129 -71 -205 -138 -242 -213 l-24 -50 0 -1565 0
-1565 23 -48 c43 -88 90 -122 452 -320 30 -17 136 -76 236 -133 99 -56 187
-104 195 -105 25 -5 67 10 75 28 4 10 8 734 9 1610 1 1329 3 1596 15 1617 7
14 17 26 20 26 6 0 97 51 305 170 83 47 255 146 294 168 25 14 67 38 93 53 27
16 51 29 54 29 3 0 30 16 60 35 30 19 56 35 58 35 2 0 53 29 114 64 61 36 131
76 154 89 24 13 124 70 223 127 99 56 196 112 215 122 19 11 101 58 182 104
202 116 167 120 473 -55 17 -10 81 -47 143 -82 62 -35 128 -72 145 -82 18 -11
230 -132 472 -269 242 -138 452 -259 467 -269 15 -11 29 -19 32 -19 3 0 71
-38 152 -85 81 -47 149 -85 150 -85 2 0 26 -14 53 -30 30 -19 54 -42 62 -62
20 -48 19 -2175 -1 -2212 -7 -14 -17 -26 -20 -26 -4 0 -43 -20 -86 -43 -44
-24 -110 -61 -149 -82 -38 -21 -96 -53 -128 -71 -32 -19 -60 -34 -62 -34 -3 0
-26 -13 -52 -29 -27 -15 -79 -45 -118 -66 -245 -132 -259 -140 -271 -164 -6
-12 -9 -33 -6 -46 5 -28 14 -34 197 -135 33 -18 98 -54 145 -80 490 -273 529
-293 573 -288 32 4 110 45 312 163 149 87 290 169 315 183 210 116 273 168
317 260 l27 57 0 1555 c-1 1553 -1 1555 -22 1602 -44 99 -72 118 -542 380 -25
14 -200 113 -390 220 -190 107 -367 207 -395 222 -27 16 -79 45 -115 66 -36
20 -85 48 -110 62 -57 32 -546 307 -890 501 -400 227 -414 234 -485 235 -33 0
-72 -3 -86 -7z"/>
<path d="M3408 4529 c-16 -6 -94 -48 -175 -93 -82 -46 -175 -98 -208 -116 -33
-18 -89 -49 -125 -70 -36 -20 -96 -53 -134 -74 -146 -78 -176 -99 -197 -143
-20 -41 -20 -59 -20 -507 0 -446 1 -466 20 -504 23 -45 37 -55 301 -201 102
-56 192 -106 200 -111 79 -46 295 -163 323 -175 91 -38 145 -27 298 58 63 35
139 77 169 94 30 17 114 63 185 103 72 40 150 83 175 97 132 74 177 104 190
129 13 23 15 104 14 503 0 434 -2 479 -18 513 -20 42 -62 71 -256 175 -30 17
-111 62 -180 100 -69 38 -150 84 -180 100 -30 17 -80 45 -110 62 -30 18 -71
39 -90 48 -42 20 -145 26 -182 12z"/>
<path d="M2595 1696 c-18 -13 -19 -34 -19 -514 0 -393 2 -505 13 -525 11 -21
46 -44 191 -125 19 -10 152 -86 295 -167 373 -212 364 -208 444 -208 81 1 99
9 391 178 113 65 214 123 225 129 11 6 82 47 158 90 132 76 137 79 137 111 0
30 -7 37 -66 74 -36 22 -67 41 -70 41 -2 0 -50 26 -107 59 -110 63 -371 211
-452 256 -27 15 -81 45 -120 67 -38 21 -77 43 -85 48 -17 11 -656 371 -760
428 -36 20 -78 44 -95 54 -36 22 -55 23 -80 4z"/>
</g>
</svg>
