<?xml version="1.0" encoding="utf-8"?>
<!-- Generator: Adobe Illustrator 21.0.0, SVG Export Plug-In . SVG Version: 6.00 Build 0)  -->
<svg version="1.1" id="Layer_1" xmlns="http://www.w3.org/2000/svg" xmlns:xlink="http://www.w3.org/1999/xlink" x="0px" y="0px"
	 viewBox="0 0 50 50" style="enable-background:new 0 0 50 50;" xml:space="preserve">
<style type="text/css">
	.st0{fill:#FFFFFF;}
	.st1{display:none;}
	.st2{display:inline;}
	.st3{fill:#F8F8F8;}
</style>
<g>
	<polygon id="path-1_2_" class="st0" points="5.2,4.1 45.9,4.1 45.9,44.9 5.2,44.9 	"/>
</g>
<g>
	<path id="path-3_1_" class="st0" d="M22.6,31.3c1.6,0.5,6.5,2.4,7.2-1.1c0.8-3.7-4.3-4.6-5.9-5.1L22.6,31.3z"/>
</g>
<g>
	<path id="path-1_1_" class="st0" d="M25.1,21.9c1.6,0.3,6.3,1.5,7.1-0.9c0.8-2.5-4.2-3-5.7-3.3L25.1,21.9z"/>
</g>
<g id="Layer_2" class="st1">
	<g id="Page-1_2_" class="st2">
		<path id="Fill-1_1_" class="st3" d="M48.9,10.7c-1.7,0.8-3.6,1.3-5.5,1.5c2-1.2,3.5-3,4.2-5.2c-1.9,1.1-3.9,1.9-6.1,2.3
			c-1.8-1.8-4.2-3-7-3c-5.3,0-9.6,4.2-9.6,9.5c0,0.7,0.1,1.5,0.2,2.2c-8-0.4-15.1-4.2-19.8-9.9C4.5,9.5,4,11.1,4,12.9
			c0,3.3,1.7,6.2,4.3,7.9c-1.6,0-3.1-0.5-4.3-1.2v0.1c0,4.6,3.3,8.4,7.7,9.3c-0.8,0.2-1.7,0.3-2.5,0.3c-0.6,0-1.2-0.1-1.8-0.2
			c1.2,3.8,4.8,6.5,9,6.6c-3.3,2.5-7.4,4-11.9,4c-0.8,0-1.5,0-2.3-0.1c4.2,2.7,9.3,4.2,14.7,4.2c17.7,0,27.3-14.4,27.3-26.9
			c0-0.4,0-0.8,0-1.2C46,14.3,47.6,12.6,48.9,10.7"/>
	</g>
</g>
<g id="Layer_3" class="st1">
	<g id="Page-1_1_" class="st2">
		<path id="Fill-1" class="st3" d="M4.2,25C2,24.4,2,22.9,4.7,21.8L44.4,6.9c1.8-0.8,3.6,0.4,2.9,3.1l-6.8,31.1
			c-0.5,2.2-1.8,2.7-3.7,1.7l-10.3-7.4l-5,4.7c-0.6,0.5-1,1-2.1,1l0.7-10.3l0,0l0,0l0,0l0,0L39.3,14c0.8-0.7-0.2-1.1-1.3-0.4
			L14.4,28.1L4.2,25z"/>
	</g>
</g>
<g id="Layer_4" class="st1">
	<g id="Page-1_3_" class="st2">
		<g id="Group-10" transform="translate(2.000000, 0.000000)">
			<g id="Group-3" transform="translate(10.000000, 7.000000)">
				<g id="Clip-2">
				</g>
				<path id="Fill-1_2_" class="st3" d="M13.1,14.9c1.6,0.3,6.3,1.5,7.1-0.9c0.8-2.5-4.2-3-5.7-3.3L13.1,14.9z"/>
			</g>
			<g id="Group-6" transform="translate(9.000000, 10.000000)">
				<g id="Clip-5">
				</g>
				<path id="Fill-4" class="st3" d="M11.6,21.3c1.6,0.5,6.5,2.4,7.2-1.1c0.8-3.7-4.3-4.6-5.9-5.1L11.6,21.3z"/>
			</g>
			<g id="Group-9">
				<g id="Clip-8">
				</g>
				<path id="Fill-7" class="st3" d="M-0.7,19.1C-4,32.2,4,45.5,17.1,48.7c2,0.5,4,0.7,5.9,0.7l0,0c11,0,20.9-7.4,23.7-18.5
					c0.5-2,0.7-3.9,0.7-5.9v0c0-11-7.4-20.9-18.5-23.7c-2-0.5-4-0.7-5.9-0.7C12,0.6,2,8-0.7,19.1z M22,9.1l2.7,0.7l-1.1,4.3
					c0.7,0.2,1.4,0.3,2.2,0.5l1.1-4.3l2.7,0.7l-1.1,4.4c3.4,1.2,5.9,2.9,5.4,6.2c-0.4,2.4-1.7,3.5-3.4,3.9c2.4,1.3,3.6,3.2,2.5,6.5
					c-1.4,4.1-4.9,4.5-9.5,3.6L22.2,40l-2.7-0.7l1.1-4.4c-0.7-0.2-1.4-0.4-2.1-0.6l-1.1,4.4L14.7,38l1.1-4.5
					c-0.6-0.2-1.3-0.3-1.9-0.5l-3.5-0.9l1.3-3.1l2,0.5c0.8,0.2,1.1-0.3,1.2-0.6l3-12.1c0-0.6-0.2-1.3-1.3-1.6l-2-0.5l0.7-2.9
					l3.7,0.9l0,0c0.6,0.1,1.1,0.3,1.7,0.4L22,9.1z"/>
			</g>
		</g>
	</g>
</g>
<g id="Layer_5" class="st1">
	<g id="Page-1_4_" class="st2">
		<path id="github-_x5B__x23_142_x5D_" class="st3" d="M49.5,25.6c0,11.1-7,20.5-16.8,23.9C31.5,49.7,31,49,31,48.3
			c0-0.8,0-3.5,0-6.9c0-2.3-0.8-3.9-1.7-4.7c5.5-0.6,11.2-2.7,11.2-12.4c0-2.7-1-5-2.5-6.8c0.3-0.6,1.1-3.2-0.2-6.7
			c0,0-2.1-0.7-6.7,2.6c-2-0.6-4.1-0.8-6.1-0.8c-2.1,0-4.2,0.3-6.1,0.8c-4.7-3.3-6.7-2.6-6.7-2.6c-1.3,3.5-0.5,6-0.2,6.7
			c-1.6,1.8-2.5,4-2.5,6.8c0,9.6,5.7,11.8,11.2,12.4c-0.7,0.6-1.3,1.7-1.6,3.4c-1.4,0.6-5,1.8-7.1-2.1c0,0-1.3-2.4-3.8-2.6
			c0,0-2.4,0-0.2,1.5c0,0,1.6,0.8,2.7,3.7c0,0,1.4,4.5,8.3,3c0,2.1,0,4.1,0,4.7c0,0.7-0.5,1.4-1.7,1.2C7.5,46.2,0.5,36.7,0.5,25.6
			c0-13.9,11-25.2,24.5-25.2C38.5,0.5,49.5,11.7,49.5,25.6z"/>
	</g>
</g>
<g id="Layer_6" class="st1">
	<g id="Page-1_5_" class="st2">
		<path id="facebook-_x5B__x23_176_x5D_" class="st3" d="M29.4,45.8V27.5h5.8l0.9-8.1h-6.8v-4c0-2.1,0.1-4.2,3.1-4.2h3.1V5.5
			c0-0.1-2.7-0.3-5.4-0.3c-5.6,0-9.1,3.4-9.1,9.5v4.7h-6.2v8.1H21v18.3H29.4z"/>
	</g>
</g>
<g id="Layer_7" class="st1">
	<g id="Page-1_6_" class="st2">
		<g id="Group-3_1_">
			<g id="Clip-2_1_">
			</g>
			<path id="Fill-1_3_" class="st3" d="M39,13.8l-2.2,2.1c-0.2,0.1-0.3,0.4-0.2,0.6v15.4c0,0.2,0.1,0.5,0.2,0.6l2.1,2.1v0.5H28.2
				v-0.5l2.2-2.1c0.2-0.2,0.2-0.3,0.2-0.6V19.4L24.5,35h-0.8l-7.2-15.6v10.5c-0.1,0.4,0.1,0.9,0.4,1.2l2.9,3.5V35h-8.2v-0.5l2.9-3.5
				c0.3-0.3,0.4-0.8,0.4-1.2v-12c0-0.3-0.1-0.7-0.3-0.9L12,13.8v-0.5h7.9L26,26.8l5.4-13.5H39V13.8z M5.2,44.9H46V4.1H5.2V44.9z"/>
		</g>
	</g>
</g>
<g>
	<path class="st3" d="M25,8.6c5.3,0,6,0,8.1,0.1c1.9,0.1,3,0.4,3.7,0.7c0.9,0.3,1.7,0.8,2.3,1.5c0.7,0.6,1.2,1.4,1.5,2.3
		c0.3,0.7,0.6,1.8,0.7,3.7c0.1,2.1,0.1,2.7,0.1,8.1s0,6-0.1,8.1c-0.1,1.9-0.4,3-0.7,3.7c-0.7,1.7-2.1,3.1-3.8,3.8
		c-0.7,0.3-1.8,0.6-3.7,0.7c-2.1,0.1-2.7,0.1-8.1,0.1s-6,0-8.1-0.1c-1.9-0.1-3-0.4-3.7-0.7c-0.9-0.3-1.7-0.8-2.3-1.5
		c-0.7-0.6-1.2-1.4-1.5-2.3c-0.3-0.7-0.6-1.8-0.7-3.7C8.6,31,8.6,30.3,8.6,25s0-6,0.1-8.1c0.1-1.9,0.4-3,0.7-3.7
		c0.3-0.9,0.8-1.7,1.5-2.3c0.6-0.7,1.4-1.2,2.3-1.5c0.7-0.3,1.8-0.6,3.7-0.7C19,8.6,19.7,8.6,25,8.6 M25,5c-5.4,0-6.1,0-8.2,0.1
		c-2.1,0.1-3.6,0.4-4.9,0.9c-1.3,0.5-2.5,1.3-3.5,2.3c-1,1-1.8,2.2-2.3,3.5c-0.5,1.3-0.8,2.7-0.9,4.9C5,18.9,5,19.6,5,25
		s0,6.1,0.1,8.2c0.1,2.1,0.4,3.6,0.9,4.9c0.5,1.3,1.3,2.5,2.3,3.5c1,1,2.2,1.8,3.5,2.3c1.3,0.5,2.7,0.8,4.9,0.9
		C18.9,45,19.6,45,25,45s6.1,0,8.2-0.1c2.1-0.1,3.6-0.4,4.9-0.9c2.7-1,4.8-3.2,5.8-5.8c0.5-1.3,0.8-2.7,0.9-4.9
		C45,31.1,45,30.4,45,25s0-6.1-0.1-8.2c-0.1-2.1-0.4-3.6-0.9-4.9c-0.5-1.3-1.3-2.5-2.3-3.5c-1-1-2.2-1.8-3.5-2.3
		c-1.3-0.5-2.7-0.8-4.9-0.9C31.1,5,30.4,5,25,5L25,5L25,5z"/>
	<path class="st3" d="M25,14.7c-5.7,0-10.3,4.6-10.3,10.3S19.3,35.3,25,35.3S35.3,30.7,35.3,25l0,0C35.3,19.3,30.7,14.7,25,14.7z
		 M25,31.7c-3.7,0-6.7-3-6.7-6.7c0-3.7,3-6.7,6.7-6.7c3.7,0,6.7,3,6.7,6.7C31.7,28.7,28.7,31.7,25,31.7z"/>
	<circle class="st3" cx="35.7" cy="14.3" r="2.4"/>
</g>
</svg>
